<svg width="828" height="828" viewBox="0 0 828 828" fill="none" xmlns="http://www.w3.org/2000/svg">
<g opacity="0.5" clip-path="url(#clip0_3033_1182)">
<path d="M443.26 694.632L442.789 690.238C435.714 688.214 428.796 686.254 422.076 683.711L422.233 688.118L429.74 690.697L437.389 692.885L430.092 696.359L422.623 699.455L422.78 703.863C429.849 701.121 436.661 697.813 443.293 694.623L443.26 694.632Z" fill="white"/>
<path d="M414.127 681.851C409.798 691.132 405.026 700.604 399.768 709.711C401.284 709.835 402.816 709.883 404.33 709.866C409.451 700.513 414.087 691.325 418.237 681.773C416.882 681.854 415.476 681.877 414.118 681.818L414.127 681.851Z" fill="white"/>
<path d="M396.246 699.071L388.859 695.754L381.666 692.102L389.36 690.11L396.958 687.757L397.223 683.342C390.436 685.69 383.49 687.446 376.356 689.287L375.759 693.649C382.32 697.047 389.048 700.541 396.014 703.477L396.279 699.062L396.246 699.071Z" fill="white"/>
<path d="M354.329 696.567C353.855 698.883 352.247 700.656 348.568 699.841L346.616 699.41L345.728 703.215L348.801 703.875C353.559 704.895 358.096 702.585 358.949 697.73L360.168 691.471C360.425 690.06 361.849 689.573 363.059 689.743L363.666 686.472C362.456 686.302 361.362 685.254 361.644 683.801L362.838 677.583C363.791 672.702 360.954 668.836 356.835 667.962L354.136 667.379L353.24 671.15L355 671.526C358.297 672.232 358.939 674.497 358.432 676.822L357.261 682.468C356.846 684.345 357.448 686.196 358.613 687.12C357.164 687.509 355.889 688.945 355.483 690.855L354.312 696.501L354.329 696.567Z" fill="white"/>
<path d="M334.509 691.919C333.091 696.643 336.032 700.763 340.744 702.008L343.786 702.817L344.706 699.004L342.803 698.49C339.187 697.517 338.545 695.252 339.169 692.966L340.68 687.405C341.17 685.544 340.709 683.69 339.583 682.65C341.059 682.36 342.384 680.981 342.907 679.11L344.41 673.517C345.033 671.231 346.618 669.5 349.884 670.355L351.596 670.814L352.525 667.034L349.866 666.334C345.793 665.236 341.568 667.392 340.209 672.205L338.459 678.325C338.061 679.738 336.596 680.201 335.464 679.798L334.516 682.983C335.639 683.353 336.733 684.402 336.326 685.782L334.584 691.935L334.509 691.919Z" fill="white"/>
<path d="M306.095 690.915L315.354 694.367L327.529 659.676L319.411 656.66L317.952 660.441L322.065 661.952L312.094 688.92L307.539 687.209L306.095 690.915Z" fill="white"/>
<path d="M305.349 686.419L300.858 684.55L311.929 657.994L315.954 659.706L317.454 655.949L309.479 652.542L294.747 686.258L303.872 690.134L305.358 686.452L305.349 686.419Z" fill="white"/>
<path d="M284.722 644.626C287.694 646.231 289.329 651.937 284.634 661.035C279.986 670.049 273.957 671.665 270.641 669.834L268.705 673.284C272.305 675.251 276.167 675.169 279.678 673.381C283.238 671.509 286.446 667.93 288.84 663.157C291.249 658.309 292.197 653.676 291.819 649.893C291.447 646.002 289.773 642.919 286.634 641.218L284.731 644.659L284.722 644.626Z" fill="white"/>
<path d="M285.097 640.358C279.007 636.87 271.029 640.703 265.184 649.861C259.436 658.852 259.851 668.311 266.945 672.378L268.914 668.92C265.541 667.14 263.947 660.928 269.197 652.317C274.543 643.539 280.156 642.212 283.161 643.808L285.106 640.391L285.097 640.358Z" fill="white"/>
<path d="M263.094 627.432C258.757 627.852 254.19 630.312 251.534 634.237C252.983 635.297 254.342 636.416 255.84 637.392C258.112 633.746 261.499 631.497 264.736 630.135L263.094 627.432ZM249.51 641.842C248.002 640.693 245.928 640.86 244.787 642.402C243.646 643.943 244.095 646.013 245.645 647.186C247.154 648.336 249.291 648.01 250.39 646.444C251.513 644.837 250.968 642.935 249.501 641.809L249.51 641.842Z" fill="white"/>
<path d="M212.477 611.967L215.635 608.86C214.148 605.551 212.718 602.191 211.486 598.778C210.22 595.374 208.883 592.095 207.758 588.688L204.398 591.566C206.144 596.501 208.12 601.375 210.1 606.389C205.392 603.977 200.503 601.544 195.767 598.893L192.406 601.771C195.674 603.686 199.128 605.373 202.417 607.105C205.715 608.87 209.076 610.477 212.486 612L212.477 611.967Z" fill="white"/>
<path d="M204.241 581.226C194.057 583.814 184.003 585.695 173.507 587.378L176.216 591.031C186.53 589.327 196.834 587.06 206.859 584.409L204.241 581.226Z" fill="white"/>
<path d="M179.588 578.05C178.332 572.701 177.012 567.51 175.931 562.291C180.189 565.529 184.6 568.549 188.862 571.539L192.493 569.012C186.683 564.99 180.574 560.906 174.961 556.3L171.152 558.557C172.352 565.934 174.177 573.143 175.999 580.601L179.63 578.074L179.588 578.05Z" fill="white"/>
<path d="M155.412 543.705C153.263 544.776 150.927 544.625 149.347 541.234L148.515 539.444L144.977 541.134L146.307 543.991C148.31 548.433 153.217 550.403 157.496 548.055L163.164 545.089C164.435 544.431 165.73 545.178 166.312 546.294L169.247 544.73C168.675 543.648 168.774 542.173 170.079 541.506L175.68 538.557C180.175 536.223 181.101 531.772 179.398 527.92L178.24 525.441L174.726 527.089L175.473 528.689C176.889 531.735 175.499 533.662 173.415 534.715L168.245 537.3C166.53 538.148 165.473 539.738 165.523 541.243C164.268 540.379 162.338 540.296 160.623 541.144L155.454 543.729L155.412 543.705Z" fill="white"/>
<path d="M146.795 525.25C142.267 527.064 140.605 532.065 142.764 536.43L144.094 539.287L147.641 537.631L146.808 535.841C145.196 532.459 146.586 530.533 148.804 529.585L154.086 527.287C155.86 526.529 157.034 524.979 157.158 523.463C158.275 524.47 160.156 524.637 161.93 523.879L167.212 521.581C169.364 520.651 171.733 520.793 173.182 523.83L173.929 525.431L177.443 523.783L176.284 521.304C174.425 517.529 170.402 515.429 165.735 517.386L159.893 519.834C158.529 520.411 157.331 519.496 156.866 518.42L153.809 519.663C154.25 520.781 154.051 522.282 152.721 522.85L146.846 525.307L146.795 525.25Z" fill="white"/>
<path d="M129.805 502.435C130.661 505.631 131.871 508.696 132.916 511.806L167.638 499.713C166.69 496.965 165.619 494.286 164.901 491.477L161.025 492.692C161.404 494.109 161.85 495.508 162.361 496.889L135.043 505.904C134.496 504.391 134.039 502.818 133.591 501.279L129.814 502.467L129.805 502.435Z" fill="white"/>
<path d="M132.95 499.015L131.564 494.371L159.216 486.468L160.454 490.692L164.339 489.509L161.857 481.169L126.339 490.686L129.13 500.179L132.917 499.023L132.95 499.015Z" fill="white"/>
<path d="M152.628 456.874C153.272 460.197 149.87 465.029 139.851 467.043C129.897 469.039 124.855 465.375 124.129 461.614L120.21 462.276C121.703 470.351 130.228 473.964 140.698 471.654C151.233 469.325 157.806 463.15 156.473 456.197L152.587 456.85L152.628 456.874Z" fill="white"/>
<path d="M156.187 454.472C155.234 447.489 147.086 443.704 136.341 444.853C125.695 445.975 118.741 452.182 119.854 460.288L123.782 459.659C123.263 455.879 126.909 450.77 136.957 449.525C147.105 448.254 151.822 451.757 152.292 455.092L156.187 454.472Z" fill="white"/>
<path d="M152.527 429.215C149.612 426.112 144.711 424.034 140.052 424.436L140.249 429.786C144.527 429.275 148.395 430.534 151.493 432.211L152.535 429.248L152.527 429.215ZM132.848 427.602C132.767 425.717 131.368 424.185 129.45 424.275C127.523 424.332 126.202 425.992 126.268 427.952C126.317 429.846 127.806 431.319 129.748 431.187C131.657 431.064 132.888 429.463 132.848 427.602Z" fill="white"/>
<path d="M133.157 379.988L137.534 380.51L140.06 375.701L142.827 371.005C144.711 367.887 146.43 364.813 148.415 361.809L144.089 360.955C141.284 365.379 138.739 369.981 136.038 374.66C134.999 369.465 133.825 364.164 132.982 358.776L128.657 357.922C129.2 361.661 130.024 365.395 130.698 369.099L131.784 374.599L133.133 380.029L133.157 379.988Z" fill="white"/>
<path d="M152.088 354.433C143.74 348.054 136.024 341.399 128.125 334.192L126.942 338.606C134.722 345.632 142.892 352.271 151.188 358.453L152.046 354.409L152.088 354.433Z" fill="white"/>
<path d="M139.22 333.162C142.623 328.86 145.819 324.578 149.283 320.507C149.373 325.85 149.81 331.171 150.104 336.354L154.353 337.582C153.837 330.516 153.292 323.211 153.352 315.921L149.23 314.376C144.218 319.922 139.692 325.831 135.028 331.883L139.277 333.111L139.22 333.162Z" fill="white"/>
<path d="M151.019 292.851C148.852 291.878 147.52 289.939 149.16 286.569L150.023 284.784L146.486 283.048L145.127 285.884C142.933 290.215 144.349 295.238 148.891 297.164L154.734 299.73C156.051 300.295 156.242 301.798 155.764 302.915L158.798 304.221C159.276 303.104 160.494 302.248 161.82 302.846L167.621 305.388C172.19 307.413 176.384 305.406 178.306 301.642L179.514 299.164L176.018 297.452L175.251 299.071C173.772 302.116 171.399 302.222 169.255 301.207L164.019 298.796C162.284 297.99 160.309 298.13 159.225 299.092C159.1 297.572 158.015 296.026 156.28 295.22L151.044 292.809L151.019 292.851Z" fill="white"/>
<path d="M160.045 274.611C155.76 272.193 151.009 274.101 148.773 278.408L147.406 281.211L150.91 282.956L151.774 281.171C153.371 277.777 155.903 277.734 157.965 278.841L163.066 281.535C164.752 282.425 166.721 282.392 167.972 281.527C167.915 283.026 168.943 284.622 170.629 285.512L175.73 288.206C177.867 289.329 179.073 291.195 177.627 294.231L176.86 295.849L180.322 297.57L181.53 295.092C183.494 291.352 182.449 286.794 178.032 284.411L172.478 281.344C171.192 280.629 171.142 279.124 171.712 278.089L168.805 276.466C168.235 277.502 166.925 278.277 165.656 277.628L160.069 274.569L160.045 274.611Z" fill="white"/>
<path d="M167.295 247.102C165.454 249.855 163.522 252.527 161.882 255.368L193.007 274.926C194.454 272.419 196.161 270.09 197.775 267.68L194.411 265.404L191.956 269.028L167.871 253.34L170.609 249.322L167.328 247.093L167.295 247.102Z" fill="white"/>
<path d="M171.891 247.388L174.628 243.371L198.06 260.046L195.606 263.67L198.937 265.955C200.51 263.521 202.175 261.168 203.965 258.887L174.357 237.087C172.341 239.71 170.45 242.407 168.61 245.16L171.891 247.388Z" fill="white"/>
<path d="M217.149 236.533C214.808 238.996 208.981 239.392 201.184 232.83C193.387 226.267 193.083 219.992 195.692 217.209L192.751 214.537C189.947 217.513 189.242 221.339 190.292 225.26C191.334 229.148 194.072 233.04 198.2 236.454C202.37 239.892 206.706 241.838 210.512 242.337C214.3 242.77 217.635 241.77 220.081 239.172L217.149 236.533Z" fill="white"/>
<path d="M221.243 237.838C225.903 232.563 224.006 224.031 216.396 216.324C208.888 208.73 199.508 206.935 194.084 213.05L197.025 215.723C199.583 212.883 205.766 212.498 213.084 219.648C220.353 226.741 220.643 232.701 218.376 235.18L221.276 237.829L221.243 237.838Z" fill="white"/>
<path d="M238.728 219.274C239.309 214.986 237.824 209.84 234.573 206.403L230.62 209.969C233.658 213.004 235.095 216.786 235.699 220.226L238.728 219.274ZM227.687 202.845C229.08 201.589 229.368 199.499 228.127 198.03C226.886 196.562 224.777 196.597 223.326 197.904C221.899 199.169 221.686 201.275 222.984 202.692C224.282 204.11 226.326 204.092 227.687 202.845Z" fill="white"/>
<path d="M265.053 173.34L267.367 177.099L278.11 175.28C281.684 174.781 285.293 174.414 288.82 173.999L286.785 170.095C281.591 170.745 276.272 171.323 271.077 172.362C274.339 168.062 277.947 164.129 281.552 160.056L279.517 156.151C276.958 158.991 274.457 161.78 272.006 164.626L264.996 173.391L265.053 173.34Z" fill="white"/>
<path d="M296.857 172.234C296.726 161.993 296.926 151.274 297.744 140.885C296.347 141.471 294.9 142 293.554 142.643C293.013 153.276 292.841 163.705 293.121 173.976L296.848 172.201L296.857 172.234Z" fill="white"/>
<path d="M305.501 149.012C308.239 148.949 310.884 148.806 313.597 148.785L321.659 148.955L315.59 154.113C313.617 155.842 311.688 157.736 309.765 159.523L311.422 163.599C316.516 158.491 322.059 154.004 327.687 149.177L326.317 144.988C318.967 144.839 311.358 144.512 303.811 144.945L305.477 149.054L305.501 149.012Z" fill="white"/>
<path d="M344.344 133.06C343.759 130.745 344.458 128.474 348.075 127.611L350.004 127.164L349.154 123.331L346.105 124.078C341.391 125.199 338.306 129.239 339.619 134.008L341.27 140.169C341.641 141.553 340.583 142.614 339.406 142.964L340.262 146.16C341.431 145.777 342.862 146.241 343.241 147.657L344.883 153.786C346.139 158.605 350.339 160.834 354.46 159.872L357.146 159.222L356.304 155.422L354.591 155.881C351.294 156.623 349.725 154.854 349.182 152.563L347.789 146.969C347.327 145.115 346.029 143.697 344.535 143.391C345.685 142.412 346.175 140.55 345.746 138.687L344.353 133.093L344.344 133.06Z" fill="white"/>
<path d="M364.212 128.655C363.435 123.778 358.967 121.338 354.2 122.262C353.161 122.47 352.146 122.636 351.116 122.877L351.933 126.719C352.559 126.551 353.245 126.473 353.88 126.339C357.575 125.631 359.119 127.442 359.564 129.76L360.66 135.434C361.023 137.314 362.264 138.783 363.728 139.238C362.518 140.127 361.912 141.949 362.274 143.83L363.371 149.504C363.815 151.821 363.15 154.083 359.818 154.693C359.249 154.811 358.638 154.904 358.078 155.054L358.886 158.863C359.776 158.624 360.701 158.518 361.575 158.354C365.716 157.598 368.59 153.826 367.729 148.901L366.656 142.655C366.408 141.203 367.55 140.191 368.697 139.99L368.137 136.714C366.957 136.925 365.55 136.419 365.278 135.008L364.196 128.73L364.212 128.655Z" fill="white"/>
<path d="M390.23 117.163C386.959 117.475 383.661 117.687 380.366 118.041L384.505 154.576C387.388 154.262 390.264 154.057 393.131 153.818L392.79 149.778L388.402 150.141L385.637 121.501L390.47 121.089L390.156 117.148L390.23 117.163Z" fill="white"/>
<path d="M392.858 120.908C394.486 120.79 396.088 120.573 397.709 120.562L399.293 149.271C397.812 149.28 396.384 149.486 394.929 149.593L395.237 153.642C398.12 153.329 401.007 153.297 403.909 153.19L402.505 116.452C399.214 116.557 395.914 116.629 392.618 116.982L392.9 120.932L392.858 120.908Z" fill="white"/>
<path d="M429.589 149.523C426.233 149.257 422.271 144.88 422.546 134.707C422.813 124.5 427.534 120.375 431.329 120.7L431.577 116.749C427.51 116.462 424.056 118.199 421.654 121.491C419.267 124.709 417.921 129.307 417.838 134.662C417.763 140.05 418.933 144.68 420.941 147.956C422.964 151.157 425.812 153.219 429.374 153.465L429.597 149.556L429.589 149.523Z" fill="white"/>
<path d="M431.097 153.568C438.102 153.881 443.615 147.177 444.923 136.374C446.185 125.795 441.747 117.273 433.558 116.889L433.277 120.849C437.078 121.066 441.252 125.704 440.231 135.865C439.202 145.993 434.733 149.875 431.362 149.683L431.105 153.601L431.097 153.568Z" fill="white"/>
<path d="M456.516 155.655C460.227 153.425 463.331 149.062 464.022 144.392L458.745 143.546C458.263 147.807 456.195 151.292 453.889 153.888L456.516 155.655ZM462.512 136.781C464.363 137.097 466.189 136.007 466.539 134.148C466.912 132.247 465.594 130.623 463.678 130.324C461.794 130.016 460.042 131.121 459.743 133.038C459.436 134.921 460.712 136.521 462.554 136.805L462.512 136.781Z" fill="white"/>
<path d="M508.841 147.71L507.339 151.856L515.462 159.108L523.144 166.69L524.921 162.647C521.17 159.062 517.415 155.195 513.361 151.796C518.762 151.655 524.064 152.071 529.529 152.302L531.306 148.259L519.994 147.688L508.766 147.695L508.841 147.71Z" fill="white"/>
<path d="M529.543 171.861C537.524 165.273 545.915 158.893 554.578 153.005L550.57 150.83C541.968 156.949 533.655 163.485 525.814 170.07L529.51 171.87L529.543 171.861Z" fill="white"/>
<path d="M553.135 164.092C556.743 168.069 559.987 172.532 563.283 176.663C557.98 175.718 552.906 174.571 547.625 173.973L545.481 177.831C549.078 178.209 552.572 178.862 556.133 179.497C559.693 180.132 563.343 180.708 566.866 181.6L569.303 177.911C567.199 174.802 564.851 171.97 562.534 168.989C560.225 166.041 557.866 163.036 555.345 160.215L553.201 164.074L553.135 164.092Z" fill="white"/>
<path d="M589.818 184.491C591.226 182.63 593.51 181.665 596.429 183.991L597.964 185.239L600.428 182.178L598.019 180.174C594.155 177.219 589.012 177.397 586.134 181.417L582.314 186.537C581.457 187.685 579.973 187.552 578.992 186.791L577.027 189.472C577.999 190.2 578.543 191.573 577.661 192.763L573.875 197.874C570.89 201.887 571.844 206.504 575.205 209.029L577.336 210.789L579.776 207.769L578.408 206.617C575.79 204.494 576.141 202.245 577.583 200.376L581.088 195.799C582.271 194.282 582.537 192.374 581.828 191.046C583.304 191.286 585.112 190.519 586.261 189.01L589.767 184.434L589.818 184.491Z" fill="white"/>
<path d="M605.671 197.265C609.026 193.576 608.205 188.534 604.422 185.487L602.014 183.484L599.541 186.512L601.076 187.761C603.979 190.161 603.571 192.46 602.004 194.257L598.239 198.656C596.973 200.125 596.657 201.975 597.177 203.39C595.731 203.001 593.906 203.701 592.664 205.129L588.899 209.528C587.365 211.316 585.171 212.222 582.545 210.065L581.177 208.913L578.737 211.933L580.868 213.692C584.156 216.343 588.815 216.331 592.119 212.585L596.317 207.823C597.291 206.714 598.785 207.02 599.635 207.817L601.835 205.355C600.953 204.567 600.481 203.07 601.431 202.003L605.662 197.232L605.671 197.265Z" fill="white"/>
<path d="M630.888 210.459C628.712 208.005 626.266 205.73 623.976 203.377L598.003 229.406C600.007 231.482 602.158 233.448 604.081 235.617L607.047 232.845C606.076 231.727 605.058 230.694 604.006 229.669L624.669 209.654C625.822 210.793 626.975 211.932 628.046 213.163L630.954 210.442L630.888 210.459Z" fill="white"/>
<path d="M629.565 214.875L632.828 218.485L611.364 237.62L608.414 234.385L605.44 237.124L611.257 243.547L639.109 219.522L632.482 212.186L629.565 214.875Z" fill="white"/>
<path d="M630.132 261.407C628.101 258.703 629.045 252.87 637.216 246.726C645.321 240.599 651.488 241.736 653.757 244.801L656.995 242.521C652.109 235.884 642.842 236.355 634.406 242.959C625.912 249.613 622.686 258 626.894 263.688L630.099 261.416L630.132 261.407Z" fill="white"/>
<path d="M627.911 265.11C631.774 270.961 640.881 270.816 650.004 265.194C659.184 259.52 662.689 250.989 658.139 244.156L654.892 246.404C657.014 249.578 655.943 255.727 647.422 261.224C638.844 266.771 633.042 265.677 631.158 262.863L627.944 265.101L627.911 265.11Z" fill="white"/>
<path d="M642.102 286.31C646.083 287.856 651.383 287.602 655.471 285.2L652.967 280.468C649.316 282.788 645.419 283.267 641.85 283.129C641.983 284.152 642.059 285.227 642.126 286.268L642.102 286.31ZM660.551 279.248C661.423 280.921 663.355 281.675 665.061 280.794C666.767 279.913 667.237 277.845 666.315 276.114C665.409 274.45 663.486 273.729 661.797 274.676C660.109 275.623 659.654 277.616 660.518 279.257L660.551 279.248Z" fill="white"/>
<path d="M680.909 322.278L676.738 323.714C676.683 327.33 676.43 331 676.094 334.621C675.758 338.243 675.535 341.763 675.05 345.354L679.3 344.215C679.924 339.033 680.175 333.775 680.606 328.398C683.788 332.63 687.162 336.917 690.256 341.35L694.54 340.202C692.435 337.093 690.076 334.088 687.858 331.081C685.64 328.073 683.364 325.116 680.917 322.311L680.909 322.278Z" fill="white"/>
<path d="M674.948 353.539C685.218 355.625 695.142 358.263 705.321 361.327L704.476 356.856C694.473 353.922 684.123 351.539 673.987 349.559L674.957 353.572L674.948 353.539Z" fill="white"/>
<path d="M695.778 367.098C694.734 372.427 693.466 377.711 692.303 382.861C689.725 378.113 687.247 373.48 684.614 368.924L680.249 369.634C682.096 372.706 683.778 375.822 685.544 378.986L688.174 383.791L690.581 388.69L694.993 388.285L696.507 382.864L697.764 377.407C698.555 373.77 699.46 370.031 700.158 366.313L695.793 367.023L695.778 367.098Z" fill="white"/>
<path d="M702.706 408.5C705.021 408.445 707.275 409.607 707.189 413.373L707.157 415.359L711.079 415.368L711.117 412.214C711.084 407.35 707.676 403.46 702.757 403.684L696.39 403.907C694.959 403.972 694.127 402.712 694.082 401.488L690.766 401.635C690.812 402.859 690.064 404.154 688.592 404.195L682.258 404.409C677.246 404.552 674.304 408.2 674.333 412.395L674.297 415.159L678.186 415.176L678.206 413.405C678.29 410.028 680.215 408.912 682.606 408.871L688.371 408.774C690.307 408.75 691.954 407.779 692.543 406.421C693.285 407.74 694.98 408.663 696.916 408.639L702.681 408.542L702.706 408.5Z" fill="white"/>
<path d="M702.585 428.873C707.513 429.212 711.049 425.405 711.016 420.54L711.054 417.387L707.124 417.345L707.091 419.332C707.038 423.089 704.972 424.208 702.588 424.14L696.809 423.923C694.88 423.84 693.215 424.745 692.434 426.049C691.89 424.676 690.177 423.687 688.281 423.595L682.502 423.378C680.142 423.269 678.071 422.128 678.122 418.76L678.142 416.989L674.244 416.939L674.207 419.703C674.212 423.939 677.086 427.548 682.063 427.804L688.398 428.119C689.864 428.185 690.573 429.514 690.469 430.707L693.774 430.916C693.845 429.732 694.7 428.443 696.133 428.518L702.51 428.858L702.585 428.873Z" fill="white"/>
<path d="M707.986 456.807C708.56 453.545 708.811 450.265 709.235 446.973L672.677 442.855C672.311 445.707 672.137 448.614 671.589 451.445L675.595 452.031C675.844 450.588 676.06 449.153 676.201 447.702L704.71 451.434C704.538 453.034 704.334 454.643 704.054 456.236L707.986 456.807Z" fill="white"/>
<path d="M703.68 458.526L702.883 463.33L674.529 458.462L675.242 454.139L671.227 453.52L669.816 462.091L705.94 468.938L707.563 459.181L703.656 458.568L703.68 458.526Z" fill="white"/>
<path d="M667.627 487.927C668.515 484.652 673.638 481.76 683.544 484.333C693.366 486.856 696.364 492.374 695.342 496.074L699.142 497.209C701.326 489.279 695.143 482.284 684.734 479.811C674.208 477.299 665.682 480.008 663.844 486.857L667.603 487.968L667.627 487.927Z" fill="white"/>
<path d="M663.335 488.511C661.214 495.224 666.932 502.202 677.013 505.822C687.169 509.458 696.054 506.9 698.554 499.097L694.753 497.961C693.606 501.588 688.13 504.609 678.502 501.362C668.8 498.1 666.056 492.867 667.093 489.623L663.326 488.478L663.335 488.511Z" fill="white"/>
<path d="M655.586 512.835C656.854 516.909 660.396 520.904 664.81 522.617L666.92 517.708C662.834 516.296 659.965 513.498 657.941 510.686L655.627 512.859L655.586 512.835ZM672.609 522.858C671.877 524.608 672.472 526.567 674.24 527.365C675.999 528.13 677.911 527.229 678.667 525.437C679.399 523.687 678.729 521.713 676.946 520.99C675.163 520.267 673.316 521.15 672.576 522.867L672.609 522.858Z" fill="white"/>
<path d="M651.765 565.664L648.051 563.269C642.025 567.532 636.221 571.7 630.035 575.371L633.572 578.025C638.101 575.293 642.411 572.266 646.736 569.165C645.516 574.365 644.248 579.649 642.63 584.815L646.167 587.469C648.437 580.257 650.091 572.857 651.765 565.664Z" fill="white"/>
<path d="M623.602 580.485C628.174 589.642 632.556 599.274 636.452 609.071C637.501 607.978 638.407 606.746 639.406 605.596C635.252 595.762 631.033 586.474 626.111 577.199C625.269 578.272 624.486 579.436 623.602 580.485Z" fill="white"/>
<path d="M625.945 605.177L618.743 608.872C616.338 610.046 613.841 611.139 611.419 612.247C612.495 609.805 613.621 607.419 614.623 604.962L617.519 597.582L614.217 594.618C612.916 597.933 611.725 601.395 610.274 604.679L605.85 614.658L608.899 617.866L619.106 613.26C622.539 611.704 625.793 609.879 629.214 608.15L625.912 605.186L625.945 605.177Z" fill="white"/>
<path d="M597.875 636.429C599.387 638.249 599.765 640.584 596.877 642.982L595.342 644.241L597.761 647.336L600.193 645.342C603.955 642.251 604.989 637.277 601.699 633.568L597.539 628.715C596.619 627.655 597.083 626.224 597.987 625.381L595.802 622.894C594.898 623.737 593.437 623.952 592.467 622.834L588.348 618.005C585.107 614.212 580.33 614.045 577.09 616.714L574.976 618.446L577.386 621.508L578.773 620.359C581.376 618.214 583.535 619.154 585.08 620.965L588.746 625.421C589.954 626.898 591.769 627.612 593.228 627.257C592.647 628.648 592.977 630.537 594.185 632.015L597.851 636.471L597.875 636.429Z" fill="white"/>
<path d="M581.903 649.042C584.727 653.123 589.77 653.361 593.684 650.441L596.218 648.561L593.799 645.466L592.206 646.635C589.198 648.853 587.015 647.955 585.585 646.043L582.156 641.417C581.005 639.889 579.237 639.092 577.743 639.315C578.449 637.996 578.186 636.089 577.059 634.52L573.63 629.894C572.232 627.973 571.863 625.671 574.567 623.64L576.014 622.581L573.637 619.51L571.422 621.128C568.03 623.626 567.082 628.259 569.972 632.322L573.65 637.481C574.497 638.667 573.925 640.091 572.944 640.778L574.835 643.485C575.816 642.798 577.328 642.64 578.133 643.802L581.853 648.985L581.903 649.042Z" fill="white"/>
<path d="M563.393 670.635L571.888 665.569L552.35 634.431L544.887 638.867L546.924 642.383L550.701 640.135L565.594 664.748L561.425 667.242L563.402 670.668L563.393 670.635Z" fill="white"/>
<path d="M559.376 668.427C558.017 669.285 556.548 669.997 555.13 670.765L541.277 645.555C542.572 644.855 543.885 644.221 545.121 643.43L543.118 639.906C540.619 641.388 538.026 642.648 535.5 644.031L552.654 676.549C555.548 674.961 558.519 673.53 561.345 671.819L559.367 668.394L559.376 668.427Z" fill="white"/>
<path d="M513.867 658.445C516.981 657.151 522.523 659.515 526.667 668.787C530.829 678.125 528.309 683.744 524.775 685.185L526.285 688.842C533.954 685.833 535.467 676.458 530.927 666.763C526.328 656.977 518.983 652.236 512.39 654.779L513.858 658.412L513.867 658.445Z" fill="white"/>
<path d="M510.78 655.493C507.519 656.896 505.43 659.645 504.525 663.384C503.653 667.114 503.973 671.866 505.763 676.966C507.511 682.042 510.249 685.934 513.557 688.261C516.864 690.589 520.714 691.252 524.452 689.65L522.976 685.985C519.46 687.492 513.676 685.016 510.221 675.418C506.734 665.829 509.151 660.485 512.256 659.158L510.789 655.526L510.78 655.493Z" fill="white"/>
<path d="M486.947 664.598C484.558 668.204 483.679 673.49 485.062 677.992L490.2 676.475C488.758 672.412 489.129 668.392 490.098 665.025L486.947 664.598ZM489.726 684.194C487.922 684.713 486.769 686.47 487.263 688.315C487.757 690.16 489.659 691.063 491.528 690.527C493.365 689.999 494.443 688.227 493.907 686.358C493.38 684.522 491.52 683.643 489.758 684.185L489.726 684.194Z" fill="white"/>
<path d="M291.623 526.596L294.882 523.603C293.632 520.124 292.49 516.652 291.374 513.278L289.742 508.242C289.226 506.579 288.914 504.756 288.53 503.058L284.94 505.609C285.955 510.846 287.921 515.546 289.654 520.696C285.091 518.034 280.002 515.513 275.726 512.21L272.137 514.76C273.744 515.883 275.22 517.042 276.876 518.081L281.865 521.017C285.174 522.956 288.424 524.804 291.656 526.587L291.623 526.596Z" fill="white"/>
<path d="M285.814 495.557C283.239 495.965 280.614 496.315 278.046 496.615C275.501 496.873 272.949 497.098 270.378 497.257C265.204 497.584 259.953 497.755 254.583 497.746L256.862 501.903C262.196 501.78 267.322 501.536 272.518 501.027C277.804 500.458 283.013 499.733 288.07 498.837L285.805 495.525L285.814 495.557Z" fill="white"/>
<path d="M261.821 489.309C261.232 483.816 261.098 478.308 260.811 473.017C264.608 476.908 268.115 480.771 271.947 484.265L275.901 482.287C273.207 480.007 270.897 477.448 268.314 474.926C265.831 472.378 263.09 469.793 260.948 466.942L256.786 468.41C256.503 472.229 256.78 475.898 256.985 479.693C257.255 483.469 257.33 487.44 257.825 491.262L261.779 489.284L261.821 489.309Z" fill="white"/>
<path d="M244.868 450.027C242.569 450.537 240.272 449.74 239.472 445.964L239.041 443.96L235.163 444.646L235.846 447.853C236.931 452.824 240.934 456.166 245.711 454.886L251.908 453.367C253.292 452.996 254.328 454.096 254.58 455.299L257.776 454.443C257.533 453.272 258.006 451.874 259.431 451.527L265.595 450.017C270.432 448.827 272.813 444.799 271.945 440.9L271.364 438.336L267.52 439.013L267.895 440.678C268.602 443.844 266.765 445.29 264.465 445.8L258.826 447.028C256.955 447.424 255.495 448.698 255.147 450.168C254.168 449.018 252.355 448.444 250.45 448.849L244.811 450.077L244.868 450.027Z" fill="white"/>
<path d="M241.445 429.473C236.495 429.846 233.789 434.244 234.403 439.305L234.814 442.55L238.709 441.93L238.451 439.916C237.981 436.051 239.884 434.588 242.213 434.317L247.927 433.634C249.843 433.403 251.371 432.252 251.909 430.836C252.709 432.105 254.491 432.828 256.407 432.597L262.121 431.914C264.483 431.634 266.672 432.425 267.041 435.645L267.252 437.355L271.072 436.719L270.763 434.118C270.299 430.146 266.75 427.177 261.784 427.625L255.481 428.219C254.003 428.368 253.072 427.135 252.936 425.97L249.647 426.216C249.792 427.413 249.169 428.781 247.757 428.912L241.412 429.482L241.445 429.473Z" fill="white"/>
<path d="M233.038 401.392C232.864 404.829 232.334 408.255 232.558 411.726L269.342 412.076C269.13 409.307 269.606 406.602 269.75 403.844L265.724 403.581L265.406 407.798L236.676 406.668L237.031 401.664L233.071 401.383L233.038 401.392Z" fill="white"/>
<path d="M237.188 399.221L237.575 394.208L266.174 397.351L265.856 401.568L269.899 401.897L270.21 397.788L270.366 395.733L270.737 393.692L234.312 388.62L233.867 391.176L233.67 393.736L233.285 398.889L237.254 399.203L237.188 399.221Z" fill="white"/>
<path d="M272.266 368.951C271.408 372.077 266.266 374.762 256.368 372.222C246.546 369.699 243.654 364.046 244.748 360.222L240.963 359.011C238.604 367.342 244.64 374.447 255.113 376.761C265.66 379.091 274.263 376.538 276.009 370.138L272.266 368.951Z" fill="white"/>
<path d="M276.462 368.533C278.832 362.354 273.509 355.27 263.565 350.977C253.739 346.724 244.517 348.948 241.517 356.991L245.278 358.244C246.605 354.498 252.406 351.637 261.844 355.359C271.364 359.129 273.834 364.258 272.701 367.281L276.42 368.509L276.462 368.533Z" fill="white"/>
<path d="M285.349 345.952C284.287 341.858 281.112 337.518 276.963 335.345L274.585 340.044C278.496 341.856 281.145 344.89 282.957 347.83L285.358 345.985L285.349 345.952ZM269.3 334.291C270.157 332.614 269.709 330.544 268.037 329.58C266.366 328.615 264.418 329.384 263.513 331.145C262.632 332.864 263.122 334.958 264.841 335.839C266.561 336.72 268.452 336.002 269.276 334.333L269.3 334.291Z" fill="white"/>
<path d="M300.702 291.623L303.694 294.882C307.173 293.632 310.646 292.49 314.019 291.374L319.055 289.742C320.718 289.226 322.542 288.914 324.24 288.53L321.689 284.94C316.452 285.955 311.752 287.921 306.601 289.654C309.263 285.091 311.784 280.002 315.088 275.726L312.537 272.137C311.414 273.745 310.256 275.22 309.216 276.876L306.28 281.865C304.342 285.174 302.493 288.424 300.711 291.656L300.702 291.623Z" fill="white"/>
<path d="M331.731 285.781C331.324 283.206 330.974 280.581 330.674 278.013C330.416 275.469 330.191 272.916 330.032 270.345C329.705 265.171 329.534 259.92 329.543 254.55L325.386 256.829C325.509 262.164 325.753 267.29 326.262 272.485C326.831 277.771 327.556 282.98 328.451 288.037L331.764 285.772L331.731 285.781Z" fill="white"/>
<path d="M337.989 261.821C343.481 261.232 348.989 261.098 354.28 260.81C350.389 264.608 346.526 268.115 343.032 271.946L345.01 275.901C347.29 273.207 349.849 270.897 352.371 268.314C354.919 265.83 357.504 263.089 360.355 260.948L358.887 256.786C355.068 256.503 351.399 256.78 347.605 256.984C343.828 257.255 339.858 257.33 336.035 257.824L338.013 261.779L337.989 261.821Z" fill="white"/>
<path d="M377.27 244.868C376.759 242.569 377.556 240.271 381.333 239.472L383.336 239.041L382.65 235.163L379.443 235.846C374.472 236.931 371.13 240.934 372.41 245.711L373.93 251.908C374.3 253.292 373.201 254.328 371.997 254.58L372.853 257.776C374.024 257.533 375.422 258.006 375.769 259.431L377.279 265.595C378.469 270.432 382.497 272.813 386.396 271.945L388.96 271.364L388.283 267.52L386.618 267.895C383.453 268.602 382.007 266.765 381.496 264.465L380.268 258.826C379.873 256.955 378.599 255.495 377.128 255.147C378.278 254.168 378.852 252.355 378.448 250.45L377.219 244.811L377.27 244.868Z" fill="white"/>
<path d="M397.824 241.445C397.451 236.495 393.053 233.789 387.991 234.404L384.747 234.814L385.366 238.709L387.381 238.452C391.245 237.981 392.709 239.885 392.98 242.213L393.663 247.927C393.894 249.843 395.045 251.371 396.461 251.91C395.192 252.709 394.469 254.492 394.699 256.408L395.383 262.122C395.663 264.483 394.872 266.673 391.651 267.041L389.942 267.252L390.577 271.072L393.179 270.764C397.151 270.3 400.119 266.75 399.672 261.785L399.077 255.482C398.928 254.003 400.162 253.072 401.327 252.937L401.081 249.648C399.884 249.792 398.516 249.17 398.385 247.757L397.815 241.412L397.824 241.445Z" fill="white"/>
<path d="M425.905 233.038C422.468 232.864 419.042 232.334 415.571 232.558L415.222 269.342C417.99 269.13 420.695 269.606 423.453 269.75L423.716 265.724L419.499 265.406L420.629 236.676L425.633 237.03L425.914 233.071L425.905 233.038Z" fill="white"/>
<path d="M428.068 237.155L433.08 237.542L429.937 266.141L425.72 265.823L425.391 269.866L429.5 270.178L431.555 270.333L433.597 270.704L438.668 234.279L436.112 233.834L433.552 233.637L428.399 233.252L428.086 237.221L428.068 237.155Z" fill="white"/>
<path d="M458.346 272.266C455.22 271.408 452.536 266.266 455.075 256.368C457.599 246.546 463.251 243.654 467.076 244.748L468.286 240.963C459.956 238.604 452.851 244.64 450.536 255.113C448.207 265.66 450.759 274.263 457.16 276.009L458.346 272.266Z" fill="white"/>
<path d="M458.764 276.462C464.943 278.832 472.027 273.508 476.32 263.565C480.573 253.738 478.349 244.517 470.306 241.516L469.054 245.277C472.799 246.605 475.661 252.406 471.939 261.843C468.169 271.364 463.039 273.833 460.016 272.701L458.788 276.42L458.764 276.462Z" fill="white"/>
<path d="M481.336 285.316C485.43 284.254 489.77 281.078 491.943 276.93L487.244 274.551C485.432 278.462 482.398 281.111 479.458 282.923L481.303 285.325L481.336 285.316ZM492.997 269.267C494.674 270.124 496.744 269.675 497.708 268.004C498.673 266.333 497.904 264.385 496.143 263.48C494.424 262.598 492.33 263.089 491.449 264.808C490.568 266.527 491.286 268.418 492.955 269.242L492.997 269.267Z" fill="white"/>
<path d="M535.675 300.702L532.415 303.694C533.665 307.173 534.808 310.646 535.923 314.019L537.555 319.056C538.071 320.718 538.383 322.542 538.768 324.24L542.357 321.689C541.342 316.452 539.377 311.752 537.644 306.602C542.206 309.264 547.296 311.784 551.571 315.088L555.161 312.537C553.553 311.414 552.077 310.256 550.422 309.216L545.433 306.28C542.123 304.342 538.874 302.494 535.642 300.711L535.675 300.702Z" fill="white"/>
<path d="M541.516 331.73C544.091 331.323 546.716 330.973 549.285 330.673C551.829 330.415 554.382 330.19 556.952 330.031C562.126 329.704 567.377 329.533 572.748 329.542L570.468 325.385C565.134 325.508 560.008 325.752 554.812 326.261C549.526 326.83 544.317 327.555 539.26 328.451L541.525 331.763L541.516 331.73Z" fill="white"/>
<path d="M565.476 337.989C566.065 343.481 566.199 348.99 566.486 354.28C562.689 350.389 559.182 346.526 555.351 343.033L551.396 345.011C554.09 347.29 556.4 349.849 558.983 352.371C561.467 354.919 564.207 357.504 566.349 360.356L570.511 358.887C570.794 355.068 570.517 351.399 570.313 347.605C570.042 343.828 569.967 339.858 569.473 336.035L565.518 338.013L565.476 337.989Z" fill="white"/>
<path d="M582.428 377.27C584.728 376.76 587.025 377.557 587.825 381.333L588.256 383.336L592.133 382.65L591.45 379.443C590.365 374.472 586.363 371.131 581.585 372.411L575.388 373.93C574.005 374.301 572.968 373.201 572.717 371.997L569.521 372.854C569.764 374.024 569.291 375.422 567.865 375.769L561.702 377.279C556.865 378.469 554.483 382.498 555.351 386.397L555.932 388.96L559.777 388.283L559.401 386.618C558.694 383.453 560.532 382.007 562.832 381.497L568.47 380.268C570.342 379.873 571.802 378.599 572.149 377.128C573.128 378.279 574.942 378.852 576.846 378.448L582.485 377.219L582.428 377.27Z" fill="white"/>
<path d="M585.852 397.823C590.802 397.451 593.508 393.053 592.893 387.991L592.483 384.746L588.588 385.366L588.845 387.381C589.316 391.245 587.412 392.709 585.084 392.979L579.369 393.663C577.454 393.894 575.926 395.045 575.387 396.46C574.588 395.191 572.805 394.468 570.889 394.699L565.175 395.383C562.813 395.663 560.624 394.872 560.255 391.651L560.045 389.942L556.224 390.577L556.533 393.178C556.997 397.15 560.547 400.119 565.512 399.671L571.815 399.077C573.294 398.928 574.225 400.162 574.36 401.326L577.649 401.081C577.505 399.883 578.127 398.516 579.54 398.385L585.885 397.815L585.852 397.823Z" fill="white"/>
<path d="M594.26 425.905C594.434 422.469 594.964 419.043 594.74 415.571L557.956 415.222C558.168 417.99 557.692 420.696 557.548 423.453L561.574 423.717L561.892 419.5L590.622 420.63L590.267 425.633L594.227 425.914L594.26 425.905Z" fill="white"/>
<path d="M590.134 428.034L589.747 433.047L561.148 429.904L561.466 425.687L557.423 425.358L557.111 429.467L556.956 431.522L556.584 433.563L593.01 438.635L593.455 436.079L593.652 433.519L594.037 428.366L590.068 428.052L590.134 428.034Z" fill="white"/>
<path d="M555.032 458.346C555.89 455.221 561.032 452.536 570.93 455.075C580.752 457.599 583.644 463.251 582.55 467.076L586.335 468.286C588.694 459.956 582.658 452.851 572.185 450.536C561.638 448.207 553.035 450.759 551.289 457.16L555.032 458.346Z" fill="white"/>
<path d="M550.836 458.764C548.466 464.944 553.789 472.028 563.732 476.32C573.559 480.573 582.781 478.35 585.781 470.306L582.02 469.054C580.693 472.8 574.891 475.661 565.454 471.939C555.933 468.169 553.464 463.039 554.597 460.017L550.877 458.789L550.836 458.764Z" fill="white"/>
<path d="M541.973 481.303C543.035 485.398 546.21 489.738 550.359 491.91L552.738 487.212C548.827 485.399 546.177 482.366 544.366 479.426L541.964 481.27L541.973 481.303ZM558.022 492.964C557.165 494.642 557.614 496.711 559.285 497.676C560.956 498.641 562.904 497.872 563.809 496.111C564.69 494.391 564.2 492.298 562.481 491.417C560.761 490.535 558.871 491.254 558.046 492.923L558.022 492.964Z" fill="white"/>
<path d="M526.595 535.674L523.603 532.415C520.124 533.665 516.652 534.807 513.278 535.923L508.242 537.555C506.579 538.071 504.756 538.383 503.058 538.768L505.609 542.357C510.846 541.342 515.545 539.377 520.696 537.643C518.034 542.206 515.513 547.296 512.209 551.571L514.76 555.16C515.883 553.553 517.042 552.077 518.081 550.421L521.017 545.432C522.956 542.123 524.804 538.873 526.587 535.641L526.595 535.674Z" fill="white"/>
<path d="M495.558 541.484C495.965 544.058 496.316 546.684 496.615 549.252C496.873 551.796 497.098 554.349 497.257 556.919C497.584 562.093 497.755 567.345 497.746 572.715L501.903 570.436C501.78 565.101 501.537 559.975 501.027 554.779C500.459 549.493 499.734 544.285 498.838 539.228L495.525 541.492L495.558 541.484Z" fill="white"/>
<path d="M489.308 565.476C483.816 566.065 478.308 566.199 473.017 566.486C476.908 562.689 480.771 559.182 484.265 555.351L482.287 551.396C480.007 554.09 477.448 556.4 474.926 558.983C472.378 561.467 469.793 564.207 466.942 566.349L468.41 570.511C472.229 570.794 475.898 570.517 479.692 570.313C483.469 570.042 487.439 569.967 491.262 569.473L489.284 565.518L489.308 565.476Z" fill="white"/>
<path d="M450.027 582.429C450.538 584.728 449.741 587.025 445.965 587.825L443.961 588.256L444.647 592.134L447.854 591.451C452.825 590.366 456.167 586.363 454.887 581.586L453.368 575.389C452.997 574.005 454.096 572.969 455.3 572.717L454.444 569.521C453.273 569.764 451.875 569.291 451.528 567.866L450.018 561.702C448.828 556.865 444.8 554.484 440.901 555.352L438.337 555.933L439.014 559.777L440.679 559.402C443.845 558.695 445.29 560.532 445.801 562.832L447.029 568.471C447.425 570.342 448.699 571.802 450.169 572.15C449.019 573.129 448.445 574.942 448.85 576.847L450.078 582.486L450.027 582.429Z" fill="white"/>
<path d="M429.474 585.852C429.847 590.802 434.244 593.508 439.306 592.894L442.551 592.483L441.931 588.588L439.916 588.846C436.052 589.316 434.589 587.413 434.318 585.084L433.634 579.37C433.403 577.454 432.252 575.926 430.837 575.387C432.106 574.588 432.829 572.806 432.598 570.89L431.914 565.176C431.635 562.814 432.425 560.625 435.646 560.256L437.355 560.045L436.72 556.225L434.119 556.533C430.147 556.997 427.178 560.547 427.626 565.513L428.22 571.816C428.369 573.294 427.135 574.225 425.971 574.361L426.216 577.65C427.414 577.505 428.781 578.128 428.913 579.54L429.483 585.885L429.474 585.852Z" fill="white"/>
<path d="M401.393 594.26C404.829 594.434 408.256 594.963 411.727 594.74L412.076 557.955C409.308 558.167 406.603 557.692 403.845 557.548L403.582 561.573L407.798 561.891L406.668 590.621L401.665 590.267L401.384 594.227L401.393 594.26Z" fill="#023859"/>
<path d="M399.253 590.1L394.241 589.713L397.384 561.115L401.601 561.432L401.93 557.389L397.821 557.078L395.766 556.922L393.725 556.551L388.653 592.976L391.209 593.421L393.769 593.618L398.922 594.003L399.236 590.035L399.253 590.1Z" fill="#023859"/>
<path d="M368.951 555.031C372.077 555.889 374.761 561.032 372.222 570.929C369.698 580.751 364.046 583.643 360.222 582.549L359.011 586.334C367.341 588.693 374.447 582.657 376.761 572.185C379.091 561.637 376.538 553.034 370.138 551.288L368.951 555.031Z" fill="#8159A5"/>
<path d="M368.533 550.835C362.354 548.465 355.27 553.789 350.977 563.732C346.724 573.559 348.948 582.78 356.991 585.781L358.243 582.02C354.498 580.693 351.636 574.891 355.358 565.454C359.128 555.933 364.258 553.464 367.281 554.596L368.509 550.877L368.533 550.835Z" fill="#8159A5"/>
<path d="M345.986 541.94C341.891 543.002 337.551 546.177 335.379 550.326L340.077 552.704C341.889 548.793 344.923 546.144 347.863 544.333L346.019 541.931L345.986 541.94ZM334.324 557.989C332.647 557.132 330.578 557.581 329.613 559.252C328.648 560.923 329.417 562.871 331.178 563.776C332.898 564.657 334.991 564.167 335.872 562.448C336.753 560.728 336.035 558.837 334.366 558.013L334.324 557.989Z" fill="#8159A5"/>
<path d="M185.43 474.781C219.205 600.83 348.767 675.632 474.815 641.858C600.863 608.083 675.666 478.521 641.892 352.473C608.117 226.425 478.555 151.622 352.507 185.397C226.458 219.171 151.656 348.733 185.43 474.781Z" stroke="#F9ED24" stroke-miterlimit="10"/>
<path d="M103.489 496.738C149.389 668.041 325.468 769.7 496.771 723.8C668.075 677.899 769.734 501.82 723.833 330.517C677.932 159.214 501.854 57.5548 330.55 103.455C159.247 149.356 57.5881 325.435 103.489 496.738Z" stroke="#F9ED24" stroke-miterlimit="10"/>
<path d="M89.0902 500.596C137.121 679.851 321.374 786.23 500.629 738.198C679.884 690.167 786.262 505.915 738.231 326.659C690.2 147.404 505.948 41.0259 326.692 89.0573C147.437 137.089 41.0588 321.341 89.0902 500.596Z" stroke="#F9ED24" stroke-miterlimit="10"/>
<path d="M206.154 469.229C236.862 583.831 354.659 651.842 469.261 621.134C583.864 590.426 651.874 472.629 621.167 358.027C590.459 243.424 472.662 175.414 358.059 206.121C243.457 236.829 175.446 354.626 206.154 469.229Z" stroke="#F9ED24" stroke-width="2" stroke-miterlimit="10"/>
<path d="M607.976 340.161C608.912 343.655 612.503 345.729 615.997 344.792C619.49 343.856 621.564 340.265 620.628 336.771C619.692 333.278 616.1 331.204 612.607 332.14C609.113 333.077 607.039 336.668 607.976 340.161Z" fill="white"/>
<path d="M728.292 403.304C729.228 406.798 732.819 408.871 736.313 407.935C739.807 406.999 741.88 403.408 740.944 399.914C740.008 396.42 736.417 394.347 732.923 395.283C729.429 396.219 727.356 399.81 728.292 403.304Z" fill="white"/>
<path d="M546.377 109.613C547.313 113.107 550.904 115.18 554.398 114.244C557.892 113.308 559.965 109.716 559.029 106.223C558.093 102.729 554.502 100.656 551.008 101.592C547.514 102.528 545.441 106.119 546.377 109.613Z" fill="#8159A5"/>
<path d="M221.732 545.816C222.668 549.31 226.259 551.383 229.753 550.447C233.246 549.511 235.32 545.92 234.384 542.426C233.447 538.932 229.856 536.859 226.362 537.795C222.869 538.731 220.795 542.322 221.732 545.816Z" fill="#8159A5"/>
</g>
<defs>
<clipPath id="clip0_3033_1182">
<rect width="675.485" height="675.485" fill="white" transform="translate(652.469) rotate(75)"/>
</clipPath>
</defs>
</svg>
