<?xml version="1.0" encoding="UTF-8"?>
<svg id="Layer_1" data-name="Layer 1" xmlns="http://www.w3.org/2000/svg" viewBox="0 0 800 800">
  <path d="M780,421.94v8.33h-1.47v-5.97l-2.63,3.93h-.05l-2.61-3.9v5.95h-1.44v-8.33h1.57l2.53,3.94,2.53-3.94h1.57ZM763.5,423.31h2.66v6.97h1.47v-6.97h2.66v-1.35h-6.78v1.35ZM398.96,427.88l-16.77-58.15h-13.57l18.35,60.55h23.78l18.44-60.55h-13.56l-16.68,58.15ZM341.06,404.47v-10.52h-22.56v-13.7h29.13v-10.51h-41.75v60.53h42.46v-10.51h-29.85v-15.29h22.58ZM268.63,405.66l15.41,24.62h-14.27l-14.12-22.55h-10.67v22.55h-12.62v-60.55h24.1c14.6,0,23.71,7.49,23.71,19.04.02,7.81-4.12,13.87-11.55,16.89ZM267.26,388.76c0-5.34-3.91-8.53-10.46-8.53h-11.81v16.97h11.81c6.56.01,10.46-3.17,10.46-8.44ZM767.62,369.73h-50.28v10.51h18.84v50.04h12.6v-50.02h18.84v-10.52ZM604.56,397.5l-17.39-27.76h-13.52l24.14,38.57-13.75,21.96h14.27l37.9-60.53h-14.27l-17.39,27.76ZM681.92,395.06l-8.62-1.91c-8.38-1.91-11.65-3.35-11.65-7.65s4.94-6.77,11.02-6.77,10.3,2.16,11.9,7.16h13.18c-1.75-10.11-10.13-17.13-25.06-17.13-13.25,0-23.47,7.33-23.47,17.85,0,9.56,6.71,14.66,16.84,16.81l8.62,1.91c8.22,1.83,12.06,3.35,12.06,8.13s-4.87,7.81-13.32,7.81c-6.62,0-11.9-3.19-12.77-9.64h-13.18c1.6,12.34,11.65,19.6,25.46,19.6,15.8,0,26.34-7.09,26.34-19.04-.03-9.64-5.92-14.66-17.34-17.13ZM534.09,369.73h-12.62v60.55h40.42v-10.51h-27.8v-50.04ZM486.66,404.47v-10.52h-22.56v-13.7h29.13v-10.51h-41.75v60.53h42.46v-10.51h-29.86v-15.29h22.58Z" style="fill: #fff;"/>
  <path d="M201.54,386.76c-14.62-1.08-64.25-3.12-64.25-3.12,25.94-16.63,59.52-32.03,61.41-36.48,1.42-3.32-2.19-7.62-13.15-8.29-15.05-.92-42,10.44-62.56,24.54-4.66,3.2-9.97,6.64-14.03,9.26l-7.41-7.23c-2.32-2.27-6.23-1.21-7.1,1.91l-2.31,8.33c-.16.59.04,1.24.52,1.62l5.97,4.77c-.47,0-.93,0-1.38.01-37.59.4-59.78,16.41-62.85,18.39-3.07,1.98-11.05,9.13-13.19,16.32-1.55,5.19-3.22,11.89,6.32,12.08,13.15.27,32.77-12.31,53.24-26.59,5.08-3.43,10.72-7.44,15.88-11.18l13.14-.12h1.44c-17.55,13.11-28.61,23.78-31.53,32.05-4.31,12.18-1.06,15.32,1.92,15.32,3.25,0,8.78-4.64,13.81-10.8,5.77-7.08,15.24-20.81,22.88-29.73l78.9,63.16c.81.64,1.81-.5,1.08-1.21l-71.06-69.31h0s74.29-2.6,74.29-2.6c.71-.02.75-1.07.04-1.12ZM75.28,398.11c-3.84,2.33-11.3,7.04-16.27,9.69-19.94,10.66-28.81,12.82-30.21,9.39-1.42-3.42,4.84-8.94,25.05-17.8,12.11-5.32,24.54-7.29,32.02-8.02-6.16,4.05-10.58,6.73-10.58,6.73ZM124.98,382.79c-2.01-.09-3.99-.17-5.91-.26l-5.45-5.32c8.59-6.26,19.48-13.36,29.15-17.97,30.35-14.46,41.06-10.88,41.06-10.88,0,0-3.94,2.95-18.26,10.91-15.64,8.7-29.11,16.22-40.58,23.52ZM77.3,364.04c-1.38-1.86-1.24-5.71,2.3-8.86,1.48-1.33,3.09-1.83,4.63-1.78,2.3-.09,4.46,1.12,5.79,2.81,2.14,2.74,1.35,5.61-2.71,8.09-2.12,1.29-3.97,1.75-5.49,1.7-2.14.07-3.7-.84-4.52-1.96Z" style="fill: #fff;"/>
</svg>