<?xml version="1.0" encoding="UTF-8"?>
<svg id="Layer_1" data-name="Layer 1" xmlns="http://www.w3.org/2000/svg" viewBox="0 0 800 800">
  <g id="RED_VAN_SINGLE_LINE_LOGO" data-name="RED VAN SINGLE LINE LOGO">
    <g id="VAN">
      <g id="Layer_49" data-name="Layer 49">
        <path d="M242.88,457.99c-.44.8-.95,1.57-1.53,2.34-.35.49-.97.94-1.39,1.35l.18,1.58c-.1.58-.28,1.12-.52,1.62-.71,2.47-1.54,2.84-2.7,3.78-1.6,1.31-4.5.13-6,.06-.31-.01-1.19.36-2.39.81-11.41,4.34-25.13,8.94-38.23,11.01l-1.55.28c-1.98.31-2.32.53-4.26.84l-.05.08c-1.23,2.27-1.55,3.07-3.49,3.66-.97.29-2.04.4-3.19.43h-.34s0,0,0,0h0c-1.01.05-2.07-.42-2.92-.77-.73-.3-1.88-1.76-3.5-2.42-.07-.03-.95.01-1.02.01-4.57-.16-9.55.24-14.11.26-11.28.08-20.34-1.09-31.14-4.57-1.3-.42-5.26-1.29-6.56-1.7-.28.54-1.13,2.44-1.47,2.95-1.33,1.99-2.83,2.66-5.31,3.09,0,0-1.91.35-1.93.35-4.4.76-3.93.9-8.31,1.7-.01,0-1.92-.04-1.94-.03-1.7.08-1.72-.1-3.67-.76-.32-.11-.81-.37-1.08-.58-3.64-2.81-3.91-2.8-6.11-6.5h0c-4.04-6.78-5.11-12.56-6.31-20.35h0c-.54-3.55-1.46-6.7-1.58-10.28-.33-.23-.64-.48-.92-.75-.95-.91-1.69-2.12-2.06-3.64l-18.9-14.04-9.57-6.4c-1.24,2.73-.31,6.42-3.85,6.96-3.59.54-7.11,1.63-10.84.4-3.07-1.01-4.34-3.93-5.18-7.35-1.86-7.53-1.92-10.65-2.08-17.64-2.66-1.2-4.77-2.02-5.86-5.51h0c-.17-.54-.35-1.29-.46-2.21-.21-1.84-.3-5.06-.32-6.22v-.43.44l.02.17h.01s0-.02,0-.02l-.03-.29v-.25s-.01-.49-.01-.49v-.06.84s.04.28.04.28c0,0,0-.38,0-.71l-.04-.41.02-.47c.08-1.42.27-2.89.03-4.27h0c-.19-1.16-.28-2.29-.29-3.4h0l-.11-11.44c-.04-.36-.05-.73-.04-1.12l.04-1.39v-11.12c.12-1.24.17-1.96.35-2.97-.08-1.17.02-2.42.06-3.46.07-2.54-.52-1.21,2.08-11.13,2.86-10.9,2.97-10.07,2.97-10.07.34-.44.55-1.13,1-1.46,0,0,.59-2.18,4.3-3.67,2.26-.9,5.59-1.72,8.38-1.88.54-.04,4.93-.29,9.91-.7,25.27-2.06,86.29-7.81,127.39-5.77l2.8.2c11.57.58,17.65,1.96,24.09,4.02l.11.03.16.06c13.4,3.98,17.18,9.98,17.18,9.98l.93,1.98c.76,1.56,1,1.84,2.56,4.92,5.54,10.91,12.98,31.07,14.23,38.1.66,3.74-.93,9.98-.76,16.2.1,3.38,1.02,6.48,1.33,9.93-.1.69-.9,1.24-1.12,1.89l-.13,5.66c0,.13.08.25.2.28.35.1.76.22.84.4.27.56.59,1.19.83,1.94.93,2.95.88,4.78.45,8.12l-.07.17-.52,2.59c-.15.71-.3,1.42-.46,2.13l-.28,1.25v.07c-.15,1.12-.23,1.3-.63,2.16l-.21.77c-.16.35-.9.99-1.12,1.35-.27,2.7-.47,6.34-.11,8.78l1.28.71.62.34c1.73.6,2.05,1.59,3.04,3.54.97,1.92,1.41,4.63,1.31,7.93,1.48,3.57,1.34,3.97.26,7.37l-.04.07-.35.47h0ZM177.93,483.68c.69,0,1.38-.01,2-.2s1.16-.55,1.54-1.29c-.97,1.03-2.33,1.1-3.55,1.49h0ZM22.31,356.74c.07,4.27.08,8.46-.05,12.64-.04,1.31.54,2.16,1.88,2.56.83.25,1.88.32,2.32,1.33,2.01.49,2.01.48,2.06-1.67,0-.15-.07-.37.18-.4.27.42.47.9.81,1.23.87.88,1.83,2.02,3.17,1.38,1.27-.61,2.3-.17,3.31.26,1.26.54,2.56.78,3.86,1.07,3.18.72,3.26.85,2.88,4.15,0,.08-.08.14-.19.32-.54-.88-1.54-.59-2.27-1-1.19-.68-2.37-.66-3.55.04-.48.28-1.05.54-1.54.32-1.94-.85-4.48-.29-5.81-2.57-.23-.41-.81-.54-1.3-.63-1.07-.19-2.09-.51-3.08-.94-.34-.14-.84-.54-1.07-.04-.23.52.27.76.73.91.89.3,1.79.64,2.63,1.33-.96.1-1.71.02-2.47-.31-1.31-.59-2.01-.05-2.18,1.48-.23,2.01-.37,3.98-.01,6.03.31,1.82.15,3.73.04,5.59-.08,1.37.33,2.62.5,3.91.16,1.21.33,2.27,1.13,3.2.35.41.57.85.34,1.42-.61-.13-.85-.76-1.45-.76.8,2.54,2.48,3.96,4.86,3.96.9,0,1.21.25,1.12,1.12-.06.49.01,1,0,1.49-.04,7.06.9,13.93,3.5,20.53.58,1.48,1.61,2.17,2.99,2.62,2.83.93,5.48-.21,8.21-.62,1.69-.25,2.42-1.36,2.87-2.82.42-1.4.32-2.87.5-4.29.24-1.94.54-2.09,2.11-.97,9.49,6.82,18.97,13.64,28.45,20.45,1,.71,1.67,1.58,1.84,2.83.13.91.65,1.48,1.62,1.48,1.16,0,1.6.57,1.56,1.69-.16,4.25.47,8.44,1.11,12.63,1.09,7.06,3.29,13.72,6.95,19.86,1.53,2.56,3.98,3.95,6.65,5,.47.19.95.2,1.46.12,4.41-.8,8.82-1.61,13.24-2.37.75-.13,1.19-.49,1.6-1.08.83-1.25,1.36-2.63,1.9-4.02.4-1.05.97-1.49,2.16-1,2.37.98,4.87,1.57,7.3,2.35,10.23,3.3,20.77,4.37,31.45,4.31,4.88-.03,9.76-.31,14.65-.1.85.05,1.53.28,2.21.8.9.67,1.65,1.6,2.86,1.82-.64-.44-1.14-.99-1.6-1.58-1.11-1.41-2.41-2.11-4.29-1.68-1.17.28-2.42.22-3.62.25-13.15.33-26.18-.61-39-3.67-6.26-1.48-12.15-3.81-17.44-7.55-3.52-2.49-4.55-6.06-2.94-10.02.15-.37.32-.74.49-1.11,1.22-2.74,1.98-3.08,4.65-1.87,6.65,3.01,13.53,5.25,20.72,6.58,1.24.23,1.59-.02,1.73-1.28.49-4.34,2.84-7.26,6.93-8.79,2.64-.99,5.31-.57,7.99-.36,8.02.64,16.03.83,24.07.61,1-.04,1.74-.42,2.58-1.07,3.35-2.62,3.4-2.55,6.3-.25.04.03.07.06.1.09.42.47.95.62,1.57.56,5.35-.56,10.7-1.13,16.01-1.98.9-.14,1.05-.49.86-1.36-.53-2.38-1.28-4.69-2.07-6.99-1.85-5.35-4.18-10.47-7.71-14.94-3.64-4.62-7.78-8.72-12.4-12.35h.04c.45-.03.81-.06.23-.61-.52-.48-1.2-.81-1.56-1.46l.02-.02-.05-.04s.02.04.03.05c-.54.52.22.81.25,1.21h0l-.04-.02c-1.46-1.21-3.21-2.06-4.3-3.72-.37-.59-1.5-.5-1.49-1.53-.52.37-1.01.32-1.44-.13-.44-.47-.96-.73-1.6-.79-.01,0-.03.01-.04.03v-.04c-.82-1.02-1.95-1.63-3.02-2.33-.54-.35-1.13-.64-1.58-1.29,1.19.2,2.19.08,3.26.76,1.26.8,1.68,1.53,1.33,2.86h0s.01,0,.01,0h0c.17-.11.35-.22.51-.34,1.03-.81,2.27-.25,2.63,1.17.26-.02.58-.15.77-.04,1.86,1.05,3.89,1.92,4.73,4.15.59.05,1.02.42,1.51.71,1.28.74,2.27,1.91,3.71,2.4-.11-.17-.2-.35-.34-.48-3.3-3.05-6.63-6.06-10.44-8.49-4.53-2.89-9.1-5.72-13.75-8.42-.2-.12-.52-.16-.52-.59,1.02.17,1.75.88,2.59,1.34,6.57,3.63,12.91,7.64,18.76,12.37,6.07,4.89,11.54,10.38,16.68,16.27,2.92,3.34,4.99,7.01,6.22,11.22.88,3.02,1.9,6.01,2.41,9.14.08.47.01,1.46.76,1.31.59-.13.1-.95.03-1.44-.15-1.07-.72-2.02-.9-3.11-.69-4.25-1.78-8.38-3.78-12.21-.94-1.79-1.91-3.55-3.04-5.64,2.13,1.86,3.04,4.19,4.5,6.11-.18-1.17-.72-2.15-1.3-3.09-.46-.73-.45-1.9-.82-2.18-1.19-.91-1.85-2.19-2.76-3.28-7.31-8.78-15.91-16.03-25.51-22.19-3.43-2.2-7.2-3.72-10.56-6.04-2.67-1.84-5.79-2.87-8.72-4.25-5.4-2.54-10.71-5.28-16.05-7.93-1.02-.5-2.16-.89-2.13-2.43-.45,1.82-.04,3.55-.01,5.27-.66-1.67-.54-3.46-.86-5.18-.39.14-.83.49-1.09.38-1.51-.62-1.15.59-1.19,1.23-.06.95.06,1.89.07,2.83.01.65-.34.95-.99,1.03-.61.07-.92-.06-.98-.73-.07-.72-.74-.85-1.26-1.06-3.4-1.29-6.78-2.61-10.2-3.84-7.85-2.81-15.82-5.29-23.86-7.53-7.98-2.22-15.95-4.48-24.01-6.42-9.19-2.22-18.37-4.51-27.56-6.75-4.01-.97-8.02-1.93-12.04-2.85-2.72-.63-5.42-1.36-8.29-1.68v.42h0l.04.02ZM230.83,466.31c-1.07-.6-1.92-.32-2.87.2-2.37,1.29-4.87,2.32-7.37,3.31-11.9,4.67-24.31,7.19-36.91,8.96-1.65.23-1.74.32-1.54,2.27.35-1.07,1.02-1.42,1.94-1.55,2.49-.36,4.96-.83,7.44-1.22,12.98-2.06,25.44-5.76,37.35-11.34.81-.37,1.55-.35,2.34-.04.87.33,1.73.73,2.9.53-1.13-.61-2.32-.58-3.27-1.09h0ZM146.85,475.45c-3.24-.72-6.6-.86-9.81-1.86,5,.51,9.99,1.03,15,1.38,5.96.41,11.92.19,17.88.1.36,0,.72,0,1.08.04.73.04,1.48.3,1.46,1.08-.01.83.05,1.86-1.08,2.25-.91.31-1.86.31-2.8.36-10.2.4-20.35-.1-30.44-1.69-4.74-.75-9.48-1.51-14.07-2.98-2.87-.92-5.75-1.88-8.43-3.31-.55-.3-1.09-.64-1.57-1.04-.44-.37-1.05-.9-.64-1.46.44-.6,1.39-.56,1.83-.08,2.06,2.26,4.96,2.59,7.61,3.37,7.34,2.19,14.88,3.22,22.5,3.79.49.04.98.04,1.47.06h0ZM130.1,474.99l-.13-.02c1.9.85,8.67,1.85,15.6,2.54,5.06.5,10.21.85,13.63.85h.06c1.24,0,2.23-.05,2.92-.15-10.79-.08-21.47-1.23-32.08-3.21h0ZM170.9,465.41c.59,0,.97-.12,1.19-.77.59-1.65,1.38-3.24,1.9-4.91.97-3.17,1-2.61-1.89-2.54-8.58.21-17.13,0-25.66-.88-4.1-.42-7.08,1.99-7.47,6.09-.09.99.12,1.41,1.21,1.55,7.97,1,15.98,1.43,24.01,1.6,2.25-.04,4.49-.1,6.72-.12h0ZM230.76,446.11c-6.6,2.73-13.42,4.8-20.37,6.42-.47.11-.75.35-.97.81-.59,1.24-1.07,2.36-2.64,3.03-2.27.97-2.94,1.01-3.7-1.43-.18-.59-.34-.88-1.09-.74-5.47.97-11,1.57-16.54,2.06-.81.08-1.05.45-1.09,1.19-.12,1.71-.23,3.42-.48,5.11-.21,1.36.28,1.55,1.49,1.36,8.55-1.3,17.08-2.66,25.45-4.86,3.6-.94,7.26-1.62,10.74-3.04,2.31-.94,4.61-1.93,7.2-2.49-1.12-.28-.72-.83-.33-1.43,1.21-1.87,2.02-3.93,3.09-6.1-.42.05-.59.04-.74.09h0ZM239.24,453.8c-1.4,1.22-1.27,2.81-1.34,4.32-.02.52-.21,1.49.47,1.72.72.24,1.13-.54,1.53-1.09,1.84-2.49,3.26-5.04,1.1-8.12-.31.46.06,1.06-.45,1.59-.02-.57-.03-1-.05-1.43-.25,1.14-.48,2.32-1.26,3h0ZM120.25,456.53c-2.02-.12-3.91-.79-5.76-1.67,1.94.43,3.88.87,5.81,1.3-.02.13-.04.25-.05.37h0ZM206.56,453.38c-.11-.11-.31.23-.28.48.09.64.42,1.08,1.05,1.24.62.16.71-.39.89-.77.18-.39.33-.81.56-1.37-.93-.08-1.34,1.25-2.23.42h0ZM235.86,382.46v.1c.07,2.06-.45,4.02-.21,6,.11.98.02,1.98.03,2.98,0,.83.55,2.8.44,3.14-.51,1.47-.57,3-.58,4.54,0,.41.28,1.12-.33,1.15h-.04c-.12,0-.28-.02-.47-.07-.03,0-.06-.01-.08-.01h-.01c-.28,0-.24.4-.14.59,1.19,2.13.66,4.53,1.19,6.76.24,1.03.06,1.72-.61,2.49-1.05,1.22-1.62,2.79-2.73,3.98-.24.25-.31.57-.27.88.16,1.33-.18,2.6-.46,3.88-.1.46-.23.94.4,1.08.07.01.13.02.18.02h.02c.37-.01.42-.39.64-.72.7-1.03.52-2.44,1.53-3.31.09-.07.2-.24.17-.32-.52-1.98,1.26-3.48,1.08-5.44-.03-.32.2-.41.51-.41h.03c.28,0,.61.06.83.06.29,0,.9.23.35.8-.13.16-.09.25.06.43,1.77,1.94,1.15,4.15.61,6.31-.15.6-.64,1.07-1.34,1.21-.37.07-.7.2-.71.66-.03.69-.45.93-1.07.94-.75.01-1.19.54-1.61,1.03-.2.24-.18.77-.51.78h-.02c-.11,0-.25-.05-.45-.18-.02-.01-.04-.02-.06-.02h0c-.12,0-.1.32-.13.52-.09.63.08,1.38-.94,1.58-.52.1-.41.83-.35,1.31.24,1.96.85,3.75,2.37,5.09.59.52.73,1.05.69,1.76-.05.85,0,1.72-.05,2.57-.02.44.2,1.06-.64,1.05-.25,0-.23.33-.27.54-.05.22-.06.45-.09.67-.16,1.51.2,3.36-.72,4.45-.87,1-2.59,1.27-3.94,1.84-5.02,2.1-10.3,3.38-15.53,4.8-.18.05-.4.15-.59.16h-.04c-.14,0-.27-.04-.37-.19-.21-.32,0-.71.15-1.03,1.58-3.49,2.73-7.14,4.16-10.69,1.67-4.15,3.23-8.35,5.01-12.45l.18-.4-.18.36c-1.63,3.15-3.08,6.38-4.44,9.66-2.03,4.92-3.86,9.92-5.94,15.04-.69.02-.41-.83-.25-1.21l.35-.82.34-.83.33-.83.32-.83.32-.83.37-.97.14-.37.2-.55.33-.89.31-.85.3-.83.4-1.12.73-2.05.69-1.94.4-1.1.4-1.1.2-.55.21-.57.3-.79c.04-.09.07-.18.11-.28.81-2.12,1.34-4.38,2.49-6.33,3.36-5.74,5.02-12.21,7.79-18.19,3.27-7.08,6.1-14.35,8.21-21.88.02-.06.13-.1.31-.25h0l-.03-.04ZM78.1,438.16c-.3.2-.52-.06-.68-.23-1.54-1.61-3.45-2.73-5.25-4-5.32-3.75-10.67-7.47-15.91-11.34-4.08-3.02-8.24-5.93-12.38-8.87-1.28-.9-2.61-1.73-3.93-2.58-.41-.26-1.04-.49-.59-1.09.4-.54.71.18.93.34,5.65,4.07,11.35,8.07,17.01,12.11,5.29,3.8,10.55,7.64,15.98,11.22,1.5.98,2.89,2.13,4.32,3.21.29.22.56.47.59.96,0,.03,0,.21-.09.26h0ZM233.46,428.91c-.04.23.17.57.47.57.33,0,.35-.35.4-.6.22-.94.7-1.73,1.29-2.49.45-.58.81-1.25.92-2.16-1.22.44-1.56,2.65-3.38,1.21-.17,1.38.52,2.37.32,3.46h0ZM187.06,419.11c.64,1.6,2.1,2.41,3.25,3.54-.97-1.29-1.91-2.6-3.25-3.54l-.03-.06s-.06-.03-.08-.04c-1.03-1.27-2.23-2.35-3.59-3.25-.01-.03-.03-.06-.04-.08l-.04.04s.05.04.08.05c.83,1.5,2.07,2.53,3.59,3.25.01.02.04.04.05.06l.06.04h0ZM145.61,412.73c-1.98-.93-3.39-2.49-3.95-4.68-.06-.23-.73-1.24.53-.91.23.06.18-.25.2-.41.1-.66.2-1.33.3-2.01-.57-.36-.33.73-.89.42.09-1.15.68-2.08,1.44-2.91.36-.39.78-.75,1.24-1.03.81-.51-.05-.68-.12-1.03-.09-.44,2.52-1.38,2.62-1.02.3,1.23,1.26.69,1.87.72,1.95.11,3.68.71,5.19,1.95.25.2.51.38.6.9-.97-.31-1.55-1.22-2.89-1.36,1.48.9,2.6,1.72,3.24,2.97.41.81,1.23,1.72,0,2.59-.07.06-.13.31-.1.33,1.32.83-.12,1.64,0,2.56.77-.59,1.14-1.37,1.7-2.49-.06,1.16-.42,1.79-.83,2.42-2.15,3.35-7.3,4.32-10.16,2.99h0ZM159.85,400.41c.16-.49.53-.47.85-.24,1.38.93,2.96,1.61,4.22,2.75-1.1.83-1.93.28-2.73-.37-.59-.47-1.19-.92-1.93-1.17-.47-.16-.57-.53-.42-.97h0ZM237.23,397.06c-.39.69-.73,1.31-.87,1.94-.14.62-.08,1.23.35,1.9.45-1.15.88-2.3.53-3.83h0ZM135.48,384.92c.22,0,.47.19.67.28,2.78,1.09,5.21,2.83,7.88,4.09.47,1.62,2.15.85,3.09,1.62.92.73,2.29.83,2.8,2.13.01.04.07.06.11.07,1.46.39,2.68,1.28,3.99,1.98.73.38.8.25,1.25,1.19-1.23-.28-2.23-1.09-3.45-1.17,1.46.85,2.91,1.7,4.37,2.55h.06s-.01.01-.02.03c.79.41,1.6.81,2.37,1.23.54.28.87.81.54,1.34-.37.59-.79-.04-1.13-.2-.47-.23-.85-.73-1.34-.85-1.14-.29-.96-.83-.45-1.51.34-.46.34-.46,0,0-.52.68-.01,0-.02-.01-1.63.42-2.98-.52-4.4-1.03-1.12-.4-2.13-1.1-3.21-1.66-.28-.15-.37-.36-.27-.66-.88.25-1.55-.25-2.25-.61-.84-.42-1.67-.84-2.5-1.28-.29-.15-.78-.23-.59-.72.15-.35.52-.28.83-.22,1.77.31,3.07,1.54,4.61,2.33.2.11.07.41-.08.59,1.31-.4,2.3.78,3.53.75-3.62-2.47-7.55-4.31-11.47-6.2-1.65-.8-3.19-1.83-4.77-2.78-.35-.21-.73-.57-.53-.99.09-.19.21-.26.35-.26h.03ZM27.96,385.93c-.26.11-.55.31-.33.6,1.13,1.5-.45,1.63-1.09,1.8-1.36.37-1.78,1.16-1.76,2.43.02.97.28,1.99-.59,2.95-.11-3.51-.23-6.91-.32-10.31-.01-.4-.01-.93.47-1.01.54-.08,1.29-.38,1.64.05.61.76,1.46,1.17,2.1,1.84.5.51,1.02,1.17-.12,1.65h0ZM138.2,388.53s.08,0,.12.02c.89.28,1.92.44,2.04,1.65.03,0,.04-.01.06-.02,0,.01.01.03.01.04.29-.46.67-.53,1.12-.16.34.28.76.59.36,1.07-.38.44-.7-.04-1.01-.21-.28-.14-.38-.42-.47-.71-.02.03-.04.04-.06.08l-.02-.1c-1.06.44-1.77-.4-2.59-.81-.09-.04-.13-.33-.09-.47.07-.25.28-.39.51-.39h.02ZM100.69,374.25l-.08.32c9.74,2.81,19.26,6.22,28.7,10.26-.02-.89-.53-.95-.93-1.11-1.2-.49-2.42-.97-3.63-1.43-.65-.25-1.24-.53-1.19-1.37-1.36-.28-2.77-.13-4.1-.61-4.39-1.56-8.8-3.1-13.22-4.58-1.81-.6-3.69-1.02-5.53-1.52v.02h-.01ZM43.58,375.16c.39-.25.48.1.57.3.42.88,1.16,1.21,2.06,1.29,1.82.16,3.65.28,5.47.48.45.05,1.41-.51,1.13.89-.1.51,1.02,1.09,2.24,1.09-1.19.66-1.74,1.03-3,.59-2.05-.7-4.38-.97-6.6-.52-1.09.22-1.89.98-1.88,2.3,0,.71-.1,1.43-.28,2.14.1-2.85.2-5.71.28-8.56h0ZM220.32,372.48c.49-.05,1.28.28,1.33-.28.08-.99.7-.78,1.21-.82,2.14-.19,4.29-.35,6.43-.49.93-.06,1.3-.59,1.4-1.48.18-1.61-.26-3.04-.86-4.53-2.93-7.33-7-14.2-9-21.94-.68-2.63-2.13-4.98-2.85-7.58-.28-.98-.67-1.3-1.54-1.41-2.8-.38-5.59-.81-8.39-1.19-1.52-.21-3.04-.36-4.56-.54,0-.06.01-.12.01-.18,1.05.04-13.01-1.14-14.47-1.27-8.16-.75-16.29-1.81-24.47-2.28-7.04-.41-14.05-.9-21.08-1.4-3.34-.23-6.7-.12-10.04-.49-1.24-.15-2.51-.15-3.76-.18-.35,0-.93-.19-.92.45.01.44.16.9.85.67.49-.16.97.14,1.41.35,1.96.85,2.41,2.41,2.69,4.46,1.52,11.13,3.22,22.23,4.94,33.32.56,3.55,2.87,5.52,6.48,5.64,4.08.13,8.16.13,12.25.27,3.98.13,7.98-.17,11.92.64.34.07.72.1.95-.28h0c-.07.55-.42,1.25.3,1.53,1.06.4,2.01.98,2.97,1.54.62.36.89.14.86-.59-.02-.78-.42-1.34-.87-1.9-.48-.6.13-.91.39-1.24.35-.44.59-.14.75.26.28.7.92.45,1.41.45,6.59.02,13.18.2,19.76.49,2.67.11,2.89-.14,3.72-2.49.64-1.85.47-3.52-.18-5.32-2.26-6.17-4.42-12.38-6.61-18.58-.15-.42-.31-.85-.4-1.29-.06-.32.04-.64.4-.78.34-.15.64-.02.83.24.19.25.33.54.45.83,2.1,5.18,3.46,10.65,5.99,15.67.07.15.16.39.09.5-.39.66.02,1.23.18,1.81.77,2.67,1.39,5.4,3.24,7.82-.95.03-1.62.13-1.51,1.11.08.73.16,1.55.68,2.01,2.04,1.8,2.87,4.31,3.98,6.65.37.78.64,1.65,1.67,2.5-.54-2.42-1.22-4.39-2.12-6.28-.52-1.09-1.79-2.14-.2-3.36.08-.06.04-.34-.01-.49-.13-.43.14-.43.42-.45,3.53-.25,7.06-.52,10.58-.78.5-.04.97.06,1.38.35,0,.01-.01.04-.01.05l.04-.04h-.01c.22-.61,1.13-.52,1.24-1.33.03-.2.88-.16,1.2.18.31.32.25.78-.23,1-.24.11-.25.3-.31.49-.02,0-.04,0-.06,0l.05.04s.01-.04.01-.05h0ZM123.61,380.9c1.88.25,3.55,1.35,5.5,1.39-1.48-.54-2.83-1.3-4.2-2.01-.89-.47-1.55-1.42-2.66-1.46-1.11-.05-2.08-.53-3.07-.92-1.79-.71-3.55-1.52-5.39-2.1-1.88-.6-3.6-1.68-5.5-2.09-1.84-.39-3.67-.81-5.49-1.27-8.26-2.08-16.49-4.21-24.75-6.31-.52-.13-1.05-.26-1.38.56,4.57,1.2,9.05,2.47,13.57,3.55,7.2,1.72,14.28,3.88,21.34,6.07,4.09,1.26,8.19,2.57,11.99,4.62h0s.04.02.04.02l-.04-.02v-.02h.05ZM56.05,376.83c.4-.54.78.1,1.07.33,1.26,1.04,2.87,1.34,4.36,1.91-.89,1.83-1.92.71-2.92.4.11-.46.5-.13.74-.43-.83-.51-1.63-1-2.44-1.5,1.26,1.32.28,2.63-.01,3.94.02-.49,0-.99.06-1.48.1-.68,0-1.21-.67-1.57-.78-.43-.51-1.17-.18-1.62h0ZM29.26,379.9c-1.55-.27-2.99.22-4.44.61-.37.09-.76.22-.92-.22-.27-.77-.37-1.6.08-2.32.26-.43.72-.23,1.08-.02.91.52,1.77,1.18,2.89,1.12.28-.01.67-.03.76-.37.02-.09-.37-.29-.8-.6.72-.1,1.07-.22,1.41-.18.73.07.91.65.94,1.26.04.71-.5.82-1,.73h0ZM129.82,372.76c-.32-.84-.06-1.03.75-.97.85.07,1.7.07,2.55.1.32,0,.81.53.83-.31.02-.69-.35-.61-.85-.64-1.38-.08-2.79.05-4.14-.39-.34-.11-.74-.21-.81-.62-.09-.52.43-.49.71-.66,2.42-1.4,3.53-3.55,3.16-6.32-.86-6.34-1.74-12.66-2.64-19-.43-3.11-.99-6.21-1.32-9.33-.2-1.88-1.4-3.32-3.25-3.32-2.97-.01-5.92-.16-8.87-.37-.86-.06-2.01-.75-2.64.57-.02.06-.29.08-.37.02-1.19-.82-2.53-.35-3.79-.37-6.28-.07-12.56-.07-18.84-.08-1.81,0-2.39.4-3.03,2.08-.16.42-.3.85-.4,1.29-1.95,8.29-3.88,16.58-5.83,24.86-.57,2.44-.6,2.44,1.86,2.87.48.08.95.25,1.43.32,8.24,1.33,16.35,3.27,24.57,4.7,1.4.24,2.8.52,4.32.81-.6.53-1.08.3-1.54.22-4.8-.93-9.58-1.89-14.37-2.8-5.42-1.02-10.83-1.99-16.25-2.99-.83-.16-1.6-.42-1.38-1.58-.13.27-.18.54-.32.76-.66,1.07-.17,1.52.87,1.7.21.04.44.08.65.12,7.7,1.28,15.33,2.9,22.97,4.46,7.61,1.54,15.25,2.85,22.98,3.56,2.07.18,2.82.81,3.08,2.92.21,1.7.35,3.4.52,5.11.16-2.25.21-4.54-.61-6.74h.02ZM28.72,374.6c.16.65.87.64,1.4.81.4.13.8,0,.73-.46-.13-.95-1.02-.3-1.38-.61-.4-.14-.84-.13-.75.26h0ZM26.48,373.3c-.61.04-1.09-.34-1.65-.49-.32-.08-.73-.4-.89.12-.12.37.12.82.49.84,1.12.06,2,.73,2.99,1.09.24.08.52.25.68-.11.12-.29-.02-.52-.28-.68-.46-.28-.93-.54-1.39-.81l.04.04h0ZM95.39,372.81c-1.48-.59-2.97-1.09-4.49-1.51s-3.06-.76-4.61-1.02c2.99,1.02,5.97,2.06,9.1,2.54h0ZM170.26,371.93h0c.42.04,1.09.34.63-.58-.21-.43.08-.45.34-.46.53,0,1.05.02,1.57.04.05.11.12.23.1.25-.45.47.14,1.53-.49,1.6-.7.07-1.53-.33-2.15-.85h0ZM114.63,368.56c2.1,0,4.2.19,6.27.47,2.08.27,4.15.63,6.21,1-4.22.11-8.37-.5-12.48-1.46h0ZM57.66,361.97c.73.62,1.7.63,2.57.83,4.61,1.09,9.23,2.14,13.86,3.18.33.07.93.33,1.03-.22.1-.57-.56-.46-.89-.54-4.05-.93-8.12-1.81-12.18-2.71-1.43-.31-2.85-.64-4.27-.96-.04.13-.08.28-.12.42h0ZM129.85,355.98c-.92-6.91-1.95-13.81-2.92-20.71-.02-.17,0-.35.02-.63.47.17.48.54.56.83.78,3.19,1.04,6.45,1.43,9.69.66,5.58,1.46,11.15,2.18,16.72.19,1.46.37,2.94-.89,4.08,1.14-3.4.06-6.69-.37-9.99h0ZM78.11,358.89c-.59.01-.9,1.01-.7,1.81.02.08-.04.19-.01.26.18.46-.34,1.31.3,1.37.83.07.63-.88.79-1.44.04-.13.03-.26.04-.49-.23-.47.24-1.53-.42-1.51h0ZM44.54,359.25c3.86.61,7.6,1.7,11.4,2.53.34.08.9.45,1.03-.09.13-.57-.56-.45-.89-.52-3.76-.85-7.52-1.67-11.29-2.49-.28-.06-.61-.24-.92.3.27.12.46.25.66.29h0ZM62.11,359.32v-.04l-.03.04h.03c.02.5.42.42.76.48,1.24.21,2.47.43,3.69.65,2.55.47,5.11.95,7.66,1.43.02-.11.04-.22.06-.32-4.06-.75-8.12-1.49-12.18-2.23h0ZM63.45,358.33c3.54.61,7.06,1.26,10.59,1.91,1.17.22,1.82-.29,2.03-1.4.21-1.14.32-2.32.51-3.48,1.19-7.25,2.75-14.42,4.77-21.49.62-2.14.27-2.65-1.76-2.61-3.4.05-6.82.18-10.23.2-1.48,0-2.15.64-2.44,2.08-.86,4.19-1.84,8.36-2.76,12.53-.75,3.38-1.51,6.77-2.27,10.16-.12,1.2.32,1.89,1.56,2.1h0ZM62.04,359.29c-1.56-.96-.85-2.42-.6-3.62,1.18-5.73,2.47-11.45,3.76-17.16.49-2.15.78-4.35,1.6-6.42.42-1.07,1.05-1.67,2.42-1.65,3.95.07,7.89-.07,11.84-.16.26,0,.73.22.78-.25.05-.48-.38-.54-.75-.57-.36-.02-.72-.01-1.08,0-3.32.06-6.63.12-9.95.19-2.43.05-3,.44-3.9,2.73-.21.54-.37,1.11-.52,1.67-1.86,6.96-3.32,14-4.58,21.1-.21,1.17-.2,2.3.02,3.46.13.65.42.81.96.69h0ZM31.85,355.52c-2.73-.76-5.54-1.17-8.33-1.67-.45-.08-.98-.06-1.56.85,7.18,1.5,14.15,3.04,21.23,4.15-1.16-.83-2.2-1.7-3.68-1.88-1.6-.18-3.18-.61-4.76-.94-.01.06-.03.11-.04.18.32.13.64.27.96.41-1.4-.03-2.56-.75-3.81-1.09h0ZM56.76,358.09c-2.56-.46-5.12-.93-7.68-1.38-.01.08-.03.15-.04.23,2.57.5,5.14,1,7.71,1.49,0-.11,0-.22.01-.33h0ZM61.42,331.37c-2.33.11-4.65.28-6.99.33-1.2.02-1.78.53-2.01,1.69-.65,3.12-1.38,6.24-2.06,9.37-.77,3.52-1.53,7.04-2.27,10.56-.32,1.56.01,2.06,1.55,2.35,2.06.4,4.15.73,6.22,1.11,1.65.3,2.01.13,2.31-1.51.9-4.73,1.69-9.49,2.87-14.16.68-2.7,1.31-5.42,1.97-8.13.17-1.28-.5-1.65-1.59-1.6h0ZM36.89,354.5c-.01.06-.02.12-.03.18,2.04.38,4.08.77,6.12,1.15l.07-.32c-2.05-.35-4.1-.71-6.16-1.06v.06s0,0,0,0ZM44.9,352c1.24-6.22,2.72-12.4,4.12-18.58.32-1.41.06-1.67-1.41-1.58-1.74.11-3.48.28-5.23.3-1.17.01-1.66.52-1.9,1.62-.77,3.56-1.61,7.11-2.42,10.66-.53,2.27-1.07,4.56-1.55,6.84-.37,1.75-.08,2.2,1.64,2.54,1.46.29,2.9.53,4.37.78,1.29.08,1.96-.54,2.37-2.56h0ZM47.39,354.1c.73-3.38,1.47-6.77,2.23-10.14.81-3.64,1.58-7.3,2.47-10.93.47-1.89.84-2.03,2.71-2.11,2.83-.11,5.66-.28,8.65-.44-.61-.89-1.35-.58-1.96-.56-2.06.06-4.12.23-6.18.3-2.78.09-3.03.25-3.94,2.88-.13.38-.23.78-.35,1.17-1.39,4.71-2.45,9.5-3.29,14.34-.31,1.8-.49,3.62-.73,5.45.13.02.26.04.39.06h0ZM28.63,353c.84.15,1.68.3,2.51.47,2.13.44,2.42.24,2.87-1.94.69-3.26,1.41-6.51,2.12-9.77.69-3.16,1.37-6.33,2.06-9.5.23-1.07-.04-1.59-1.26-1.47-1.43.14-2.86.23-4.29.17-1.27-.05-1.92.57-2.27,1.67-1.83,5.76-3.04,11.66-3.84,17.14-.13,2.42.28,2.92,2.1,3.24h0ZM38.7,338.65c.26-.15.27-.42.33-.68.43-1.7.84-3.4,1.31-5.09.28-1,.87-1.55,2.04-1.55,1.88.02,3.76-.13,5.64-.23.4-.02.9.18,1.19-.37-.3-.4-.73-.28-1.1-.27-2.01.07-4.03.21-6.05.23-1.02,0-1.57.48-1.95,1.34-.93,2.11-1.26,4.34-1.43,6.61,0,0-.01,0-.02.01h0s0,.09,0,.13c-.87,3.01-2.04,5.95-2.08,9.14.72-3.04,1.84-5.99,2.08-9.14l.03-.11h0v-.04h0ZM84.06,342.53c-.22.59-.5,1.15-.71,1.79-.21.63-.35,1.32-.29,2.15.4-1.53.7-2.73,1-3.93h0ZM90.29,328.96c-1.77,0-2.79.8-3.18,2.49.78-1.06,1.65-1.8,2.95-1.79,9.32.06,18.65-.35,27.98-.04,3.3.11,6.62.12,10.17.59-1.17-.9-2.3-.91-3.4-.93-4.8-.09-9.6-.16-14.39-.2-4.6-.04-9.19-.06-13.79-.09h-2.51c-1.25-.01-2.51-.03-3.76-.04h-.07ZM42.71,329.03c-1.45-.18-2.88-.15-4.32-.04s-2.87.3-4.3.44c2.87-.14,5.74-.26,8.62-.4h0ZM42.79,329.03c2.95-.16,5.89-.29,8.83-.5,5.35-.38,10.72-.6,16.08-.95,6.67-.43,13.37-.35,20.05-.5,7.08-.16,14.17-.4,21.25-.48,2.9-.04,5.79-.07,8.7.54,2.85.59,5.8.49,8.72.44.6-.01,1.52-.07,1.53-.72,0-.78-.92-.48-1.43-.5-7.27-.3-14.53-.05-21.8-.06-5.97,0-11.93.17-17.89.25-6.69.09-13.37.22-20.04.59-7.2.4-14.41.9-21.61,1.4-.81.06-1.7-.13-2.41.49h-.04.02s.01,0,.01,0h0Z" style="fill: #171717; fill-rule: evenodd;"/>
        <path d="M210.28,452.56l-8.02,1.61c.04.32.72.53.75.86.04.52-.09.96-.35,1.32l.61.89h5.45l.75-2.19c-.08-.28-.11-.59-.1-.88-.02-.34.11-.69.25-1.08.03-.07.63-.45.66-.53h0ZM201.09,450.15l10.84-2.01c.06-.11-.46-.23-.4-.35.13-.69,3.56-6.29,4.16-6.7l20.17-58.63s.19-4.95.45-9.37c.25-4.2-15.24-40.93-17.95-44.08-1.11-1.29-9.4-10.59-40.48-12.14-51.08-2.54-136.28,5.93-139.55,6.36-8.74,1.13-10.11,4.36-10.11,4.36,0,0-5.71,14.7-5.88,22.79-.04,2.03,0,5.92,0,5.92l46.05,12.04,30.59,8.69,37.26,12.59,33.86,19.04,19.22,17.54c.93-.45,4.29,4.7,4.94,5.79,1.66,2.8,5.48,13.58,7.02,16.77.2.42-.35.95-.18,1.38h0ZM220.32,372.49c.49-.05,1.28.28,1.33-.28.08-.99.7-.78,1.21-.82,2.14-.19,4.29-.35,6.43-.49.93-.06,1.3-.59,1.4-1.48.18-1.61-.26-3.04-.86-4.53-2.93-7.33-7-14.2-9-21.94-.68-2.63-2.13-4.98-2.85-7.58-.28-.98-.67-1.3-1.54-1.41-2.8-.38-5.59-.81-8.39-1.19-1.52-.21-3.04-.36-4.56-.54,0-.06.01-.12.01-.18,1.05.04-13.01-1.14-14.47-1.27-8.16-.75-16.29-1.81-24.47-2.28-7.04-.41-14.05-.9-21.08-1.4-3.34-.23-6.7-.12-10.04-.49-1.24-.15-2.51-.15-3.76-.18-.35,0-.93-.19-.92.45.01.44.16.9.85.67.49-.16.97.14,1.41.35,1.96.85,2.41,2.41,2.69,4.46,1.52,11.13,3.22,22.23,4.94,33.32.56,3.55,2.87,5.52,6.48,5.64,4.08.13,8.16.13,12.25.27,3.98.13,7.98-.17,11.92.64.34.07.72.1.95-.28h0c-.07.55-.42,1.25.3,1.53,1.06.4,2.01.98,2.97,1.54.62.36.89.14.86-.59-.02-.78-.42-1.34-.87-1.9-.48-.6.13-.91.39-1.24.35-.44.59-.14.75.26.28.7.92.45,1.41.45,6.59.02,13.18.2,19.76.49,2.67.11,2.89-.14,3.72-2.49.64-1.85.47-3.52-.18-5.32-2.26-6.17-4.42-12.38-6.61-18.58-.15-.42-.31-.85-.4-1.29-.06-.32.04-.64.4-.78.34-.15.64-.02.83.24.19.25.33.54.45.83,2.1,5.18,3.46,10.65,5.99,15.67.07.15.16.39.09.5-.39.66.02,1.23.18,1.81.77,2.67,1.39,5.4,3.24,7.82-.95.03-1.62.13-1.51,1.11.08.73.16,1.55.68,2.01,2.04,1.8,2.87,4.31,3.98,6.65.37.78.64,1.65,1.67,2.5-.54-2.42-1.22-4.39-2.12-6.28-.52-1.09-1.79-2.14-.2-3.36.08-.06.04-.34-.01-.49-.13-.43.14-.43.42-.45,3.53-.25,7.06-.52,10.58-.78.5-.04.97.06,1.38.35,0,.01-.01.04-.01.05l.04-.04h-.01c.22-.61,1.13-.52,1.24-1.33.03-.2.88-.16,1.2.18.31.32.25.78-.23,1-.24.11-.25.3-.31.49-.02,0-.04,0-.06,0l.05.04s.01-.04.01-.05h0ZM129.82,372.77c-.32-.84-.06-1.03.75-.97.85.07,1.7.07,2.55.1.32,0,.81.53.83-.31.02-.69-.35-.61-.85-.64-1.38-.08-2.79.05-4.14-.39-.34-.11-.74-.21-.81-.62-.09-.52.43-.49.71-.66,2.42-1.4,3.53-3.55,3.16-6.32-.86-6.34-1.74-12.66-2.64-19-.43-3.11-.99-6.21-1.32-9.33-.2-1.88-1.4-3.32-3.25-3.32-2.97-.01-5.92-.16-8.87-.37-.86-.06-2.01-.75-2.64.57-.02.06-.29.08-.37.02-1.19-.82-2.53-.35-3.79-.37-6.28-.07-12.56-.07-18.84-.08-1.81,0-2.39.4-3.03,2.08-.16.42-.3.85-.4,1.29-1.95,8.29-3.88,16.58-5.83,24.86-.57,2.44-.6,2.44,1.86,2.87.48.08.95.25,1.43.32,8.24,1.33,16.35,3.27,24.57,4.7,1.4.24,2.8.52,4.32.81-.6.53-1.08.3-1.54.22-4.8-.93-9.58-1.89-14.37-2.8-5.42-1.02-10.83-1.99-16.25-2.99-.83-.16-1.6-.42-1.38-1.58-.13.27-.18.54-.32.76-.66,1.07-.17,1.52.87,1.7.21.04.44.08.65.12,7.7,1.28,15.33,2.9,22.97,4.46,7.61,1.54,15.25,2.85,22.98,3.56,2.07.18,2.82.81,3.08,2.92.21,1.7.35,3.4.52,5.11.16-2.25.21-4.54-.61-6.74h.02ZM170.27,371.94h0c.42.04,1.09.34.63-.58-.21-.43.08-.45.34-.46.53,0,1.05.02,1.57.04.05.11.12.23.1.25-.45.47.14,1.53-.49,1.6-.7.07-1.53-.33-2.15-.85h0ZM114.64,368.58c2.1,0,4.2.19,6.27.47,2.08.27,4.15.63,6.21,1-4.22.11-8.37-.5-12.48-1.46h0ZM129.86,356c-.92-6.91-1.95-13.81-2.92-20.71-.02-.17,0-.35.02-.63.47.17.48.54.56.83.78,3.19,1.04,6.45,1.43,9.69.66,5.58,1.46,11.15,2.18,16.72.19,1.46.37,2.94-.89,4.08,1.14-3.4.06-6.69-.37-9.99h0ZM78.12,358.9c-.59.01-.9,1.01-.7,1.81.02.08-.04.19-.01.26.18.46-.34,1.31.3,1.37.83.07.63-.88.79-1.44.04-.13.03-.26.04-.49-.23-.47.24-1.53-.42-1.51h0ZM62.12,359.33v-.04l-.03.04h.03c.02.5.42.42.76.48,1.24.21,2.47.43,3.69.65,2.55.47,5.11.95,7.66,1.43.02-.11.04-.22.06-.32-4.06-.75-8.12-1.49-12.18-2.23h0ZM63.45,358.34c3.54.61,7.06,1.26,10.59,1.91,1.17.22,1.82-.29,2.03-1.4.21-1.14.32-2.32.51-3.48,1.19-7.25,2.75-14.42,4.77-21.49.62-2.14.27-2.65-1.76-2.61-3.4.05-6.82.18-10.23.2-1.48,0-2.15.64-2.44,2.08-.86,4.19-1.84,8.36-2.76,12.53-.75,3.38-1.51,6.77-2.27,10.16-.12,1.2.32,1.89,1.56,2.1h0ZM62.05,359.3c-1.56-.96-.85-2.42-.6-3.62,1.18-5.73,2.47-11.45,3.76-17.16.49-2.15.78-4.35,1.6-6.42.42-1.07,1.05-1.67,2.42-1.65,3.95.07,7.89-.07,11.84-.16.26,0,.73.22.78-.25.05-.48-.38-.54-.75-.57-.36-.02-.72-.01-1.08,0-3.32.06-6.63.12-9.95.19-2.43.05-3,.44-3.9,2.73-.21.54-.37,1.11-.52,1.67-1.86,6.96-3.32,14-4.58,21.1-.21,1.17-.2,2.3.02,3.46.13.65.42.81.96.69h0ZM56.76,358.11c-2.56-.46-5.12-.93-7.68-1.38-.01.08-.03.15-.04.23,2.57.5,5.14,1,7.71,1.49,0-.11,0-.22.01-.33h0ZM61.43,331.38c-2.33.11-4.65.28-6.99.33-1.2.02-1.78.53-2.01,1.69-.65,3.12-1.38,6.24-2.06,9.37-.77,3.52-1.53,7.04-2.27,10.56-.32,1.56.01,2.06,1.55,2.35,2.06.4,4.15.73,6.22,1.11,1.65.3,2.01.13,2.31-1.51.9-4.73,1.69-9.49,2.87-14.16.68-2.7,1.31-5.42,1.97-8.13.17-1.28-.5-1.65-1.59-1.6h0ZM36.89,354.5c-.01.06-.02.12-.03.18,2.04.38,4.08.77,6.12,1.15l.07-.32c-2.05-.35-4.1-.71-6.16-1.06v.06s0,0,0,0ZM44.9,352c1.24-6.22,2.72-12.4,4.12-18.58.32-1.41.06-1.67-1.41-1.58-1.74.11-3.48.28-5.23.3-1.17.01-1.66.52-1.9,1.62-.77,3.56-1.61,7.11-2.42,10.66-.53,2.27-1.07,4.56-1.55,6.84-.37,1.75-.08,2.2,1.64,2.54,1.46.29,2.9.53,4.37.78,1.29.08,1.96-.54,2.37-2.56h0ZM47.39,354.1c.73-3.38,1.47-6.77,2.23-10.14.81-3.64,1.58-7.3,2.47-10.93.47-1.89.84-2.03,2.71-2.11,2.83-.11,5.66-.28,8.65-.44-.61-.89-1.35-.58-1.96-.56-2.06.06-4.12.23-6.18.3-2.78.09-3.03.25-3.94,2.88-.13.38-.23.78-.35,1.17-1.39,4.71-2.45,9.5-3.29,14.34-.31,1.8-.49,3.62-.73,5.45.13.02.26.04.39.06h0ZM28.63,353c.84.15,1.68.3,2.51.47,2.13.44,2.42.24,2.87-1.94.69-3.26,1.41-6.51,2.12-9.77.69-3.16,1.37-6.33,2.06-9.5.23-1.07-.04-1.59-1.26-1.47-1.43.14-2.86.23-4.29.17-1.27-.05-1.92.57-2.27,1.67-1.83,5.76-3.04,11.66-3.84,17.14-.13,2.42.28,2.92,2.1,3.24h0ZM38.7,338.65c.26-.15.27-.42.33-.68.43-1.7.84-3.4,1.31-5.09.28-1,.87-1.55,2.04-1.55,1.88.02,3.76-.13,5.64-.23.4-.02.9.18,1.19-.37-.3-.4-.73-.28-1.1-.27-2.01.07-4.03.21-6.05.23-1.02,0-1.57.48-1.95,1.34-.93,2.11-1.26,4.34-1.43,6.61,0,0-.01,0-.02.01h0s0,.09,0,.13c-.87,3.01-2.04,5.95-2.08,9.14.72-3.04,1.84-5.99,2.08-9.14l.03-.11h0v-.04h0ZM84.06,342.53c-.22.59-.5,1.15-.71,1.79-.21.63-.35,1.32-.29,2.15.4-1.53.7-2.73,1-3.93h0ZM90.29,328.96c-1.77,0-2.79.8-3.18,2.49.78-1.06,1.65-1.8,2.95-1.79,9.32.06,18.65-.35,27.98-.04,3.3.11,6.62.12,10.17.59-1.17-.9-2.3-.91-3.4-.93-4.8-.09-9.6-.16-14.39-.2-4.6-.04-9.19-.06-13.79-.09h-2.51c-1.25-.01-2.51-.03-3.76-.04h-.07ZM42.71,329.03c-1.45-.18-2.88-.15-4.32-.04s-2.87.3-4.3.44c2.87-.14,5.74-.26,8.62-.4h0ZM42.79,329.03c2.95-.16,5.89-.29,8.83-.5,5.35-.38,10.72-.6,16.08-.95,6.67-.43,13.37-.35,20.05-.5,7.08-.16,14.17-.4,21.25-.48,2.9-.04,5.79-.07,8.7.54,2.85.59,5.8.49,8.72.44.6-.01,1.52-.07,1.53-.72,0-.78-.92-.48-1.43-.5-7.27-.3-14.53-.05-21.8-.06-5.97,0-11.93.17-17.89.25-6.69.09-13.37.22-20.04.59-7.2.4-14.41.9-21.61,1.4-.81.06-1.7-.13-2.41.49h-.04.02s.01,0,.01,0h0Z" style="fill: #fff; fill-rule: evenodd;"/>
        <path d="M220.32,372.49c.49-.05,1.28.28,1.33-.28.08-.99.7-.78,1.21-.82,2.14-.19,4.29-.35,6.43-.49.93-.06,1.3-.59,1.4-1.48.18-1.61-.26-3.04-.86-4.53-2.93-7.33-7-14.2-9-21.94-.68-2.63-2.13-4.98-2.85-7.58-.28-.98-.67-1.3-1.54-1.41-2.8-.38-5.59-.81-8.39-1.19-1.52-.21-3.04-.36-4.56-.54,0-.06.01-.12.01-.18,1.05.04-13.01-1.14-14.47-1.27-8.16-.75-16.29-1.81-24.47-2.28-7.04-.41-14.05-.9-21.08-1.4-3.34-.23-6.7-.12-10.04-.49-1.24-.15-2.51-.15-3.76-.18-.35,0-.93-.19-.92.45.01.44.16.9.85.67.49-.16.97.14,1.41.35,1.96.85,2.41,2.41,2.69,4.46,1.52,11.13,3.22,22.23,4.94,33.32.56,3.55,2.87,5.52,6.48,5.64,4.08.13,8.16.13,12.25.27,3.98.13,7.98-.17,11.92.64.34.07.72.1.95-.28h0c-.07.55-.42,1.25.3,1.53,1.06.4,2.01.98,2.97,1.54.62.36.89.14.86-.59-.02-.78-.42-1.34-.87-1.9-.48-.6.13-.91.39-1.24.35-.44.59-.14.75.26.28.7.92.45,1.41.45,6.59.02,13.18.2,19.76.49,2.67.11,2.89-.14,3.72-2.49.64-1.85.47-3.52-.18-5.32-2.26-6.17-4.42-12.38-6.61-18.58-.15-.42-.31-.85-.4-1.29-.06-.32.04-.64.4-.78.34-.15.64-.02.83.24.19.25.33.54.45.83,2.1,5.18,3.46,10.65,5.99,15.67.07.15.16.39.09.5-.39.66.02,1.23.18,1.81.77,2.67,1.39,5.4,3.24,7.82-.95.03-1.62.13-1.51,1.11.08.73.16,1.55.68,2.01,2.04,1.8,2.87,4.31,3.98,6.65.37.78.64,1.65,1.67,2.5-.54-2.42-1.22-4.39-2.12-6.28-.52-1.09-1.79-2.14-.2-3.36.08-.06.04-.34-.01-.49-.13-.43.14-.43.42-.45,3.53-.25,7.06-.52,10.58-.78.5-.04.97.06,1.38.35,0,.01-.01.04-.01.05l.04-.04h-.01c.22-.61,1.13-.52,1.24-1.33.03-.2.88-.16,1.2.18.31.32.25.78-.23,1-.24.11-.25.3-.31.49-.02,0-.04,0-.06,0l.05.04s.01-.04.01-.05h0ZM129.82,372.77c-.32-.84-.06-1.03.75-.97.85.07,1.7.07,2.55.1.32,0,.81.53.83-.31.02-.69-.35-.61-.85-.64-1.38-.08-2.79.05-4.14-.39-.34-.11-.74-.21-.81-.62-.09-.52.43-.49.71-.66,2.42-1.4,3.53-3.55,3.16-6.32-.86-6.34-1.74-12.66-2.64-19-.43-3.11-.99-6.21-1.32-9.33-.2-1.88-1.4-3.32-3.25-3.32-2.97-.01-5.92-.16-8.87-.37-.86-.06-2.01-.75-2.64.57-.02.06-.29.08-.37.02-1.19-.82-2.53-.35-3.79-.37-6.28-.07-12.56-.07-18.84-.08-1.81,0-2.39.4-3.03,2.08-.16.42-.3.85-.4,1.29-1.95,8.29-3.88,16.58-5.83,24.86-.57,2.44-.6,2.44,1.86,2.87.48.08.95.25,1.43.32,8.24,1.33,16.35,3.27,24.57,4.7,1.4.24,2.8.52,4.32.81-.6.53-1.08.3-1.54.22-4.8-.93-9.58-1.89-14.37-2.8-5.42-1.02-10.83-1.99-16.25-2.99-.83-.16-1.6-.42-1.38-1.58-.13.27-.18.54-.32.76-.66,1.07-.17,1.52.87,1.7.21.04.44.08.65.12,7.7,1.28,15.33,2.9,22.97,4.46,7.61,1.54,15.25,2.85,22.98,3.56,2.07.18,2.59.58,2.85,2.69.21,1.7.58,3.64.75,5.35.16-2.25.21-4.54-.61-6.74h.02ZM170.27,371.94h0c.42.04,1.09.34.63-.58-.21-.43.08-.45.34-.46.53,0,1.05.02,1.57.04.05.11.12.23.1.25-.45.47.14,1.53-.49,1.6-.7.07-1.53-.33-2.15-.85h0ZM114.64,368.58c2.1,0,4.2.19,6.27.47,2.08.27,4.15.63,6.21,1-4.22.11-8.37-.5-12.48-1.46h0ZM129.86,356c-.92-6.91-1.95-13.81-2.92-20.71-.02-.17,0-.35.02-.63.47.17.48.54.56.83.78,3.19,1.04,6.45,1.43,9.69.66,5.58,1.46,11.15,2.18,16.72.19,1.46.37,2.94-.89,4.08,1.14-3.4.06-6.69-.37-9.99h0ZM78.12,358.9c-.59.01-.9,1.01-.7,1.81.02.08-.04.19-.01.26.18.46-.34,1.31.3,1.37.83.07.63-.88.79-1.44.04-.13.03-.26.04-.49-.23-.47.24-1.53-.42-1.51h0ZM62.12,359.33v-.04l-.03.04h.03c.02.5.42.42.76.48,1.24.21,2.47.43,3.69.65,2.55.47,5.11.95,7.66,1.43.02-.11.04-.22.06-.32-4.06-.75-8.12-1.49-12.18-2.23h0ZM63.45,358.34c3.54.61,7.06,1.26,10.59,1.91,1.17.22,1.82-.29,2.03-1.4.21-1.14.32-2.32.51-3.48,1.19-7.25,2.75-14.42,4.77-21.49.62-2.14.27-2.65-1.76-2.61-3.4.05-6.82.18-10.23.2-1.48,0-2.15.64-2.44,2.08-.86,4.19-1.84,8.36-2.76,12.53-.75,3.38-1.51,6.77-2.27,10.16-.12,1.2.32,1.89,1.56,2.1h0ZM62.05,359.3c-1.56-.96-.85-2.42-.6-3.62,1.18-5.73,2.47-11.45,3.76-17.16.49-2.15.78-4.35,1.6-6.42.42-1.07,1.05-1.67,2.42-1.65,3.95.07,7.89-.07,11.84-.16.26,0,.73.22.78-.25.05-.48-.38-.54-.75-.57-.36-.02-.72-.01-1.08,0-3.32.06-6.63.12-9.95.19-2.43.05-3,.44-3.9,2.73-.21.54-.37,1.11-.52,1.67-1.86,6.96-3.32,14-4.58,21.1-.21,1.17-.2,2.3.02,3.46.13.65.42.81.96.69h0ZM56.76,358.11c-2.56-.46-5.12-.93-7.68-1.38-.01.08-.03.15-.04.23,2.57.5,5.14,1,7.71,1.49,0-.11,0-.22.01-.33h0ZM61.43,331.38c-2.33.11-4.65.28-6.99.33-1.2.02-1.78.53-2.01,1.69-.65,3.12-1.38,6.24-2.06,9.37-.77,3.52-1.53,7.04-2.27,10.56-.32,1.56.01,2.06,1.55,2.35,2.06.4,4.15.73,6.22,1.11,1.65.3,2.01.13,2.31-1.51.9-4.73,1.69-9.49,2.87-14.16.68-2.7,1.31-5.42,1.97-8.13.17-1.28-.5-1.65-1.59-1.6h0ZM36.89,354.5c-.01.06-.02.12-.03.18,2.04.38,4.08.77,6.12,1.15l.07-.32c-2.05-.35-4.1-.71-6.16-1.06v.06s0,0,0,0ZM44.9,352c1.24-6.22,2.72-12.4,4.12-18.58.32-1.41.06-1.67-1.41-1.58-1.74.11-3.48.28-5.23.3-1.17.01-1.66.52-1.9,1.62-.77,3.56-1.61,7.11-2.42,10.66-.53,2.27-1.07,4.56-1.55,6.84-.37,1.75-.08,2.2,1.64,2.54,1.46.29,2.9.53,4.37.78,1.29.08,1.96-.54,2.37-2.56h0ZM47.39,354.1c.73-3.38,1.47-6.77,2.23-10.14.81-3.64,1.58-7.3,2.47-10.93.47-1.89.84-2.03,2.71-2.11,2.83-.11,5.66-.28,8.65-.44-.61-.89-1.35-.58-1.96-.56-2.06.06-4.12.23-6.18.3-2.78.09-3.03.25-3.94,2.88-.13.38-.23.78-.35,1.17-1.39,4.71-2.45,9.5-3.29,14.34-.31,1.8-.49,3.62-.73,5.45.13.02.26.04.39.06h0ZM28.63,353c.84.15,1.68.3,2.51.47,2.13.44,2.42.24,2.87-1.94.69-3.26,1.41-6.51,2.12-9.77.69-3.16,1.37-6.33,2.06-9.5.23-1.07-.04-1.59-1.26-1.47-1.43.14-2.86.23-4.29.17-1.27-.05-1.92.57-2.27,1.67-1.83,5.76-3.04,11.66-3.84,17.14-.13,2.42.28,2.92,2.1,3.24h0ZM38.7,338.65c.26-.15.27-.42.33-.68.43-1.7.84-3.4,1.31-5.09.28-1,.87-1.55,2.04-1.55,1.88.02,3.76-.13,5.64-.23.4-.02.9.18,1.19-.37-.3-.4-.73-.28-1.1-.27-2.01.07-4.03.21-6.05.23-1.02,0-1.57.48-1.95,1.34-.93,2.11-1.26,4.34-1.43,6.61,0,0-.01,0-.02.01h0s0,.09,0,.13c-.87,3.01-2.04,5.95-2.08,9.14.72-3.04,1.84-5.99,2.08-9.14l.03-.11h0v-.04h0ZM84.06,342.53c-.22.59-.5,1.15-.71,1.79-.21.63-.35,1.32-.29,2.15.4-1.53.7-2.73,1-3.93h0ZM90.29,328.96c-1.77,0-2.79.8-3.18,2.49.78-1.06,1.65-1.8,2.95-1.79,9.32.06,18.65-.35,27.98-.04,3.3.11,6.62.12,10.17.59-1.17-.9-2.3-.91-3.4-.93-4.8-.09-9.6-.16-14.39-.2-4.6-.04-9.19-.06-13.79-.09h-2.51c-1.25-.01-2.51-.03-3.76-.04h-.07ZM42.71,329.03c-1.45-.18-2.88-.15-4.32-.04s-2.87.3-4.3.44c2.87-.14,5.74-.26,8.62-.4h0ZM42.79,329.03c2.95-.16,5.89-.29,8.83-.5,5.35-.38,10.72-.6,16.08-.95,6.67-.43,13.37-.35,20.05-.5,7.08-.16,14.17-.4,21.25-.48,2.9-.04,5.79-.07,8.7.54,2.85.59,5.8.49,8.72.44.6-.01,1.52-.07,1.53-.72,0-.78-.92-.48-1.43-.5-7.27-.3-14.53-.05-21.8-.06-5.97,0-11.93.17-17.89.25-6.69.09-13.37.22-20.04.59-7.2.4-14.41.9-21.61,1.4-.81.06-1.7-.13-2.41.49h-.04.02s.01,0,.01,0h0Z" style="fill: #171717; fill-rule: evenodd;"/>
        <path d="M177.92,483.68c.69,0,1.38-.01,2-.2s1.16-.55,1.54-1.29c-.97,1.03-2.33,1.1-3.55,1.49h0ZM22.34,356.33h-.04v.41c.07,4.27.08,8.46-.04,12.64-.04,1.31.54,2.16,1.88,2.56.83.25,1.88.32,2.32,1.33,2.01.49,2.01.48,2.06-1.67,0-.15-.07-.37.18-.4.27.42.47.89.81,1.23.87.88,1.83,2.02,3.17,1.38,1.27-.61,2.3-.17,3.31.26,1.26.54,2.56.78,3.86,1.07,3.18.72,3.26.85,2.88,4.15,0,.08-.08.14-.19.32-.54-.88-1.54-.59-2.27-1-1.19-.68-2.38-.66-3.55.04-.48.28-1.05.54-1.54.32-1.94-.85-4.48-.29-5.81-2.57-.23-.41-.81-.54-1.3-.63-1.06-.18-2.09-.51-3.08-.94-.34-.14-.84-.54-1.06-.04-.23.52.27.76.73.91.89.3,1.79.64,2.63,1.33-.96.1-1.71.02-2.47-.32-1.31-.59-2.01-.05-2.18,1.48-.23,2.01-.37,3.98-.01,6.03.31,1.82.15,3.74.04,5.59-.08,1.37.33,2.62.5,3.91.16,1.21.33,2.27,1.13,3.2.35.41.57.85.34,1.42-.61-.13-.85-.76-1.45-.76.8,2.54,2.48,3.96,4.86,3.96.9,0,1.21.25,1.12,1.12-.05.49.01,1,0,1.49-.04,7.06.9,13.93,3.5,20.53.58,1.48,1.61,2.17,2.99,2.62,2.83.93,5.48-.2,8.21-.62,1.69-.25,2.42-1.36,2.87-2.82.42-1.4.32-2.86.5-4.29.24-1.94.55-2.09,2.11-.97,9.49,6.82,18.97,13.64,28.45,20.45,1,.71,1.67,1.58,1.84,2.83.13.91.66,1.48,1.62,1.48,1.16,0,1.6.57,1.56,1.69-.16,4.25.47,8.44,1.11,12.63,1.09,7.06,3.29,13.72,6.95,19.86,1.53,2.56,3.99,3.95,6.65,5,.47.19.95.2,1.46.12,4.41-.8,8.82-1.61,13.24-2.37.75-.13,1.19-.49,1.6-1.08.83-1.25,1.36-2.63,1.9-4.02.4-1.05.97-1.49,2.16-1,2.37.98,4.87,1.57,7.3,2.35,10.23,3.3,20.77,4.37,31.45,4.31,4.88-.03,9.76-.31,14.65-.1.85.05,1.53.28,2.21.8.9.67,1.65,1.6,2.86,1.82-.64-.44-1.14-.99-1.6-1.58-1.11-1.41-2.4-2.11-4.29-1.68-1.17.28-2.42.22-3.62.25-13.15.33-26.18-.61-39-3.67-6.26-1.48-12.15-3.81-17.44-7.55-3.52-2.49-4.55-6.06-2.94-10.02.15-.37.32-.74.49-1.11,1.23-2.74,1.98-3.08,4.65-1.87,6.65,3.01,13.53,5.25,20.72,6.58,1.24.23,1.59-.02,1.73-1.28.49-4.34,2.84-7.26,6.93-8.79,2.64-.99,5.31-.57,7.99-.36,8.02.64,16.03.83,24.07.61,1-.04,1.74-.42,2.58-1.07,3.35-2.62,3.4-2.55,6.3-.25.04.03.07.06.1.09.42.47.95.62,1.57.56,5.35-.56,10.7-1.13,16.01-1.98.9-.14,1.05-.5.86-1.36-.53-2.38-1.28-4.69-2.07-6.99-1.85-5.35-4.18-10.47-7.71-14.94-3.64-4.62-7.78-8.72-12.4-12.35h.04c.45-.03.81-.06.23-.61-.52-.48-1.2-.81-1.56-1.46l.02-.02-.05-.04s.02.04.03.05c-.55.52.22.81.25,1.22h0l-.04-.02c-1.46-1.21-3.21-2.06-4.3-3.72-.37-.59-1.5-.49-1.49-1.53-.52.37-1.01.32-1.44-.13-.44-.47-.95-.73-1.6-.79-.01,0-.03.01-.04.03v-.04c-.82-1.02-1.95-1.63-3.02-2.33-.54-.35-1.13-.64-1.58-1.29,1.19.2,2.18.08,3.26.76,1.26.8,1.68,1.53,1.33,2.86h0s0,0,.01,0h.01c.17-.11.35-.22.51-.34,1.03-.81,2.27-.25,2.63,1.17.26-.03.58-.15.77-.04,1.86,1.05,3.89,1.92,4.73,4.15.59.06,1.02.42,1.51.71,1.28.73,2.27,1.91,3.71,2.4-.11-.17-.2-.35-.34-.48-3.3-3.05-6.63-6.06-10.44-8.49-4.53-2.89-9.1-5.72-13.75-8.42-.2-.12-.52-.16-.52-.59,1.02.17,1.75.88,2.59,1.34,6.57,3.63,12.91,7.64,18.76,12.37,6.07,4.89,11.54,10.38,16.68,16.27,2.92,3.34,4.99,7.01,6.22,11.22.88,3.02,1.9,6.01,2.41,9.14.08.47.01,1.46.76,1.31.59-.13.1-.95.03-1.44-.15-1.07-.72-2.02-.9-3.11-.69-4.25-1.78-8.38-3.78-12.21-.94-1.79-1.91-3.55-3.04-5.64,2.13,1.86,3.04,4.19,4.5,6.11-.18-1.17-.72-2.16-1.3-3.09-.46-.73-.45-1.9-.82-2.18-1.19-.91-1.85-2.19-2.75-3.28-7.31-8.78-15.91-16.03-25.51-22.19-3.43-2.2-7.2-3.72-10.56-6.04-2.67-1.84-5.79-2.87-8.71-4.25-5.4-2.54-10.71-5.28-16.05-7.93-1.02-.5-2.15-.9-2.13-2.43-.45,1.82-.04,3.55-.01,5.27-.66-1.67-.54-3.46-.86-5.18-.39.14-.83.49-1.09.38-1.51-.62-1.14.59-1.19,1.23-.06.95.06,1.89.07,2.83.01.65-.34.95-.99,1.03-.61.07-.92-.05-.98-.73-.07-.72-.74-.85-1.26-1.06-3.4-1.29-6.78-2.61-10.2-3.84-7.85-2.81-15.82-5.29-23.86-7.53-7.98-2.22-15.95-4.48-24.01-6.42-9.19-2.22-18.37-4.51-27.56-6.75-4.01-.97-8.02-1.93-12.04-2.85-2.71-.63-5.4-1.36-8.25-1.67h0ZM230.83,466.32c-1.07-.6-1.92-.32-2.87.2-2.37,1.29-4.87,2.32-7.37,3.31-11.9,4.67-24.31,7.19-36.91,8.96-1.65.23-1.74.32-1.54,2.27.35-1.07,1.02-1.42,1.94-1.55,2.49-.36,4.96-.83,7.44-1.22,12.97-2.06,25.44-5.76,37.35-11.34.81-.37,1.55-.35,2.34-.04.87.33,1.73.73,2.9.52-1.13-.61-2.32-.58-3.27-1.09h0ZM129.97,474.98c1.9.85,8.67,1.85,15.6,2.54,6.93.69,14.04,1.07,16.6.7-10.83-.08-21.54-1.24-32.2-3.24h0ZM170.9,465.42c.59,0,.97-.12,1.19-.77.59-1.65,1.38-3.24,1.9-4.91.97-3.17,1-2.6-1.89-2.54-8.58.2-17.13,0-25.66-.88-4.1-.42-7.08,1.99-7.47,6.09-.09.99.12,1.41,1.2,1.55,7.97,1,15.98,1.42,24.01,1.6,2.24-.04,4.48-.1,6.72-.12h0ZM230.76,446.11c-6.6,2.73-13.42,4.8-20.37,6.42-.47.11-.75.35-.97.81-.59,1.24-1.06,2.36-2.64,3.03-2.26.97-2.94,1.01-3.7-1.43-.18-.59-.35-.94-1.09-.81-5.47.97-11,1.63-16.54,2.12-.81.08-1.05.45-1.09,1.19-.12,1.71-.23,3.42-.48,5.11-.21,1.36.28,1.55,1.49,1.36,8.55-1.3,17.08-2.66,25.45-4.86,3.6-.94,7.26-1.63,10.73-3.04,2.31-.94,4.61-1.93,7.2-2.49-1.12-.28-.72-.83-.33-1.43,1.21-1.86,2.02-3.93,3.09-6.1-.42.05-.59.04-.74.09h.01ZM206.56,453.39c-.11-.11-.31.23-.28.48.09.64.42,1.08,1.05,1.24.62.16.71-.39.89-.77.18-.39.33-.81.56-1.37-.93-.08-1.34,1.25-2.23.42h0ZM235.86,382.46c.09,2.1-.45,4.08-.21,6.1.11.98.02,1.98.03,2.98,0,.83.55,2.8.44,3.14-.51,1.47-.57,3-.58,4.54,0,.5.41,1.42-.83,1.08-.39-.11-.35.37-.24.57,1.19,2.13.66,4.53,1.19,6.76.24,1.03.06,1.72-.61,2.49-1.05,1.22-1.62,2.79-2.73,3.98-.24.25-.31.57-.27.88.16,1.33-.18,2.6-.46,3.88-.1.46-.23.94.4,1.08.56.13.59-.31.85-.7.7-1.03.52-2.44,1.53-3.31.09-.07.2-.24.17-.32-.52-1.98,1.26-3.48,1.08-5.44-.06-.64.89-.34,1.37-.35.29,0,.9.23.35.8-.14.16-.09.25.06.43,1.77,1.94,1.14,4.15.61,6.31-.15.6-.64,1.07-1.34,1.21-.37.07-.7.2-.71.66-.02.69-.45.93-1.07.94-.75.01-1.19.54-1.61,1.03-.27.32-.13,1.15-.98.61-.18-.11-.16.28-.2.49-.09.63.08,1.38-.94,1.58-.52.1-.41.83-.35,1.31.24,1.96.85,3.75,2.37,5.09.59.52.73,1.05.69,1.77-.05.85,0,1.72-.05,2.57-.02.44.2,1.06-.64,1.05-.25,0-.23.33-.27.54-.05.22-.06.45-.09.67-.16,1.51.2,3.37-.72,4.45-.87,1-2.59,1.27-3.94,1.84-5.02,2.1-10.3,3.38-15.53,4.8-.32.08-.81.36-1.05,0-.21-.32.06-.74.2-1.07,1.58-3.49,2.73-7.14,4.16-10.69,1.72-4.28,3.33-8.62,5.18-12.84h0c-4.25,8.1-7.05,16.42-10.57,25.05-.69.02-.4-.83-.25-1.21,2.53-5.93,4.49-12.08,6.77-18.1.81-2.12,1.34-4.38,2.49-6.33,3.36-5.74,5.02-12.21,7.79-18.19M233.49,428.94c-.04.23.17.57.47.57.33,0,.35-.35.4-.6.22-.94.7-1.73,1.29-2.49.45-.58.81-1.25.92-2.16-1.22.44-1.56,2.65-3.39,1.21-.17,1.38.52,2.37.32,3.46h0ZM187.09,419.15c.64,1.6,2.1,2.41,3.25,3.54-.97-1.29-1.91-2.6-3.25-3.54l-.03-.06s-.06-.03-.08-.04c-1.02-1.27-2.23-2.35-3.59-3.25-.01-.03-.03-.06-.04-.08l-.04.04s.05.04.08.05c.83,1.5,2.07,2.53,3.59,3.25.01.02.04.04.05.06l.06.04h0ZM145.64,412.77c-1.98-.93-3.39-2.49-3.95-4.68-.06-.23-.73-1.24.53-.91.23.06.18-.25.2-.41.1-.66.2-1.33.3-2.01-.57-.36-.33.73-.89.42.09-1.15.69-2.08,1.44-2.91.36-.39.78-.75,1.24-1.03.81-.51-.05-.69-.12-1.03-.09-.44,2.52-1.38,2.62-1.02.3,1.24,1.26.69,1.87.72,1.95.11,3.68.71,5.18,1.95.25.2.51.38.61.9-.97-.31-1.55-1.22-2.89-1.36,1.48.89,2.6,1.72,3.24,2.97.41.81,1.23,1.72,0,2.59-.07.06-.13.31-.1.33,1.32.83-.12,1.64,0,2.56.77-.59,1.15-1.37,1.7-2.49-.05,1.16-.42,1.79-.83,2.42-2.15,3.35-7.3,4.32-10.16,2.99h0ZM159.88,400.45c.16-.49.53-.47.85-.24,1.38.93,2.96,1.61,4.22,2.75-1.1.83-1.93.28-2.73-.37-.59-.47-1.19-.92-1.93-1.17-.47-.16-.57-.53-.42-.97h0ZM237.26,397.1c-.39.69-.73,1.31-.87,1.94-.14.62-.08,1.23.35,1.9.45-1.15.88-2.3.53-3.83h0ZM135.51,384.96c.22,0,.47.19.67.28,2.78,1.09,5.21,2.83,7.88,4.09.47,1.62,2.15.85,3.09,1.62.92.73,2.29.83,2.8,2.13.01.04.07.06.11.07,1.46.39,2.68,1.28,3.99,1.98.73.38.8.25,1.25,1.19-1.23-.28-2.23-1.09-3.45-1.17,1.46.85,2.91,1.7,4.37,2.55h.06s-.01.01-.02.03c.79.41,1.6.81,2.38,1.23.54.29.87.81.54,1.34-.37.59-.79-.04-1.13-.2-.47-.23-.85-.73-1.34-.85-1.14-.29-.96-.83-.45-1.51.34-.46.34-.46,0,0-.52.68-.01,0-.02-.01-1.63.42-2.98-.52-4.4-1.03-1.12-.4-2.13-1.1-3.21-1.66-.28-.15-.37-.36-.27-.66-.88.25-1.55-.25-2.25-.61-.84-.42-1.67-.84-2.5-1.28-.29-.15-.78-.23-.59-.72.15-.35.52-.28.83-.22,1.77.31,3.07,1.54,4.61,2.33.2.11.07.41-.08.59,1.31-.4,2.3.78,3.53.75-3.62-2.47-7.55-4.31-11.47-6.2-1.65-.8-3.19-1.83-4.77-2.78-.35-.2-.73-.57-.53-.99.09-.19.21-.26.35-.26h.01ZM27.99,385.96c-.26.11-.55.31-.33.6,1.13,1.5-.45,1.62-1.09,1.8-1.36.37-1.78,1.16-1.76,2.43.02.97.28,1.99-.59,2.95-.11-3.51-.23-6.91-.32-10.31-.01-.4-.01-.93.47-1.01.54-.08,1.29-.38,1.64.05.61.76,1.46,1.17,2.1,1.84.5.51,1.02,1.17-.12,1.65h0ZM138.21,388.57h.02s.08,0,.12.02c.89.28,1.92.44,2.04,1.65.02,0,.04-.01.06-.02v.02h0v.03c.29-.46.67-.52,1.12-.16.34.28.76.59.36,1.07-.38.44-.7-.04-1.01-.2-.28-.14-.38-.42-.47-.71-.02.03-.04.04-.06.08l-.02-.1c-1.07.44-1.77-.4-2.59-.81-.09-.04-.13-.33-.09-.47.06-.25.28-.38.5-.39h.01ZM123.59,380.97c-1.36-.28-2.77-.13-4.1-.61-4.39-1.56-8.8-3.1-13.22-4.57-1.81-.6-3.69-1.02-5.53-1.52-.04.11-.06.23-.09.35,9.74,2.81,19.26,6.22,28.7,10.26-.02-.89-.53-.95-.93-1.11-1.2-.49-2.42-.97-3.63-1.43-.65-.25-1.24-.53-1.19-1.37h0ZM43.6,375.2c.39-.25.48.1.57.3.42.88,1.16,1.21,2.06,1.29,1.82.16,3.65.28,5.47.48.45.05,1.41-.51,1.13.9-.1.51,1.02,1.09,2.24,1.09-1.19.66-1.74,1.03-3,.59-2.05-.7-4.38-.97-6.6-.53-1.09.22-1.89.98-1.88,2.3,0,.71-.1,1.43-.28,2.14.1-2.85.2-5.71.28-8.56h0ZM123.63,380.94c1.88.25,3.55,1.35,5.5,1.39-1.48-.54-2.83-1.3-4.2-2.01-.89-.47-1.55-1.42-2.66-1.46-1.11-.05-2.08-.53-3.07-.93-1.79-.71-3.55-1.52-5.39-2.1-1.88-.6-3.6-1.69-5.5-2.09-1.84-.39-3.67-.81-5.49-1.27-8.26-2.08-16.5-4.21-24.75-6.31-.52-.13-1.05-.26-1.38.56,4.57,1.2,9.05,2.47,13.57,3.55,7.2,1.72,14.28,3.88,21.34,6.07,4.09,1.27,8.19,2.57,11.99,4.62h0s.05.02.05.02l-.05-.03v-.02h.05ZM56.08,376.87c.4-.54.78.1,1.07.33,1.26,1.04,2.87,1.34,4.36,1.91-.89,1.83-1.92.71-2.92.4.11-.46.5-.13.73-.43-.83-.51-1.63-1-2.44-1.5,1.26,1.32.28,2.63-.01,3.94.02-.49,0-.99.06-1.48.1-.68,0-1.21-.67-1.57-.78-.43-.51-1.17-.18-1.62h0ZM29.29,379.94c-1.55-.27-2.99.22-4.44.61-.37.09-.76.22-.92-.22-.27-.77-.37-1.6.08-2.32.26-.43.72-.23,1.08-.02.91.52,1.77,1.18,2.89,1.12.28-.01.67-.03.76-.37.03-.09-.37-.29-.8-.6.72-.1,1.07-.22,1.41-.18.73.07.91.65.94,1.26.04.71-.5.82-1,.73h0ZM28.75,374.64c.16.65.87.64,1.4.81.4.13.8,0,.73-.46-.13-.95-1.02-.3-1.38-.61-.4-.14-.84-.13-.75.26h0ZM26.51,373.33c-.61.04-1.09-.34-1.65-.49-.32-.08-.73-.4-.89.12-.12.37.12.82.49.84,1.12.06,2,.73,2.99,1.09.24.08.52.25.68-.11.12-.29-.02-.53-.28-.68-.47-.28-.93-.54-1.39-.81l.04.04h0ZM95.42,372.84c-1.48-.59-2.97-1.09-4.49-1.51s-3.06-.76-4.61-1.02c2.99,1.02,5.97,2.06,9.1,2.54h0ZM57.69,362c.73.62,1.7.63,2.57.83,4.61,1.09,9.23,2.14,13.86,3.18.33.07.93.33,1.03-.22.1-.57-.56-.46-.89-.54-4.05-.92-8.12-1.81-12.18-2.71-1.43-.31-2.85-.64-4.27-.96-.04.13-.08.28-.12.42h0ZM44.57,359.29c3.86.61,7.6,1.7,11.4,2.53.34.08.9.45,1.03-.09.13-.57-.56-.45-.89-.53-3.76-.85-7.52-1.67-11.29-2.49-.28-.06-.61-.24-.92.3.27.12.46.25.66.29h0ZM31.88,355.56c-2.73-.76-5.54-1.17-8.33-1.67-.45-.08-.98-.06-1.56.85,7.18,1.5,14.16,3.04,21.23,4.15-1.16-.83-2.2-1.7-3.68-1.88-1.6-.18-3.18-.61-4.76-.94-.01.06-.03.11-.04.18.32.13.64.27.96.41-1.4-.03-2.56-.75-3.81-1.09h0Z" style="fill: #e61d27; fill-rule: evenodd;"/>
        <path d="M146.85,475.45c-3.24-.72-6.6-.86-9.81-1.86,4.99.51,9.99,1.03,15,1.38,5.96.41,11.92.19,17.88.1.36,0,.72,0,1.08.04.73.04,1.48.3,1.46,1.08-.01.83.05,1.86-1.08,2.25-.91.31-1.86.31-2.8.36-10.2.4-20.36-.1-30.44-1.69-4.74-.75-9.48-1.51-14.06-2.98-2.87-.92-5.75-1.88-8.43-3.31-.54-.3-1.09-.64-1.57-1.04-.44-.37-1.05-.9-.64-1.46.44-.6,1.39-.56,1.83-.08,2.06,2.26,4.96,2.59,7.61,3.37,7.34,2.19,14.88,3.22,22.5,3.79.49.04.99.04,1.47.06h0Z" style="fill: #e61d27;"/>
        <path d="M165.92,425.01h.01c-.81-1.97-2.63-3.31-4.29-2.95-1.01.21-1.74-.04-2.7-.83,6.24-1.41,11.07.25,14.71,5.35-.46-1.62-1.53-2.73-2.75-3.71-3.43-2.77-7.4-3.16-11.58-2.66,3.45-1.2,6.72-.25,10.11.89-.37-.6-.8-.83-1.22-1.05-3.1-1.58-6.41-1.6-9.72-1.12-.66.1-1-.08-1.44-.35-.23-.15-.42-.54-.64-.55h0c-.13,0-.26.13-.42.48-.24.54-1.33.28-1.3.88.06,1.38-.94,1.77-1.82,2.16-1.82.8-3.88,4.03-3.72,6.1.81-.37.73-1.58,1.82-1.84-.73,1.47-1.5,2.81-2.56,3.94-.25.28-.49.47-.52.85-.37,3.4.64,6.44,2.73,9.01,2.22,2.7,5.4,3.75,8.76,4.22,7.57,1.06,15.21-2.62,16.06-11.53.11-1.2.07-1.62.06-1.65-.03-.2-.09-.23-.12-1.02,0-.3-.17-.52-.52-.47-.35.07-.37.35-.36.63.01.49.07.99.06,1.48-.07,2.02-.64,3.85-1.98,5.38.85-1.57,1.06-3.29,1.19-5.05-.59.64-1.47,1-1.54,1.98,0,.1-.27.24-.43.27-.97.16-1.11.9-1,1.62.15,1.02-.35,1.43-1.18,1.79-1.85.81-3.69,1.67-5.5,2.59-2.17,1.09-4.39,1.2-6.66,1.14-1.46-.04-2.6-1.29-2.54-2.46.2.26.48.33.85.32.33-.02.96.19.96.3,0,1.02.61.52,1.05.49,2.12-.12,4.04-.9,5.64-2.2,2.23-1.79,3.69-4.01,3.54-7.13-.08-1.83-.24-3.59-.99-5.26l-.04-.08h-.02s-.01.01-.01.01c-.93.25-1.67.59-1.85,1.75-.15,1.04-.95.42-1.49.35-.42-.05-1,.18-1.17-.34-.16-.48.35-.8.63-1.12,1.12-1.37,1.67-1.44,3.88-.65h-.01Z" style="fill: #171717;"/>
        <path d="M158.93,442.31c-6.18-.78-10.21-7.08-8.29-13.03.78-2.4,2.29-4.22,4.39-5.61.45-.3,1.37-.69.83-1.41-.52-.69-1.14.08-1.6.41-1.11.8-1.53,2.15-2.47,3.14-1.31,1.38-2.13,3.26-2.5,4.98-.36,1.66-.1,3.65.68,5.41,1.97,4.43,6.46,6.99,11.9,6.49-1.2-.16-2.08-.28-2.96-.4h0Z" style="fill: #e61d27; fill-rule: evenodd;"/>
        <path d="M154.89,438.41s-.06-.01-.08-.04c1.26-.56.19-1.31-.06-1.62-.54-.66-.47-1.31-.45-2.01,0-.26.02-.57.39-.59.23-.01.43.07.57.29.23.38.51.73.73,1.12.45.76,1.12.59,1.77.44.26-.05.49-.55.33-.57-.9-.09-.65-.96-1.05-1.38-1.27-1.35-1.02-2.61.66-3.16.75-.25.84-1.09.58-1.19-1.38-.53-.4-1.72-.88-2.53-.06.62-.13,1.2-.19,1.8-.42-.21.05-.71-.37-.93-.07.3-.13.6-.19.92-.36-.25-.06-.64-.28-.88-.34.12.13.7-.4.72-.14-1.1-.28-2.2-.42-3.36-3.86,3.95-3.34,8.7-1.74,12.21.2.45.5.83,1.08.78" style="fill: #e61d27;"/>
        <path d="M160.22,437.72c.13-.21-.05-.49-.28-.52-.82-.1-1.13.59-1.57,1.14.63-.22,1.41.08,1.84-.62h0Z" style="fill: #e61d27; fill-rule: evenodd;"/>
        <path d="M239.24,453.8h0c-1.4,1.22-1.27,2.81-1.34,4.32-.02.52-.21,1.49.47,1.72.72.24,1.13-.54,1.53-1.09,1.84-2.49,3.25-5.04,1.1-8.12-.31.46.06,1.06-.45,1.59-.02-.57-.03-1-.05-1.43-.25,1.14-.48,2.32-1.26,3" style="fill: #e61d27; fill-rule: evenodd;"/>
        <path d="M101.03,465.82c-.33,1.54-.97,2.97-1.71,4.37-1.12,2.13-4.53,2.91-6.73,1-1.73-1.5-3.18-3.24-3.62-5.3-.47-2.19-1.12-4.34-1.53-6.54-.68-3.61-.95-7.24-.97-10.55.16-3.05.42-5.74,1.38-8.31.09-.25.18-.51.29-.76,1.76-4.17,4.94-4.73,7.83-1.27,2.78,3.33,4.08,7.35,4.91,11.55,1.05,5.27,1.31,10.55.17,15.83h0Z" style="fill: #171717;"/>
        <path d="M92.58,438.5c-.93.53-1.44,1.85-1.67,2.44-.68,1.7-.59,3.45-.4,3.49.1.01.14-.49.58-1.22.2-.35.82-1,2.01-1.36.11-.04,1.26-.74,1.52-.33.28.42-1.02.75-1.75,2.23-.52,1.07-.33,2.5-.45,3.24.21-.42.63-1.08,1.38-1.57.62-.4,1.65-.78,1.91-.47.2.23-.09.78-.23,1.05-.6,1.14-1.55,1.72-1.91,1.98-2.25,1.57-3.07,5.62-2.97,5.64.72.16.88-2.27,2.33-3.14.79-.48,1.55-.53,2.49-.58,2.01-.11,3.55-.2,4.34.87.93,1.28.39,3.65-.9,4.39-.22.13-.78.39-2.92-.14-3.07-.76-4.87-2.06-5.26-1.66-.59.59,1.75,4.22,1.96,4.51,1.27,1.73,2.98,2.37,3.29,2.61,1.45,1.12,2.35,1.94,3.76,2.09,1.02.12,1.62.57,1.74.07.56-2.3.42-12.76-3.14-20.22-1.78-3.72-3.32-5.3-5.71-3.93h0Z" style="fill: #171717;"/>
        <path d="M93.62,437.28c-1.44.39-2.25,1.48-2.49,1.8-1.9,2.58-.4,6.21-.29,6.46-.74,1.93-.74,3.31-.58,4.25.04.24.07.31.18.87.36,1.94-.1,2.44.19,3.29.53,1.56,1.28,2.87,1.91,3.74.36.49,1.02,1.14,1.89,1.86.25.2.85.48,2.54,1.77,1.02.78,1.64.97,1.98,1.1.33.13,2.27.58,2.46.4.71-.67.37-7.83-.2-11.73-.88-6-3.79-11.91-5.98-13.5-1.15-.83-1.62-.31-1.62-.31h0Z" style="fill: #171717; fill-rule: evenodd;"/>
        <path d="M97.46,451.21c1.36,1.04,1.58,2.29,1.84,3.5.06.26-.02.51-.44.45-1.94-.28-3.92-.37-5.79-.95-1.79-.55-3.73-3.29-3.31-5.4.18-.9.39-1.79.54-2.73-.17.18-.34.37-.65.7.2-.88.57-1.47.95-2.05,1.39-2.11,1.89-2.45,3.11-2.23-2.03,1.89-1.82,4.75-2.99,7.02.95-.64,1.39-1.62,2.01-2.47.25-.35.52-.97,1-.7.6.34.01.88-.18,1.12-.96,1.19-1.38,2.58-1.73,4.02-.08.34-.46.78-.09.95.38.17,1.22.3,1.3.2,1.05-1.29,2.25-.51,3.39-.32.7.12,1.41.35,1.09-1.1h-.01Z" style="fill: #fff;"/>
        <path d="M36.42,419.49c-.25.81-.4,1.77-1.43,1.92-1.11.18-1.53-.75-1.99-1.51-.82-1.38-1.14-2.93-1.41-4.49-.18-1.02-.3-2.03-.8-2.97-.4-.77-.46-1.68-.38-2.51.27-2.96.61-5.91,1-8.84.09-.7.34-1.41.87-1.95.6-.61,1.14-.37,1.62.15.5.54.38.95-.32,1.2-.2.07-.45.2-.35.48.1.26.35.28.57.19,1.02-.45,1.22.23,1.41.98,1.08,4.11,1.62,8.29,1.67,12.53,0,1.63,0,3.26-.48,4.83h0Z" style="fill: #171717;"/>
        <path d="M33.43,408.61c1.8-.48,2.48-.25,2.91.88.1.26.19.55.03.78-.17.23-.4,0-.61-.05-1.04-.21-2.06-.54-3.16-.52-.73.01-1.69-1.74-1.38-2.88.43-1.55,1.14-3.01,2.13-4.3.11-.13.36-.16.66-.29-.96,1.72-1.8,3.31-2.47,5.37,1.38-.97,1.65-2.51,3.04-3.07-1.13,1.19-.14,2.85-1.16,4.08h0Z" style="fill: #fff;"/>
        <path d="M33.59,401.33c-.15.22-.16.39-.27.83-.08.34-.18.67-.27,1.01-.11.46-.2.53-.95,2.15,0,0-.16.33-.67,2.06-.04.11-.11.38-.02.45.11.07.37-.15.48-.23.82-.68.85-1.48,1.56-1.8.2-.09.27-.06.29-.04.16.12-.03.66-.32,1.49-.11.3-.26.7-.31,1.26-.02.28,0,.45.1.52.15.11.35-.04.71-.11.07-.01.66-.13,1.21.08.13.05.61.25.85.72.19.37.08.67.31.81.18.11.34.16.41.04.16-.25-.25-2.71-.95-6.27-.16-.82-.55-2.88-.97-3.15-.11-.06-.18-.18-.57-.13s-.54.23-.61.32h0Z" style="fill: #171717;"/>
        <path d="M78.09,438.16h0c-.3.2-.52-.06-.68-.23-1.54-1.61-3.45-2.73-5.25-4-5.32-3.75-10.67-7.47-15.91-11.34-4.08-3.02-8.24-5.93-12.38-8.87-1.28-.9-2.61-1.73-3.93-2.58-.41-.27-1.04-.49-.59-1.09.4-.54.71.18.93.34,5.65,4.08,11.35,8.07,17.01,12.11,5.29,3.8,10.55,7.64,15.98,11.22,1.5.98,2.89,2.13,4.32,3.21.29.22.56.47.59.96,0,.03,0,.2-.09.26" style="fill: #171717; fill-rule: evenodd;"/>
      </g>
    </g>
    <g id="TEXT">
      <g>
        <path d="M755.45,459.8l-24.94-64.74v64.74h-22.74v-123.59h24.47l25.02,64.82v-64.82h22.66v123.44l.08.16h-24.55Z" style="fill: #fff;"/>
        <path d="M673.47,459.8l-5.51-27.53h-23.92l-5.51,27.53h-23.29l24.7-123.59h32.1l24.7,123.59h-23.29.01ZM663.4,409.45l-7.4-36.98-7.4,36.98h14.79,0Z" style="fill: #fff;"/>
        <path d="M589.06,407.49c3.41-15.26,6.1-27.35,8.07-36.27,1.96-8.91,4.58-20.58,7.83-35.01h23.37l-27.53,123.59h-23.44l-27.61-123.59h23.44c3.2,14.47,5.79,26.16,7.75,35.05,1.96,8.89,4.68,20.96,8.14,36.23h0Z" style="fill: #fff;"/>
        <path d="M518.07,359.11v77.8c0,6.14-2.33,11.49-7,16.05s-9.99,6.84-15.97,6.84h-47.99v-123.59h47.91c6.03,0,11.38,2.3,16.05,6.89s7,9.92,7,16.01h0ZM495.25,436.99v-77.96h-25.25v77.97h25.25Z" style="fill: #fff;"/>
        <path d="M436.09,459.8h-59.55v-123.59h59.08v22.82h-36.27v27.53h31.23v22.89h-31.23v27.53h36.74v22.82h0Z" style="fill: #fff;"/>
        <path d="M341.06,459.8l-19.43-50.35h-6.77v50.35h-22.89v-123.59h45.86c6.03,0,11.38,2.3,16.05,6.89s7,9.92,7,16.01v27.38c0,4.82-1.5,9.2-4.49,13.14s-6.66,6.72-11.01,8.34l20.14,51.85h-24.47,0ZM337.99,386.56v-27.53h-23.13v27.53h23.13Z" style="fill: #fff;"/>
      </g>
    </g>
  </g>
</svg>