<?xml version="1.0" encoding="UTF-8"?>
<svg id="Layer_1" data-name="Layer 1" xmlns="http://www.w3.org/2000/svg" viewBox="0 0 800 800">
  <path d="M436.34,325.6c19.45-8.54,29.72-24.28,29.72-47.26,0-34.13-22.94-55.56-64.02-55.56h-37.14v148.75h23.16v-38.28h13.98c4.15,0,8.31-.44,12.46-.87l26.65,39.15h26.66l-31.47-45.93ZM401.17,313.35h-13.11v-70.23h13.11c29.06,0,41.29,12.91,41.29,35.22s-11.8,35.01-41.29,35.01ZM497.95,222.79v148.75h22.95v-148.75h-22.95ZM546.45,222.78v20.34h44.13v128.42h22.95v-128.42h44.13v-20.34h-111.21ZM705.71,351.19v-30.4h63.15v-19.91h-63.15v-57.75h71.23v-20.34h-94.37v148.75h97.43v-20.35h-74.29Z" style="fill: #fff;"/>
  <path d="M309.44,222.72H20.35c-.06,25-.31,152.1-.35,209.66-.01,12.4,2.56,24.71,7.98,35.88,20.3,41.75,68.76,85.96,136.89,109.02h.02c68.14-23.06,116.61-67.27,136.9-109.02,5.44-11.17,8.01-23.48,8-35.88-.05-57.54-.29-184.65-.35-209.66ZM163.07,314.25s5.61,24.02-8.21,37.85c-13.97,13.98-37.59,8.02-37.59,8.02,0,0-5.96-23.66,8.01-37.64,13.81-13.84,37.79-8.23,37.79-8.23ZM107.25,250.9s20.92,12.51,20.92,32.29-20.92,32.58-20.92,32.58c0,0-20.92-13.01-20.92-32.58s20.92-32.29,20.92-32.29ZM51.42,314.26s23.98-5.61,37.8,8.23c13.97,13.97,8.01,37.64,8.01,37.64,0,0-23.62,5.97-37.59-8.02-13.82-13.83-8.22-37.85-8.22-37.85ZM196.31,528.51h-62.81c-9.89-5.46-18.86-11.35-26.96-17.46h116.73c-8.1,6.1-17.08,11.99-26.96,17.46ZM272.95,454.2c-6.5,13.37-17.77,28.8-33.96,43.74H90.8c-16.19-14.94-27.46-30.37-33.96-43.74-3.12-6.41-4.77-13.95-4.76-21.8.01-12.13.03-27.33.05-43.94h225.52c.02,16.56.05,31.73.06,43.94,0,7.85-1.65,15.39-4.76,21.8ZM249.11,331.83c-2.92,3.48-11.58,19.51-20.68,35.33h-58.04c10.21-13.34,53.32-45.83,58.64-52.19,5.89-7.03,12.47-33.41,19.29-33.67,3.45-.14,11.01,4.97,17.62,10.04,6.13,5.64,12.46,12.21,12.94,15.64.93,6.77-23.88,17.82-29.77,24.85Z" style="fill: #fff;"/>
  <path d="M415.54,401.33h-2.62l-63.58,150.29h22.28l8.53-21h67.94l8.52,21h24.03l-65.1-150.29ZM388.01,511.15l18.57-46.38c3.71-8.75,7.21-22.1,7.21-22.1,0,0,3.71,13.34,7.43,22.1l18.58,46.38h-51.79ZM596.67,402.86h-40.86v148.76h40.86c47.86,0,79.31-29.76,79.31-74.39s-31.69-74.37-79.31-74.37ZM595.14,531.27h-16.17v-108.07h16.17c38.67,0,56.8,22.31,56.8,54.03s-18.13,54.04-56.8,54.04Z" style="fill: #fff;"/>
  <path d="M520.9,402.86h-22.94v148.76h22.94v-148.76Z" style="fill: #fff;"/>
  <path d="M254.51,541.03h-3.87v-1.78h9.72v1.78h-3.87v11.23h-2v-11.23h.01Z" style="fill: #fff;"/>
  <path d="M262.36,539.11h.21l6.21,7.27,6.16-7.27h.21v13.14h-1.93v-6.75c0-.73.07-1.87.07-1.87,0,0-.63.98-1.16,1.56l-3.27,3.94h-.23l-3.27-3.94c-.49-.6-1.15-1.56-1.15-1.56,0,0,.07,1.15.07,1.87v6.75h-1.93v-13.14h.02Z" style="fill: #fff;"/>
</svg>