<?xml version="1.0" encoding="UTF-8"?>
<svg id="Layer_1" data-name="Layer 1" xmlns="http://www.w3.org/2000/svg" viewBox="0 0 800 800">
  <path id="path7420" d="M669.64,328.08c-7.55,0-18.92,6.31-18.92,14.66,0,6.99,4.9,10.57,11.93,10.57,8.79,0,22.67-3.75,22.67-14.49,0-8.86-8.12-10.74-15.68-10.74ZM235.07,334.3c-.94-.21-1.02.77-1.02.77-5.53,12.32-17.34,21.11-30.5,24.88,0,0-.6.12-.6.85v7.84c0,1.15.6.85.6.85h7.41c.84,0,.6.68.6.68v49.76c0,14.82,6.17,22.5,22.15,22.5,14.26,0,15.31-.35,26.59-8.44,0,0,.72-.25.34-1.11-.31-.69-3.24-7.58-3.49-8.44-.31-1.04-1.02-.43-1.02-.43-2.06,1.05-2.54,1.02-5.2,1.02s-7.16-1.02-7.16-6.31v-48.57s-.17-.68.77-.68h11.33s.73.36.94-.68c.25-1.27,2.39-11.84,2.39-11.84,0,0,.32-.77-.51-.77h-14.32s-.6.26-.6-.68v-6.14c0-3.66.22-8.47,1.02-12.53,0,0,.45-.64-.6-.85-1.45-.29-8.18-1.5-9.12-1.7ZM427.3,340.52c-9.49,0-12.63,2.56-14.74,8.86,0,0-1.43,4.14-1.87,5.62-.31,1.05-1.02.77-1.02.77-4.69-.73-9.74-2.13-18.58-2.13-19.15,0-39.2,10.57-39.2,35.11,0,17.39,14.3,27.41,28.97,29.99,0,0,2.32.35,0,1.02-4.35,1.26-13.47,6.68-23.86,8.35,0,0-1.03.11-.51,1.36.26.61,3.14,7.85,3.58,9.03.31.84,1.36.68,1.36.68,4.85-.99,18.8.28,21.3.6,2.18.28,0,.6,0,.6-7.33,1.25-15.85,6.55-15.85,14.49,0,13.8,15.81,17.04,31.27,17.04,10.54,0,35.96-4.43,35.96-23.01s-28.76-22.25-42.86-23.6c-2.4-.23,0-.68,0-.68,21.03-5.2,45.67-10.76,45.67-37.24,0-19.94-16.53-25.22-16.53-28.63,0-1.87,1.13-3.63,3.24-3.75,3.65-.21,3.81.11,5.62,1.19,0,0,.54.91.85-.34.19-.74,3.32-13.11,3.49-14.06.21-1.15-.77-.85-.77-.85-1.84-.18-3.74-.43-5.54-.43h0ZM138.1,349.73c-.37.11-.43.6-.43.6,0,0-10.15,24.95-10.57,25.99-.42,1.04.34,1.11.34,1.11,0,0,8.43,2.99,9.37,3.41.94.42,1.28-.26,1.28-.26,4.59-5.65,9.21-9.2,19.09-9.2,7.73,0,11.59,2.9,11.59,9.88v2.64c0,.94-.34,1.02-.34,1.02l-23.77.6c-15.63,0-28.29,11.25-28.29,31.02,0,15.85,11.96,25.9,27.95,25.9,9.45,0,16.92-4.07,23.77-9.54,0,0,1.13-1.78,1.45,0s.98,4.06,1.45,6.05c.25,1.03.94.94.94.94h33.32s1.28.42,1.28-.94v-8.35s.25-.94-1.11-.94h-3.83c-.84,0-.68-1.53-.68-1.53v-46.18c0-20.11-12.96-28.29-32.64-28.29-6.95,0-13.64.96-20.19,3.49,0,0-1.43.88-.6-1.11.4-.95.77-2.05.77-2.05,0,0,.45-.94-.6-1.36-1.15-.42-7.79-2.43-9.03-2.9-.21-.08-.39-.04-.51,0h0ZM283.04,349.73c-.37.11-.43.6-.43.6,0,0-10.15,24.95-10.57,25.99-.42,1.05.34,1.11.34,1.11,0,0,8.43,2.99,9.37,3.41.94.42,1.28-.26,1.28-.26,4.59-5.65,9.12-9.2,19-9.2,7.73,0,11.59,2.9,11.59,9.88v2.64c0,.94-.26,1.02-.26,1.02l-23.77.6c-15.64,0-28.29,11.25-28.29,31.02,0,15.85,11.96,25.9,27.95,25.9,9.45,0,16.83-4.07,23.69-9.54,0,0,1.22-1.78,1.53,0,.31,1.77.97,4.06,1.45,6.05.24,1.04.94.94.94.94h33.23s1.36.42,1.36-.94v-8.35s.25-.94-1.11-.94h-3.83c-.83,0-.68-1.53-.68-1.53v-46.18c0-20.11-13.04-28.29-32.72-28.29-6.95,0-13.55.96-20.11,3.49,0,0-1.43.88-.6-1.11.4-.95.68-2.13.68-2.13,0,0,.45-.86-.6-1.28-1.15-.42-7.71-2.43-8.95-2.9-.21-.08-.39-.04-.51,0h0ZM711.56,349.73c-.37.11-.43.6-.43.6,0,0-10.15,24.95-10.57,25.99-.42,1.05.34,1.11.34,1.11,0,0,8.43,2.99,9.37,3.41.94.42,1.28-.26,1.28-.26,4.59-5.65,9.12-9.2,19-9.2,7.73,0,11.59,2.9,11.59,9.88v2.64c0,.94-.26,1.02-.26,1.02l-23.77.6c-15.64,0-28.29,11.25-28.29,31.02,0,15.85,11.96,25.9,27.95,25.9,9.45,0,16.83-4.07,23.69-9.54,0,0,1.22-1.78,1.53,0,.31,1.77.97,4.06,1.45,6.05.24,1.04.94.94.94.94h33.23s1.36.42,1.36-.94v-8.35s.25-.94-1.11-.94h-3.83c-.83,0-.68-1.53-.68-1.53v-46.18c0-20.11-13.04-28.29-32.72-28.29-6.95,0-13.56.96-20.11,3.49,0,0-1.44.88-.6-1.11.4-.95.68-2.13.68-2.13,0,0,.45-.86-.6-1.28-1.15-.42-7.71-2.43-8.95-2.9-.21-.08-.39-.04-.51,0h0ZM489.93,353.65c-27.93,0-49.51,16.87-49.51,44.31s21.57,44.48,49.51,44.48,49.76-16.87,49.76-44.48-21.65-44.31-49.76-44.31ZM607.86,353.65c-11.74,0-20.55,6.52-29.23,13.12,0,0-.85,1.19-.85-.17v-12.27c0-.94-.85-.43-.85-.43l-37.07,9.8s-.77,0-.77.94v8.52c0,.94.85.51.85.51,0,0,3.26-.77,4.52-1.19,1.25-.42.85.6.85.6v55.81s.24.77-.6.77h-5.03s-.6-.28-.6.77v8.61c0,1.15.6.85.6.85h43.97s.6.14.6-.6v-8.86c0-1.04-.85-.77-.85-.77h-5.28c-.84,0-.68-.6-.68-.6v-47.21c0-.84.6-1.28.6-1.28,4.01-3.37,8.13-6.48,13.8-6.48,4.74,0,9.29,2.56,9.29,7.5v47.46s.24.6-.6.6h-5.11s-.94-.07-.94.77v8.86c0,.73.77.6.77.6h43.2s.85.3.85-.85v-8.61c0-.94-.77-.77-.77-.77h-4.6c-.73,0-.6-.85-.6-.85v-50.96c0-9.38-3.16-24.2-25.48-24.2ZM80.41,353.73c-7.79,0-13.72,3.17-21.22,7.67,0,0-.85.41-.85-.43v-6.39c0-.94-.85-.68-.85-.68l-36.73,9.46s-.77,0-.77.94v8.52c0,1.15.85.77.85.77l4.26-1.02s1.02-.47,1.02.68v81.72s.04,1.19-1.11,1.19h-4s-1.02-.15-1.02,1.11v8.01c0,1.15,1.36,1.11,1.36,1.11h47.46s.94-.36.94-1.19v-7.92c0-1.15-1.02-1.11-1.02-1.11h-9.37c-1.05,0-1.02-1.45-1.02-1.45v-14.74c0-.84.68-.51.68-.51,4.71,2.4,11.36,3.07,16.36,3.07,26,0,41.07-24.03,41.07-48.06s-15.84-40.73-36.04-40.73ZM683.44,353.82c-.21-.02-.43.09-.43.09l-36.9,10.14s-.68.03-.68.77v8.27c0,1.15,1.02.68,1.02.68,0,0,2.42-.52,4.52-.85,1.05-.17.77.8.77,1.53v54.36s.28.85-.77.85h-5.2s-.68-.3-.68.85v8.69c0,1.04.68.68.68.68h43.2c1.04,0,.68-.85.68-.85,0,0-.03-7.17,0-8.52.03-1.15-.77-.85-.77-.85h-4.26c-1.04,0-.77-.77-.77-.77v-74.39c0-.52-.22-.66-.43-.68h0ZM389.72,364.38c13.18,0,18.58,25.73,18.58,34.94,0,8.18-2.62,11.42-9.12,11.42-13.18,0-18.66-25.73-18.66-34.94,0-8.18,2.7-11.42,9.2-11.42ZM484.48,366.6c17.75,0,23.09,31.36,23.09,43.63,0,9.2-2.53,19.26-12.01,19.26-17.74,0-23.01-31.36-23.01-43.63,0-6.31-.03-19.26,11.93-19.26ZM63.37,371.8c5.45,0,20.96,1.54,20.96,32.21,0,19.09-4.63,25.56-15.17,25.56-8.43,0-10.82-6.31-10.82-13.8v-41.84c0-1.15.94-1.45.94-1.45l4.09-.68ZM163.66,395.74h4.26c1.04,0,.85.68.85.68v15.68c0,6.48-1.63,12.44-9.71,12.44-8.61,0-10.48-7.5-10.48-14.14,0-8.69,6.3-14.66,15.08-14.66ZM308.6,395.74h4.26c1.04,0,.77.68.77.68v15.68c0,6.48-1.55,12.44-9.63,12.44-8.61,0-10.57-7.5-10.57-14.14,0-8.69,6.38-14.66,15.17-14.66ZM737.12,395.74h4.26c1.04,0,.77.68.77.68v15.68c0,6.48-1.54,12.44-9.63,12.44-8.61,0-10.57-7.5-10.57-14.14,0-8.69,6.38-14.66,15.17-14.66ZM395.18,443.63c.21,0,.34.09.34.09,5.79,3.52,9.97,6.18,9.97,13.72,0,4.26-2.25,6.31-6.65,6.31-4.92,0-7.24-4.6-7.24-8.86,0-3.76,1.35-9.39,2.64-10.74.39-.41.73-.51.94-.51h0Z" style="fill: #fff;"/>
</svg>