<?xml version="1.0" encoding="UTF-8"?>
<svg id="Layer_2" data-name="Layer 2" xmlns="http://www.w3.org/2000/svg" viewBox="0 0 1075.95 243.08">
  <defs>
    <style>
      .cls-1, .cls-2, .cls-3 {
        fill-rule: evenodd;
      }

      .cls-1, .cls-2, .cls-3, .cls-4, .cls-5, .cls-6 {
        stroke-width: 0px;
      }

      .cls-1, .cls-4 {
        fill: #171717;
      }

      .cls-2, .cls-6 {
        fill: #fff;
      }

      .cls-3, .cls-5 {
        fill: #e61d27;
      }
    </style>
  </defs>
  <g id="RED_VAN_SINGLE_LINE_LOGO" data-name="RED VAN SINGLE LINE LOGO">
    <g id="VAN">
      <g id="Layer_49" data-name="Layer 49">
        <path class="cls-1" d="m315.54,203.64c-.62,1.13-1.35,2.22-2.16,3.31-.5.69-1.37,1.33-1.97,1.91l.25,2.24c-.14.82-.39,1.59-.74,2.29-1.01,3.5-2.18,4.02-3.82,5.35-2.27,1.85-6.37.19-8.5.08-.44-.02-1.69.51-3.38,1.15-16.16,6.15-35.58,12.66-54.13,15.59,0,0-2.19.4-2.19.4-2.8.44-3.28.75-6.03,1.19l-.07.12c-1.74,3.22-2.19,4.35-4.94,5.18-1.38.41-2.89.56-4.52.61h-.48s0,.01,0,.01h0s0,0,0,0v-.02s0,0,0,0v.02c-1.43.05-2.93-.61-4.14-1.11-1.04-.43-2.66-2.49-4.95-3.42-.1-.04-1.34.02-1.45.02-6.47-.23-13.52.34-19.97.37-15.97.11-28.79-1.54-44.08-6.47-1.84-.59-7.44-1.83-9.29-2.4-.39.76-1.6,3.46-2.08,4.18-1.88,2.82-4.01,3.76-7.52,4.38-.01,0-2.71.49-2.73.49-6.23,1.07-5.56,1.27-11.77,2.4-.02,0-2.72-.05-2.74-.04-2.4.12-2.44-.14-5.2-1.08-.46-.15-1.15-.52-1.53-.82-5.15-3.98-5.53-3.97-8.65-9.2,0,0,0,0,0,0-5.72-9.6-7.24-17.78-8.94-28.81,0,0,0,0,0,0-.77-5.02-2.07-9.48-2.24-14.55-.47-.32-.9-.68-1.3-1.06-1.34-1.29-2.39-3-2.91-5.15l-26.76-19.88-13.55-9.06c-1.76,3.86-.44,9.09-5.45,9.85-5.08.77-10.07,2.31-15.35.57-4.34-1.43-6.15-5.56-7.34-10.41-2.63-10.66-2.72-15.08-2.95-24.98-3.76-1.7-6.75-2.86-8.3-7.8h0c-.24-.76-.5-1.83-.65-3.13-.3-2.61-.42-7.17-.46-8.81v-.61s0,.25,0,.25v.37s.03.24.03.24l.02.02v-.05s-.04-.41-.04-.41l-.02-.36v-.69s0-.09,0-.09v.93s.02.26.02.26l.04.4s0-.54-.01-1.01l-.05-.58.03-.67c.12-2.01.38-4.09.04-6.05,0,0,0-.01,0-.02-.27-1.62-.39-3.22-.41-4.8H.21l-.15-16.19c-.05-.51-.07-1.04-.05-1.59l.05-1.97v-15.74c.17-1.76.24-2.78.5-4.2-.11-1.66.03-3.42.08-4.9.1-3.59-.73-1.71,2.95-15.75,4.05-15.43,4.21-14.26,4.21-14.26.48-.62.78-1.6,1.41-2.06,0,0,.84-3.09,6.09-5.19,3.2-1.28,7.92-2.43,11.86-2.66.77-.05,6.98-.41,14.03-.99C76.96,5.86,163.35-2.28,221.54.61c0,0,3.96.28,3.96.28,16.38.82,24.99,2.77,34.11,5.69l.15.04.23.08c18.97,5.63,24.32,14.13,24.32,14.13l1.31,2.8c1.07,2.21,1.41,2.6,3.62,6.97,7.84,15.45,18.38,43.98,20.14,53.94.94,5.29-1.32,14.13-1.07,22.94.14,4.78,1.45,9.17,1.88,14.06-.14.98-1.28,1.75-1.58,2.67l-.19,8.02c0,.19.11.35.29.4.49.14,1.07.31,1.19.56.38.79.84,1.68,1.17,2.74,1.31,4.18,1.25,6.77.64,11.49l-.1.24-.73,3.67c-.21,1.01-.43,2.01-.65,3.02l-.39,1.77v.1c-.21,1.58-.33,1.84-.89,3.06l-.3,1.09c-.23.49-1.27,1.4-1.59,1.91-.38,3.82-.66,8.97-.16,12.43l1.81,1.01.88.48c2.45.85,2.9,2.25,4.3,5.01,1.38,2.72,1.99,6.56,1.85,11.22,2.1,5.06,1.89,5.62.37,10.43l-.06.1-.5.67Zm-91.96,36.36c.98-.01,1.96-.02,2.83-.28.87-.26,1.64-.78,2.18-1.83-1.38,1.46-3.3,1.56-5.02,2.11h0ZM3.27,60.29c.1,6.05.11,11.98-.07,17.9-.05,1.85.76,3.06,2.66,3.63,1.18.36,2.66.45,3.28,1.88,2.85.69,2.85.68,2.92-2.36,0-.21-.1-.53.26-.57.38.59.67,1.27,1.14,1.74,1.23,1.24,2.59,2.86,4.49,1.95,1.8-.87,3.25-.24,4.69.37,1.78.76,3.62,1.11,5.47,1.52,4.5,1.02,4.61,1.21,4.08,5.87-.01.11-.11.2-.27.45-.76-1.25-2.18-.84-3.22-1.42-1.69-.96-3.36-.94-5.03.06-.68.4-1.48.76-2.18.45-2.74-1.2-6.34-.41-8.23-3.64-.33-.58-1.14-.76-1.84-.89-1.51-.27-2.96-.72-4.36-1.33-.48-.2-1.19-.76-1.51-.06-.33.73.38,1.07,1.03,1.29,1.26.43,2.53.9,3.72,1.88-1.36.14-2.42.03-3.5-.44-1.86-.83-2.84-.07-3.09,2.09-.33,2.85-.52,5.64-.02,8.54.44,2.57.21,5.28.05,7.92-.11,1.94.47,3.71.71,5.54.23,1.71.47,3.22,1.6,4.53.5.58.8,1.21.48,2.01-.87-.18-1.2-1.08-2.05-1.07,1.13,3.59,3.51,5.6,6.88,5.6,1.27,0,1.71.35,1.59,1.59-.08.69.02,1.41.01,2.11-.06,9.99,1.27,19.72,4.96,29.07.82,2.09,2.28,3.07,4.23,3.71,4.01,1.32,7.76-.3,11.62-.88,2.39-.36,3.42-1.92,4.07-3.99.6-1.98.45-4.06.71-6.07.34-2.74.77-2.96,2.99-1.38,13.43,9.65,26.85,19.31,40.28,28.95,1.42,1.01,2.36,2.24,2.61,4.01.19,1.29.92,2.1,2.29,2.1,1.64-.01,2.27.81,2.21,2.39-.22,6.02.67,11.95,1.57,17.88,1.54,9.99,4.66,19.42,9.84,28.11,2.17,3.63,5.64,5.59,9.42,7.08.67.27,1.35.29,2.06.17,6.24-1.13,12.49-2.28,18.74-3.35,1.06-.19,1.69-.69,2.26-1.53,1.18-1.77,1.92-3.73,2.69-5.69.57-1.49,1.38-2.11,3.06-1.42,3.35,1.39,6.89,2.22,10.34,3.33,14.48,4.67,29.4,6.19,44.53,6.1,6.91-.04,13.82-.44,20.74-.14,1.21.07,2.17.4,3.13,1.13,1.27.95,2.34,2.27,4.05,2.58-.9-.62-1.62-1.4-2.27-2.23-1.57-2-3.41-2.99-6.08-2.38-1.65.39-3.42.31-5.12.35-18.62.47-37.06-.87-55.22-5.2-8.86-2.1-17.2-5.4-24.69-10.69-4.99-3.53-6.44-8.58-4.16-14.18.21-.53.45-1.05.69-1.57,1.73-3.88,2.8-4.36,6.59-2.65,9.41,4.26,19.16,7.43,29.33,9.32,1.76.33,2.25-.03,2.45-1.81.69-6.15,4.02-10.28,9.81-12.44,3.74-1.4,7.52-.81,11.31-.51,11.35.91,22.7,1.17,34.08.87,1.41-.05,2.46-.59,3.65-1.52,4.74-3.71,4.82-3.61,8.92-.35.05.04.1.09.14.13.6.66,1.34.88,2.22.79,7.58-.79,15.15-1.6,22.67-2.8,1.28-.2,1.49-.7,1.22-1.92-.75-3.37-1.81-6.64-2.93-9.9-2.62-7.58-5.92-14.82-10.91-21.15-5.15-6.54-11.02-12.35-17.55-17.48h.06c.63-.04,1.15-.09.33-.86-.74-.68-1.7-1.15-2.21-2.07l.03-.03-.07-.05s.03.05.04.07c-.77.74.31,1.14.35,1.72h0s-.05-.03-.05-.03c-2.07-1.71-4.55-2.91-6.09-5.27-.53-.83-2.13-.71-2.11-2.17-.74.53-1.43.46-2.04-.19-.62-.66-1.36-1.04-2.27-1.12-.02.01-.04.02-.05.04,0-.02,0-.04,0-.06-1.16-1.45-2.76-2.31-4.27-3.3-.76-.49-1.6-.91-2.23-1.82,1.68.28,3.1.12,4.61,1.07,1.79,1.13,2.38,2.17,1.88,4.05,0,0,0,0,.01.01,0,0,0,0,0,0h.02s0,0,0,0c.24-.16.49-.31.72-.48,1.46-1.14,3.22-.36,3.72,1.65.37-.03.82-.21,1.09-.06,2.64,1.48,5.51,2.72,6.69,5.87.83.07,1.45.6,2.14,1.01,1.81,1.05,3.22,2.7,5.25,3.4-.15-.24-.28-.49-.48-.68-4.67-4.32-9.39-8.58-14.78-12.02-6.41-4.09-12.88-8.1-19.47-11.92-.28-.17-.74-.23-.73-.84,1.45.24,2.48,1.24,3.67,1.9,9.3,5.14,18.27,10.82,26.56,17.51,8.59,6.92,16.34,14.7,23.61,23.03,4.13,4.73,7.06,9.93,8.8,15.88,1.25,4.27,2.69,8.51,3.41,12.94.12.66.02,2.07,1.07,1.85.83-.18.14-1.34.04-2.04-.21-1.52-1.02-2.86-1.27-4.4-.97-6.01-2.52-11.86-5.35-17.29-1.33-2.53-2.71-5.03-4.31-7.98,3.01,2.64,4.31,5.93,6.37,8.65-.25-1.65-1.02-3.05-1.84-4.38-.65-1.03-.64-2.69-1.16-3.08-1.68-1.29-2.62-3.1-3.91-4.64-10.35-12.43-22.53-22.7-36.11-31.41-4.86-3.11-10.2-5.26-14.95-8.55-3.78-2.61-8.2-4.06-12.34-6.01-7.64-3.59-15.16-7.47-22.72-11.23-1.44-.71-3.06-1.26-3.01-3.44-.64,2.57-.05,5.02-.02,7.46-.94-2.37-.76-4.9-1.22-7.34-.55.2-1.17.69-1.54.54-2.14-.88-1.63.83-1.68,1.74-.08,1.34.08,2.68.1,4.01.02.92-.48,1.35-1.4,1.46-.86.1-1.3-.08-1.39-1.03-.1-1.02-1.05-1.21-1.79-1.5-4.81-1.83-9.6-3.7-14.44-5.44-11.12-3.98-22.4-7.49-33.78-10.66-11.3-3.14-22.58-6.34-33.99-9.09-13.01-3.14-26.01-6.38-39.02-9.56-5.67-1.38-11.36-2.73-17.04-4.04-3.85-.89-7.68-1.93-11.73-2.38v.59h0Zm295.21,155.12c-1.52-.85-2.72-.46-4.06.28-3.36,1.83-6.89,3.28-10.44,4.68-16.84,6.61-34.42,10.18-52.26,12.68-2.34.33-2.46.46-2.18,3.21.49-1.51,1.45-2.01,2.75-2.2,3.52-.51,7.02-1.18,10.53-1.73,18.37-2.91,36.02-8.15,52.88-16.05,1.15-.53,2.19-.5,3.31-.06,1.23.47,2.45,1.04,4.1.75-1.6-.87-3.29-.82-4.63-1.55h0Zm-118.89,12.94c-4.58-1.02-9.34-1.22-13.89-2.63,7.08.72,14.14,1.46,21.24,1.95,8.44.58,16.88.27,25.32.14.51,0,1.02.01,1.53.05,1.03.05,2.1.43,2.06,1.53-.02,1.17.07,2.64-1.53,3.18-1.29.44-2.64.44-3.96.51-14.44.57-28.81-.14-43.1-2.39-6.71-1.06-13.42-2.14-19.92-4.22-4.07-1.3-8.14-2.66-11.94-4.69-.78-.42-1.54-.9-2.22-1.47-.62-.53-1.49-1.27-.9-2.06.62-.85,1.97-.79,2.59-.12,2.92,3.2,7.02,3.66,10.77,4.77,10.39,3.1,21.07,4.56,31.86,5.37.69.06,1.39.06,2.08.08h0Zm-23.72-.65l-.18-.03c2.69,1.2,12.27,2.62,22.09,3.59,7.17.71,14.46,1.2,19.29,1.2h.08c1.75,0,3.16-.07,4.13-.21-15.27-.12-30.39-1.74-45.41-4.55h0Zm57.77-13.56c.84,0,1.37-.17,1.69-1.09.84-2.33,1.95-4.59,2.69-6.95,1.37-4.49,1.42-3.69-2.68-3.6-12.14.3-24.25-.01-36.33-1.25-5.81-.59-10.03,2.82-10.58,8.62-.13,1.4.17,2,1.71,2.19,11.29,1.41,22.62,2.02,33.99,2.26,3.18-.06,6.35-.14,9.52-.17h0Zm84.74-27.33c-9.35,3.86-19,6.79-28.84,9.09-.66.16-1.06.49-1.38,1.15-.84,1.75-1.51,3.34-3.74,4.29-3.21,1.38-4.16,1.43-5.24-2.02-.26-.83-.48-1.24-1.54-1.05-7.75,1.37-15.58,2.22-23.42,2.92-1.14.11-1.48.64-1.54,1.69-.17,2.42-.33,4.84-.68,7.24-.3,1.93.39,2.19,2.11,1.93,12.1-1.84,24.18-3.77,36.03-6.88,5.1-1.33,10.28-2.3,15.2-4.31,3.27-1.33,6.53-2.73,10.19-3.52-1.59-.39-1.02-1.18-.47-2.02,1.71-2.65,2.86-5.57,4.37-8.64-.6.07-.84.05-1.05.13h0Zm12.01,10.89c-1.98,1.73-1.8,3.98-1.89,6.12-.03.73-.3,2.11.66,2.44,1.02.34,1.6-.76,2.17-1.54,2.61-3.53,4.61-7.14,1.56-11.49-.44.65.09,1.5-.63,2.25-.03-.81-.04-1.42-.07-2.03-.35,1.61-.68,3.28-1.79,4.25h0Zm-168.46,3.86c-2.86-.17-5.54-1.12-8.16-2.37,2.74.61,5.49,1.23,8.23,1.84-.03.18-.06.36-.07.53h0Zm122.19-4.45c-.16-.16-.44.32-.39.68.13.9.6,1.53,1.49,1.76.88.22,1.01-.55,1.26-1.09.26-.55.47-1.14.79-1.94-1.31-.11-1.9,1.77-3.15.6h0Zm41.48-100.41v.14c.1,2.92-.63,5.69-.3,8.49.16,1.39.03,2.81.04,4.22,0,1.17.78,3.97.62,4.45-.72,2.08-.8,4.25-.82,6.43,0,.58.39,1.58-.47,1.63h-.05c-.17,0-.39-.03-.67-.1-.04-.01-.08-.02-.12-.02h-.02c-.4,0-.34.57-.2.84,1.68,3.01.94,6.42,1.69,9.57.34,1.46.09,2.43-.87,3.52-1.49,1.73-2.3,3.95-3.87,5.64-.34.36-.44.8-.38,1.24.22,1.88-.25,3.68-.65,5.49-.14.65-.33,1.33.56,1.53.1.02.19.03.26.03h.03c.52-.02.59-.55.91-1.02.99-1.46.74-3.46,2.17-4.68.13-.1.28-.34.24-.46-.73-2.8,1.79-4.93,1.53-7.7-.04-.46.29-.58.72-.58h.04c.39,0,.86.09,1.17.09.41,0,1.27.32.5,1.13-.19.22-.13.36.08.61,2.51,2.74,1.63,5.87.87,8.93-.21.85-.91,1.52-1.9,1.71-.52.1-.99.29-1.01.94-.04.97-.63,1.32-1.51,1.33-1.06.02-1.68.76-2.28,1.46-.29.34-.25,1.09-.72,1.11h-.03c-.15,0-.36-.07-.64-.25-.03-.02-.05-.03-.08-.03h0c-.17,0-.14.46-.19.73-.13.89.11,1.95-1.33,2.24-.73.14-.58,1.17-.49,1.85.34,2.77,1.21,5.31,3.35,7.2.83.73,1.03,1.48.97,2.49-.07,1.21-.01,2.43-.07,3.64-.03.62.28,1.5-.91,1.49-.36,0-.33.47-.38.77-.07.31-.09.63-.13.95-.23,2.14.29,4.76-1.02,6.3-1.23,1.42-3.66,1.8-5.58,2.61-7.1,2.98-14.58,4.78-21.98,6.8-.26.07-.56.21-.84.22h-.05c-.2,0-.38-.06-.52-.27-.3-.45,0-1,.21-1.46,2.23-4.94,3.87-10.11,5.89-15.13,2.36-5.88,4.57-11.82,7.09-17.62l.25-.56-.26.51c-2.31,4.46-4.36,9.03-6.28,13.68-2.88,6.96-5.47,14.04-8.41,21.29-.98.03-.58-1.18-.35-1.71l.49-1.16.48-1.17.47-1.17.46-1.17.46-1.18.53-1.38.2-.52.29-.78.47-1.26.44-1.2.43-1.18.57-1.59,1.04-2.9.98-2.74.56-1.56.57-1.56.29-.78.3-.81.42-1.12c.05-.13.1-.26.15-.39,1.14-3,1.9-6.2,3.53-8.96,4.76-8.13,7.11-17.28,11.03-25.75,4.63-10.02,8.64-20.31,11.63-30.97.03-.09.18-.14.44-.35h0Zm-223.35,78.86c-.42.28-.73-.09-.96-.33-2.18-2.28-4.89-3.86-7.43-5.66-7.53-5.31-15.11-10.57-22.52-16.05-5.78-4.28-11.66-8.4-17.53-12.56-1.81-1.28-3.7-2.45-5.56-3.65-.58-.37-1.47-.7-.84-1.55.56-.77,1,.25,1.32.48,8,5.76,16.07,11.43,24.08,17.15,7.49,5.38,14.93,10.82,22.62,15.89,2.12,1.39,4.09,3.02,6.12,4.54.41.31.79.66.84,1.36-.01.04-.01.3-.13.37h0Zm219.95-13.1c-.06.32.24.81.66.81.47,0,.49-.49.57-.85.31-1.33.99-2.45,1.82-3.52.64-.82,1.14-1.77,1.3-3.06-1.73.62-2.21,3.75-4.79,1.72-.24,1.95.73,3.35.45,4.9h0Zm-65.69-13.87c.9,2.26,2.98,3.41,4.6,5.01-1.38-1.83-2.71-3.68-4.6-5.01l-.04-.09s-.08-.04-.12-.06c-1.46-1.8-3.15-3.33-5.08-4.6-.02-.04-.04-.08-.06-.12l-.05.05s.07.05.11.07c1.17,2.12,2.93,3.58,5.08,4.6.02.03.05.06.07.09l.08.06h0Zm-58.68-9.03c-2.81-1.31-4.8-3.53-5.59-6.63-.08-.33-1.03-1.75.75-1.29.33.09.25-.36.29-.58.14-.94.29-1.88.43-2.84-.8-.51-.47,1.03-1.26.6.13-1.63.96-2.95,2.04-4.12.51-.55,1.11-1.06,1.75-1.46,1.15-.72-.07-.96-.17-1.46-.13-.62,3.57-1.96,3.71-1.44.43,1.74,1.78.97,2.65,1.02,2.76.16,5.21,1.01,7.35,2.76.35.28.72.54.85,1.27-1.37-.44-2.19-1.73-4.09-1.92,2.1,1.27,3.68,2.44,4.58,4.2.58,1.14,1.74,2.44,0,3.67-.1.08-.18.44-.14.47,1.87,1.17-.17,2.32,0,3.63,1.09-.83,1.62-1.94,2.4-3.53-.08,1.64-.6,2.54-1.17,3.43-3.05,4.74-10.33,6.11-14.38,4.23h0Zm20.16-17.44c.23-.69.75-.66,1.21-.34,1.96,1.32,4.19,2.28,5.98,3.89-1.56,1.18-2.73.4-3.87-.52-.84-.67-1.69-1.3-2.73-1.65-.66-.23-.81-.75-.6-1.38h0Zm109.55-4.74c-.55.98-1.04,1.86-1.23,2.74-.2.88-.11,1.74.49,2.69.63-1.63,1.25-3.25.75-5.42h0Zm-144.05-17.19c.31,0,.66.27.95.39,3.93,1.55,7.37,4,11.16,5.79.66,2.29,3.04,1.21,4.38,2.29,1.3,1.03,3.24,1.18,3.97,3.01.02.05.1.09.15.1,2.07.55,3.8,1.81,5.65,2.81,1.03.54,1.13.35,1.77,1.69-1.74-.39-3.15-1.55-4.89-1.65,2.06,1.2,4.12,2.4,6.18,3.61,0,0,.02,0,.03,0h.02s.02,0,.03,0c-.01.01-.02.02-.03.04,1.12.58,2.26,1.14,3.36,1.74.76.4,1.23,1.14.76,1.89-.52.84-1.12-.05-1.6-.28-.67-.32-1.2-1.03-1.89-1.21-1.61-.41-1.36-1.17-.63-2.14t-.01-.01s-.02-.01-.03-.02c-2.31.6-4.22-.74-6.23-1.46-1.59-.57-3.02-1.56-4.54-2.35-.4-.21-.53-.51-.38-.94-1.25.36-2.19-.36-3.19-.87-1.19-.59-2.37-1.19-3.54-1.81-.41-.21-1.1-.32-.83-1.02.21-.5.73-.39,1.18-.31,2.5.44,4.35,2.18,6.52,3.3.29.15.1.58-.11.84,1.86-.57,3.25,1.11,5,1.06-5.12-3.49-10.69-6.1-16.24-8.78-2.34-1.13-4.51-2.59-6.75-3.93-.49-.3-1.04-.8-.75-1.4.13-.27.3-.37.49-.37h.01Zm-152.22,1.42c-.37.16-.78.44-.47.85,1.6,2.13-.63,2.31-1.54,2.55-1.92.53-2.52,1.64-2.49,3.44.03,1.37.4,2.82-.83,4.17-.15-4.97-.32-9.78-.46-14.6-.02-.56-.02-1.31.67-1.43.76-.12,1.83-.54,2.32.07.86,1.07,2.06,1.65,2.97,2.6.71.72,1.44,1.66-.17,2.33h0Zm156.07,3.69c.06,0,.12.01.17.03,1.26.39,2.72.62,2.89,2.33.04-.01.06-.02.09-.03,0,.02.02.04.02.06.41-.65.95-.75,1.58-.22.48.39,1.08.84.51,1.52-.54.62-.99-.06-1.43-.3-.39-.2-.54-.6-.66-1-.03.04-.06.06-.09.11l-.03-.14c-1.5.62-2.5-.56-3.67-1.14-.13-.06-.18-.47-.13-.67.1-.35.4-.55.72-.55h.02Zm-53.1-20.22l-.12.45c13.79,3.98,27.27,8.81,40.63,14.53-.03-1.26-.75-1.34-1.31-1.57-1.7-.69-3.42-1.37-5.14-2.02-.92-.35-1.75-.75-1.68-1.94-1.93-.4-3.92-.18-5.81-.86-6.22-2.21-12.46-4.39-18.72-6.48-2.56-.85-5.22-1.44-7.83-2.15v.03h0Zm-80.86,1.29c.55-.36.68.14.81.43.59,1.24,1.64,1.71,2.91,1.83,2.58.23,5.17.39,7.75.68.64.07,1.99-.72,1.6,1.26-.14.72,1.44,1.55,3.17,1.54-1.69.94-2.46,1.46-4.25.84-2.9-.99-6.2-1.37-9.34-.74-1.55.31-2.68,1.39-2.66,3.26.01,1-.14,2.02-.39,3.03.14-4.04.28-8.08.4-12.12h0Zm250.22-3.79c.7-.07,1.81.39,1.88-.4.12-1.4.99-1.1,1.72-1.16,3.03-.27,6.07-.49,9.11-.7,1.32-.09,1.84-.83,1.98-2.1.26-2.28-.37-4.3-1.22-6.41-4.15-10.38-9.91-20.11-12.74-31.06-.96-3.72-3.01-7.05-4.04-10.73-.4-1.39-.95-1.84-2.18-2-3.97-.54-7.91-1.14-11.88-1.68-2.15-.3-4.3-.51-6.45-.76,0-.09.02-.17.02-.25,1.48.05-18.42-1.62-20.49-1.8-11.55-1.06-23.06-2.56-34.64-3.23-9.96-.58-19.89-1.28-29.84-1.98-4.73-.33-9.49-.17-14.21-.7-1.76-.21-3.55-.21-5.33-.25-.49-.01-1.31-.27-1.3.63.02.62.23,1.27,1.2.95.69-.22,1.37.2,2,.49,2.77,1.2,3.41,3.41,3.81,6.32,2.15,15.75,4.56,31.47,6.99,47.17.79,5.03,4.07,7.82,9.18,7.99,5.77.19,11.55.18,17.34.38,5.63.19,11.3-.24,16.88.91.48.1,1.02.14,1.34-.4h0s0,0,0,0h0c-.1.78-.6,1.77.43,2.16,1.5.57,2.84,1.39,4.21,2.18.88.51,1.26.2,1.22-.84-.03-1.1-.6-1.9-1.23-2.69-.68-.85.18-1.29.55-1.75.49-.62.83-.2,1.06.37.4.99,1.3.64,1.99.64,9.33.03,18.66.28,27.98.69,3.78.16,4.09-.2,5.26-3.52.91-2.62.67-4.99-.26-7.53-3.2-8.74-6.26-17.52-9.36-26.3-.21-.6-.44-1.21-.56-1.82-.09-.46.05-.9.56-1.1.48-.21.9-.03,1.18.34.27.35.47.76.63,1.17,2.97,7.34,4.9,15.08,8.48,22.18.1.21.22.55.13.71-.55.94.03,1.74.26,2.56,1.09,3.78,1.97,7.65,4.58,11.07-1.34.04-2.29.18-2.14,1.57.12,1.03.22,2.19.96,2.85,2.89,2.55,4.06,6.1,5.63,9.42.52,1.11.9,2.34,2.37,3.54-.76-3.43-1.73-6.21-3-8.89-.73-1.55-2.53-3.03-.28-4.76.11-.08.05-.48-.02-.7-.18-.61.2-.61.6-.64,5-.36,9.99-.73,14.98-1.1.71-.05,1.37.09,1.96.49,0,.02-.02.05-.02.07l.05-.06-.02-.02c.31-.84,1.6-.72,1.76-1.86.04-.29,1.25-.22,1.7.25.44.46.35,1.1-.32,1.41-.34.15-.36.43-.44.69-.03,0-.06,0-.09.01l.07.06s.02-.05.02-.07h0Zm-136.92,11.92c2.66.36,5.02,1.91,7.78,1.97-2.09-.77-4.01-1.84-5.95-2.85-1.26-.66-2.2-2.01-3.76-2.06-1.57-.07-2.94-.75-4.35-1.3-2.54-1.01-5.03-2.15-7.63-2.98-2.66-.85-5.1-2.38-7.78-2.96-2.61-.55-5.2-1.15-7.77-1.8-11.69-2.95-23.35-5.96-35.04-8.94-.73-.19-1.48-.37-1.96.79,6.47,1.7,12.81,3.5,19.21,5.03,10.19,2.44,20.21,5.5,30.21,8.59,5.79,1.79,11.59,3.64,16.97,6.54v.02s.06.01.06.01l-.06-.03v-.03s.06,0,.06,0h0Zm-95.64-5.76c.56-.77,1.11.14,1.52.47,1.79,1.47,4.06,1.89,6.17,2.71-1.26,2.59-2.72,1-4.14.56.16-.65.71-.19,1.05-.61-1.17-.72-2.31-1.41-3.46-2.12,1.79,1.87.39,3.73-.02,5.58.03-.7-.01-1.4.08-2.1.14-.96,0-1.72-.95-2.22-1.11-.61-.72-1.65-.25-2.29h0Zm-37.93,4.34c-2.2-.38-4.23.31-6.29.86-.52.13-1.08.31-1.3-.31-.38-1.09-.52-2.26.12-3.29.37-.61,1.02-.32,1.53-.03,1.29.73,2.5,1.67,4.09,1.59.39-.02.95-.04,1.07-.53.03-.13-.53-.41-1.13-.85,1.02-.14,1.52-.31,2-.26,1.03.1,1.29.92,1.33,1.78.05,1-.71,1.16-1.42,1.03h0Zm142.36-10.11c-.45-1.19-.08-1.46,1.06-1.37,1.2.1,2.4.1,3.61.14.45.01,1.14.75,1.17-.44.03-.97-.49-.86-1.21-.9-1.95-.12-3.95.07-5.86-.55-.48-.16-1.05-.3-1.15-.88-.13-.74.61-.7,1-.93,3.43-1.98,5-5.02,4.47-8.95-1.22-8.97-2.47-17.93-3.74-26.9-.61-4.4-1.4-8.79-1.87-13.21-.28-2.66-1.98-4.7-4.6-4.7-4.2-.02-8.38-.22-12.56-.52-1.22-.09-2.84-1.06-3.74.8-.03.08-.41.11-.53.03-1.69-1.16-3.58-.5-5.36-.52-8.89-.1-17.78-.1-26.67-.12-2.56-.01-3.38.56-4.29,2.94-.22.6-.42,1.21-.56,1.83-2.76,11.74-5.49,23.47-8.26,35.2-.81,3.46-.85,3.45,2.64,4.07.68.12,1.35.35,2.03.46,11.66,1.88,23.14,4.63,34.78,6.65,1.98.34,3.96.73,6.12,1.14-.85.75-1.53.43-2.18.31-6.79-1.32-13.56-2.68-20.35-3.96-7.67-1.44-15.33-2.82-23-4.23-1.18-.22-2.27-.6-1.96-2.23-.19.38-.26.77-.46,1.08-.94,1.52-.24,2.15,1.23,2.41.3.05.62.11.92.17,10.9,1.81,21.71,4.11,32.52,6.31,10.77,2.18,21.59,4.04,32.54,5.04,2.93.26,3.99,1.15,4.36,4.14.3,2.4.49,4.82.73,7.24.22-3.18.3-6.43-.86-9.54h0Zm-143.12,2.61c.22.92,1.23.91,1.98,1.15.56.18,1.13.01,1.04-.65-.18-1.34-1.45-.42-1.96-.87-.57-.2-1.19-.19-1.06.37h0Zm-3.17-1.85c-.86.05-1.55-.48-2.33-.7-.45-.12-1.03-.56-1.26.17-.17.52.17,1.16.69,1.19,1.59.09,2.83,1.03,4.24,1.54.34.12.74.36.96-.15.17-.41-.03-.74-.39-.96-.65-.39-1.32-.76-1.97-1.14l.06.05h0Zm97.55-.69c-2.09-.83-4.21-1.54-6.36-2.14-2.15-.6-4.33-1.08-6.53-1.45,4.23,1.45,8.45,2.91,12.89,3.59h0Zm106-1.25h0c.6.05,1.55.48.89-.82-.3-.61.12-.64.48-.65.75-.01,1.49.03,2.22.06.07.16.17.32.14.36-.64.67.2,2.17-.69,2.26-.99.1-2.16-.47-3.05-1.21h0Zm-78.76-4.76c2.98.01,5.94.27,8.88.66,2.94.38,5.87.89,8.79,1.41-5.98.16-11.85-.71-17.67-2.06h0Zm-80.65-9.34c1.03.88,2.41.89,3.64,1.18,6.52,1.55,13.07,3.03,19.62,4.5.47.1,1.32.47,1.46-.31.14-.81-.79-.65-1.26-.76-5.74-1.31-11.49-2.56-17.24-3.84-2.02-.44-4.03-.91-6.04-1.36-.06.19-.11.39-.17.59h0Zm102.2-8.47c-1.3-9.78-2.76-19.55-4.14-29.32-.03-.24,0-.49.03-.89.67.24.68.76.79,1.18,1.11,4.51,1.47,9.13,2.02,13.72.94,7.9,2.06,15.79,3.09,23.67.27,2.07.53,4.16-1.26,5.78,1.62-4.81.09-9.47-.53-14.15h0Zm-73.25,4.11c-.83.02-1.28,1.43-.99,2.56.03.12-.06.27-.02.37.26.65-.48,1.86.42,1.94,1.18.1.89-1.25,1.12-2.04.05-.18.04-.37.06-.69-.33-.66.34-2.16-.59-2.14h0Zm-47.52.51c5.46.87,10.76,2.4,16.14,3.58.48.11,1.28.63,1.46-.13.19-.8-.79-.64-1.26-.74-5.32-1.21-10.65-2.37-15.99-3.53-.4-.09-.86-.34-1.3.42.38.17.65.36.94.41h0Zm24.87.1s0-.04,0-.06c0,0-.04.05-.04.05h.04c.03.71.59.6,1.07.68,1.75.3,3.49.61,5.23.92,3.61.66,7.24,1.34,10.85,2.02.03-.16.06-.31.09-.46-5.75-1.06-11.49-2.11-17.24-3.16h0Zm1.89-1.4c5.01.87,10,1.78,14.99,2.71,1.65.31,2.58-.41,2.87-1.98.3-1.62.46-3.28.72-4.92,1.68-10.27,3.89-20.42,6.76-30.43.88-3.03.38-3.75-2.49-3.7-4.82.07-9.65.26-14.48.28-2.1,0-3.04.91-3.46,2.95-1.22,5.93-2.6,11.83-3.91,17.74-1.06,4.79-2.14,9.59-3.21,14.38-.17,1.7.45,2.68,2.21,2.97h0Zm-1.99,1.36c-2.21-1.36-1.2-3.43-.85-5.13,1.67-8.11,3.5-16.21,5.32-24.29.69-3.05,1.11-6.16,2.26-9.09.59-1.51,1.48-2.37,3.42-2.33,5.59.1,11.17-.1,16.76-.23.37,0,1.03.31,1.1-.36.07-.68-.54-.77-1.06-.81-.51-.03-1.02-.02-1.53,0-4.7.09-9.39.17-14.09.27-3.44.07-4.25.62-5.52,3.86-.3.77-.52,1.57-.73,2.37-2.63,9.85-4.7,19.82-6.48,29.87-.3,1.66-.29,3.26.03,4.9.18.92.6,1.15,1.36.97h0Zm-42.74-5.34c-3.86-1.07-7.85-1.65-11.8-2.37-.63-.12-1.39-.09-2.21,1.21,10.17,2.13,20.03,4.3,30.05,5.87-1.64-1.17-3.12-2.41-5.21-2.66-2.27-.26-4.5-.87-6.74-1.33-.02.08-.04.16-.05.25.45.19.9.38,1.36.58-1.98-.04-3.63-1.06-5.4-1.55h0Zm35.26,3.65c-3.63-.65-7.25-1.31-10.87-1.96-.02.11-.04.21-.06.32,3.64.71,7.27,1.41,10.91,2.11,0-.15.01-.31.02-.47h0Zm6.6-37.84c-3.3.16-6.59.4-9.89.47-1.7.03-2.52.75-2.85,2.39-.92,4.42-1.95,8.84-2.92,13.26-1.09,4.98-2.17,9.96-3.22,14.95-.46,2.21.02,2.92,2.2,3.33,2.92.57,5.87,1.03,8.8,1.57,2.33.43,2.84.18,3.27-2.14,1.27-6.7,2.39-13.44,4.07-20.05.96-3.82,1.85-7.68,2.79-11.51.24-1.81-.71-2.34-2.25-2.27h0ZM23.91,57.12c-.02.08-.03.17-.04.25,2.89.54,5.78,1.09,8.67,1.63l.1-.46c-2.9-.5-5.81-1-8.72-1.5v.08h-.01Zm11.34-3.54c1.76-8.81,3.85-17.56,5.83-26.31.45-1.99.09-2.36-1.99-2.24-2.47.16-4.93.39-7.4.42-1.65.02-2.35.73-2.69,2.29-1.09,5.04-2.28,10.06-3.42,15.09-.75,3.22-1.51,6.45-2.19,9.69-.53,2.48-.11,3.11,2.32,3.59,2.06.41,4.11.75,6.18,1.1,1.83.12,2.77-.76,3.35-3.63h0Zm3.53,2.97c1.04-4.78,2.08-9.58,3.15-14.36,1.15-5.16,2.23-10.34,3.5-15.48.67-2.68,1.19-2.88,3.84-2.99,4-.16,8.01-.39,12.25-.62-.87-1.26-1.91-.82-2.77-.79-2.92.09-5.83.32-8.75.42-3.93.13-4.29.36-5.58,4.08-.19.54-.33,1.1-.5,1.65-1.97,6.67-3.47,13.45-4.66,20.3-.44,2.55-.69,5.13-1.03,7.71.19.03.37.06.55.09h0Zm-26.56-1.55c1.19.21,2.38.43,3.56.66,3.01.62,3.42.34,4.07-2.74.98-4.62,2-9.22,3-13.83.97-4.48,1.94-8.96,2.91-13.45.33-1.51-.06-2.25-1.79-2.08-2.02.2-4.05.32-6.08.24-1.8-.07-2.72.8-3.21,2.36-2.59,8.16-4.31,16.51-5.44,24.27-.18,3.42.39,4.14,2.98,4.58h0Zm14.25-20.32c.37-.21.38-.6.47-.96.61-2.4,1.19-4.82,1.86-7.2.39-1.42,1.23-2.2,2.89-2.19,2.66.03,5.33-.18,7.99-.32.57-.03,1.27.25,1.69-.53-.43-.57-1.03-.4-1.56-.38-2.85.1-5.7.3-8.56.32-1.44.01-2.22.68-2.76,1.89-1.32,2.99-1.78,6.15-2.02,9.36,0,0-.02.01-.03.02h0s0,0,0,0c0,.06,0,.13-.01.19-1.23,4.26-2.89,8.42-2.95,12.94,1.02-4.3,2.61-8.48,2.95-12.94l.04-.15s0,0,0,0v-.05h0Zm64.23,5.49c-.31.83-.71,1.63-1.01,2.53-.3.89-.5,1.87-.41,3.04.56-2.17.99-3.86,1.42-5.56h0Zm8.82-19.2c-2.5,0-3.95,1.13-4.5,3.53,1.11-1.5,2.33-2.55,4.17-2.54,13.2.08,26.41-.49,39.61-.05,4.67.15,9.37.17,14.4.83-1.66-1.28-3.26-1.29-4.82-1.32-6.79-.13-13.59-.23-20.37-.29-6.51-.06-13.01-.09-19.52-.13l-3.55-.02c-1.77,0-3.55-.02-5.32-.03h-.09Zm-67.36.09c-2.05-.26-4.08-.21-6.11-.05-2.03.16-4.06.43-6.09.62,4.07-.2,8.13-.37,12.2-.57h0Zm.1,0c4.17-.23,8.34-.41,12.5-.71,7.58-.54,15.18-.85,22.76-1.34,9.44-.61,18.93-.49,28.38-.71,10.03-.23,20.06-.57,30.09-.68,4.1-.05,8.2-.1,12.32.76,4.03.84,8.21.69,12.35.62.85-.02,2.15-.1,2.17-1.02,0-1.11-1.3-.68-2.02-.71-10.29-.42-20.57-.07-30.86-.09-8.45,0-16.89.24-25.33.36-9.47.13-18.93.31-28.37.84-10.2.56-20.4,1.28-30.59,1.98-1.14.08-2.41-.18-3.41.7h-.05s.03.01.03.01h.02Z"/>
        <path class="cls-2" d="m269.38,195.95l-11.36,2.28c.06.46,1.02.75,1.06,1.22.06.73-.13,1.36-.49,1.87l.87,1.26h7.72l1.06-3.1c-.11-.4-.15-.83-.14-1.25-.03-.48.15-.98.35-1.53.04-.1.89-.64.93-.75h0Zm-13.01-3.41l15.35-2.85c.08-.16-.65-.33-.57-.49.18-.98,5.04-8.9,5.89-9.48l28.56-83.01s.27-7.01.64-13.26c.36-5.95-21.57-57.94-25.41-62.41-1.57-1.82-13.31-14.99-57.31-17.18C151.2.26,30.59,12.26,25.95,12.86c-12.37,1.6-14.32,6.17-14.32,6.17,0,0-8.09,20.81-8.33,32.27-.06,2.87,0,8.38,0,8.38l65.19,17.05,43.31,12.3,52.75,17.83,47.93,26.96,27.21,24.83c1.31-.63,6.08,6.65,7,8.2,2.35,3.96,7.76,19.23,9.94,23.74.28.59-.5,1.35-.26,1.96h0Zm27.23-109.95c.7-.07,1.81.39,1.88-.4.12-1.4.99-1.1,1.72-1.16,3.03-.27,6.07-.49,9.11-.7,1.32-.09,1.84-.83,1.98-2.1.26-2.28-.37-4.3-1.22-6.41-4.15-10.38-9.91-20.11-12.74-31.06-.96-3.72-3.01-7.05-4.04-10.73-.4-1.39-.95-1.84-2.18-2-3.97-.54-7.91-1.14-11.88-1.68-2.15-.3-4.3-.51-6.45-.76,0-.09.02-.17.02-.25,1.48.05-18.42-1.62-20.49-1.8-11.55-1.06-23.06-2.56-34.64-3.23-9.96-.58-19.89-1.28-29.84-1.98-4.73-.33-9.49-.17-14.21-.7-1.76-.21-3.55-.21-5.33-.25-.49-.01-1.31-.27-1.3.63.02.62.23,1.27,1.2.95.69-.22,1.37.2,2,.49,2.77,1.2,3.41,3.41,3.81,6.32,2.15,15.75,4.56,31.47,6.99,47.17.79,5.03,4.07,7.82,9.18,7.99,5.77.19,11.55.18,17.34.38,5.63.19,11.3-.24,16.88.91.48.1,1.02.14,1.34-.4h0s0,0,0,0h0c-.1.78-.6,1.77.43,2.16,1.5.57,2.84,1.39,4.21,2.18.88.51,1.26.2,1.22-.84-.03-1.1-.6-1.9-1.23-2.69-.68-.85.18-1.29.55-1.75.49-.62.83-.2,1.06.37.4.99,1.3.64,1.99.64,9.33.03,18.66.28,27.98.69,3.78.16,4.09-.2,5.26-3.52.91-2.62.67-4.99-.26-7.53-3.2-8.74-6.26-17.52-9.36-26.3-.21-.6-.44-1.21-.56-1.82-.09-.46.05-.9.56-1.1.48-.21.9-.03,1.18.34.27.35.47.76.63,1.17,2.97,7.34,4.9,15.08,8.48,22.18.1.21.22.55.13.71-.55.94.03,1.74.26,2.56,1.09,3.78,1.97,7.65,4.58,11.07-1.34.04-2.29.18-2.14,1.57.12,1.03.22,2.19.96,2.85,2.89,2.55,4.06,6.1,5.63,9.42.52,1.11.9,2.34,2.37,3.54-.76-3.43-1.73-6.21-3-8.89-.73-1.55-2.53-3.03-.28-4.76.11-.08.05-.48-.02-.7-.18-.61.2-.61.6-.64,5-.36,9.99-.73,14.98-1.1.71-.05,1.37.09,1.96.49,0,.02-.02.05-.02.07l.05-.06-.02-.02c.31-.84,1.6-.72,1.76-1.86.04-.29,1.25-.22,1.7.25.44.46.35,1.1-.32,1.41-.34.15-.36.43-.44.69-.03,0-.06,0-.09.01l.07.06s.02-.05.02-.07h0Zm-128.13.4c-.45-1.19-.08-1.46,1.06-1.37,1.2.1,2.4.1,3.61.14.45.01,1.14.75,1.17-.44.03-.97-.49-.86-1.21-.9-1.95-.12-3.95.07-5.86-.55-.48-.16-1.05-.3-1.15-.88-.13-.74.61-.7,1-.93,3.43-1.98,5-5.02,4.47-8.95-1.22-8.97-2.47-17.93-3.74-26.9-.61-4.4-1.4-8.79-1.87-13.21-.28-2.66-1.98-4.7-4.6-4.7-4.2-.02-8.38-.22-12.56-.52-1.22-.09-2.84-1.06-3.74.8-.03.08-.41.11-.53.03-1.69-1.16-3.58-.5-5.36-.52-8.89-.1-17.78-.1-26.67-.12-2.56-.01-3.38.56-4.29,2.94-.22.6-.42,1.21-.56,1.83-2.76,11.74-5.49,23.47-8.26,35.2-.81,3.46-.85,3.45,2.64,4.07.68.12,1.35.35,2.03.46,11.66,1.88,23.14,4.63,34.78,6.65,1.98.34,3.96.73,6.12,1.14-.85.75-1.53.43-2.18.31-6.79-1.32-13.56-2.68-20.35-3.96-7.67-1.44-15.33-2.82-23-4.23-1.18-.22-2.27-.6-1.96-2.23-.19.38-.26.77-.46,1.08-.94,1.52-.24,2.15,1.23,2.41.3.05.62.11.92.17,10.9,1.81,21.71,4.11,32.52,6.31,10.77,2.18,21.59,4.04,32.54,5.04,2.93.26,3.99,1.15,4.36,4.14.3,2.4.49,4.82.73,7.24.22-3.18.3-6.43-.86-9.54h0Zm57.27-1.18h0c.6.05,1.55.48.89-.82-.3-.61.12-.64.48-.65.75-.01,1.49.03,2.22.06.07.16.17.32.14.36-.64.67.2,2.17-.69,2.26-.99.1-2.16-.47-3.05-1.21h0Zm-78.76-4.76c2.98.01,5.94.27,8.88.66,2.94.38,5.87.89,8.79,1.41-5.98.16-11.85-.71-17.67-2.06h0Zm21.55-17.81c-1.3-9.78-2.76-19.55-4.14-29.32-.03-.24,0-.49.03-.89.67.24.68.76.79,1.18,1.11,4.51,1.47,9.13,2.02,13.72.94,7.9,2.06,15.79,3.09,23.67.27,2.07.53,4.16-1.26,5.78,1.62-4.81.09-9.47-.53-14.15h0Zm-73.25,4.11c-.83.02-1.28,1.43-.99,2.56.03.12-.06.27-.02.37.26.65-.48,1.86.42,1.94,1.18.1.89-1.25,1.12-2.04.05-.18.04-.37.06-.69-.33-.66.34-2.16-.59-2.14h0Zm-22.65.61s0-.04,0-.06c0,0-.04.05-.04.05h.04c.03.71.59.6,1.07.68,1.75.3,3.49.61,5.23.92,3.61.66,7.24,1.34,10.85,2.02.03-.16.06-.31.09-.46-5.75-1.06-11.49-2.11-17.24-3.16h0Zm1.89-1.4c5.01.87,10,1.78,14.99,2.71,1.65.31,2.58-.41,2.87-1.98.3-1.62.46-3.28.72-4.92,1.68-10.27,3.89-20.42,6.76-30.43.88-3.03.38-3.75-2.49-3.7-4.82.07-9.65.26-14.48.28-2.1,0-3.04.91-3.46,2.95-1.22,5.93-2.6,11.83-3.91,17.74-1.06,4.79-2.14,9.59-3.21,14.38-.17,1.7.45,2.68,2.21,2.97h0Zm-1.99,1.36c-2.21-1.36-1.2-3.43-.85-5.13,1.67-8.11,3.5-16.21,5.32-24.29.69-3.05,1.11-6.16,2.26-9.09.59-1.51,1.48-2.37,3.42-2.33,5.59.1,11.17-.1,16.76-.23.37,0,1.03.31,1.1-.36.07-.68-.54-.77-1.06-.81-.51-.03-1.02-.02-1.53,0-4.7.09-9.39.17-14.09.27-3.44.07-4.25.62-5.52,3.86-.3.77-.52,1.57-.73,2.37-2.63,9.85-4.7,19.82-6.48,29.87-.3,1.66-.29,3.26.03,4.9.18.92.6,1.15,1.36.97h0Zm-7.48-1.69c-3.63-.65-7.25-1.31-10.87-1.96-.02.11-.04.21-.06.32,3.64.71,7.27,1.41,10.91,2.11,0-.15.01-.31.02-.47h0Zm6.6-37.84c-3.3.16-6.59.4-9.89.47-1.7.03-2.52.75-2.85,2.39-.92,4.42-1.95,8.84-2.92,13.26-1.09,4.98-2.17,9.96-3.22,14.95-.46,2.21.02,2.92,2.2,3.33,2.92.57,5.87,1.03,8.8,1.57,2.33.43,2.84.18,3.27-2.14,1.27-6.7,2.39-13.44,4.07-20.05.96-3.82,1.85-7.68,2.79-11.51.24-1.81-.71-2.34-2.25-2.27h0ZM23.91,57.12c-.02.08-.03.17-.04.25,2.89.54,5.78,1.09,8.67,1.63l.1-.46c-2.9-.5-5.81-1-8.72-1.5v.08h-.01Zm11.34-3.54c1.76-8.81,3.85-17.56,5.83-26.31.45-1.99.09-2.36-1.99-2.24-2.47.16-4.93.39-7.4.42-1.65.02-2.35.73-2.69,2.29-1.09,5.04-2.28,10.06-3.42,15.09-.75,3.22-1.51,6.45-2.19,9.69-.53,2.48-.11,3.11,2.32,3.59,2.06.41,4.11.75,6.18,1.1,1.83.12,2.77-.76,3.35-3.63h0Zm3.53,2.97c1.04-4.78,2.08-9.58,3.15-14.36,1.15-5.16,2.23-10.34,3.5-15.48.67-2.68,1.19-2.88,3.84-2.99,4-.16,8.01-.39,12.25-.62-.87-1.26-1.91-.82-2.77-.79-2.92.09-5.83.32-8.75.42-3.93.13-4.29.36-5.58,4.08-.19.54-.33,1.1-.5,1.65-1.97,6.67-3.47,13.45-4.66,20.3-.44,2.55-.69,5.13-1.03,7.71.19.03.37.06.55.09h0Zm-26.56-1.55c1.19.21,2.38.43,3.56.66,3.01.62,3.42.34,4.07-2.74.98-4.62,2-9.22,3-13.83.97-4.48,1.94-8.96,2.91-13.45.33-1.51-.06-2.25-1.79-2.08-2.02.2-4.05.32-6.08.24-1.8-.07-2.72.8-3.21,2.36-2.59,8.16-4.31,16.51-5.44,24.27-.18,3.42.39,4.14,2.98,4.58h0Zm14.25-20.32c.37-.21.38-.6.47-.96.61-2.4,1.19-4.82,1.86-7.2.39-1.42,1.23-2.2,2.89-2.19,2.66.03,5.33-.18,7.99-.32.57-.03,1.27.25,1.69-.53-.43-.57-1.03-.4-1.56-.38-2.85.1-5.7.3-8.56.32-1.44.01-2.22.68-2.76,1.89-1.32,2.99-1.78,6.15-2.02,9.36,0,0-.02.01-.03.02h0s0,0,0,0c0,.06,0,.13-.01.19-1.23,4.26-2.89,8.42-2.95,12.94,1.02-4.3,2.61-8.48,2.95-12.94l.04-.15s0,0,0,0v-.05h0Zm64.23,5.49c-.31.83-.71,1.63-1.01,2.53-.3.89-.5,1.87-.41,3.04.56-2.17.99-3.86,1.42-5.56h0Zm8.82-19.2c-2.5,0-3.95,1.13-4.5,3.53,1.11-1.5,2.33-2.55,4.17-2.54,13.2.08,26.41-.49,39.61-.05,4.67.15,9.37.17,14.4.83-1.66-1.28-3.26-1.29-4.82-1.32-6.79-.13-13.59-.23-20.37-.29-6.51-.06-13.01-.09-19.52-.13l-3.55-.02c-1.77,0-3.55-.02-5.32-.03h-.09Zm-67.36.09c-2.05-.26-4.08-.21-6.11-.05-2.03.16-4.06.43-6.09.62,4.07-.2,8.13-.37,12.2-.57h0Zm.1,0c4.17-.23,8.34-.41,12.5-.71,7.58-.54,15.18-.85,22.76-1.34,9.44-.61,18.93-.49,28.38-.71,10.03-.23,20.06-.57,30.09-.68,4.1-.05,8.2-.1,12.32.76,4.03.84,8.21.69,12.35.62.85-.02,2.15-.1,2.17-1.02,0-1.11-1.3-.68-2.02-.71-10.29-.42-20.57-.07-30.86-.09-8.45,0-16.89.24-25.33.36-9.47.13-18.93.31-28.37.84-10.2.56-20.4,1.28-30.59,1.98-1.14.08-2.41-.18-3.41.7h-.05s.03.01.03.01h.02Z"/>
        <path class="cls-1" d="m283.6,82.59c.7-.07,1.81.39,1.88-.4.12-1.4.99-1.1,1.72-1.16,3.03-.27,6.07-.49,9.11-.7,1.32-.09,1.84-.83,1.98-2.1.26-2.28-.37-4.3-1.22-6.41-4.15-10.38-9.91-20.11-12.74-31.06-.96-3.72-3.01-7.05-4.04-10.73-.4-1.39-.95-1.84-2.18-2-3.97-.54-7.91-1.14-11.88-1.68-2.15-.3-4.3-.51-6.45-.76,0-.09.02-.17.02-.25,1.48.05-18.42-1.62-20.49-1.8-11.55-1.06-23.06-2.56-34.64-3.23-9.96-.58-19.89-1.28-29.84-1.98-4.73-.33-9.49-.17-14.21-.7-1.76-.21-3.55-.21-5.33-.25-.49-.01-1.31-.27-1.3.63.02.62.23,1.27,1.2.95.69-.22,1.37.2,2,.49,2.77,1.2,3.41,3.41,3.81,6.32,2.15,15.75,4.56,31.47,6.99,47.17.79,5.03,4.07,7.82,9.18,7.99,5.77.19,11.55.18,17.34.38,5.63.19,11.3-.24,16.88.91.48.1,1.02.14,1.34-.4h0s0,0,0,0h0c-.1.78-.6,1.77.43,2.16,1.5.57,2.84,1.39,4.21,2.18.88.51,1.26.2,1.22-.84-.03-1.1-.6-1.9-1.23-2.69-.68-.85.18-1.29.55-1.75.49-.62.83-.2,1.06.37.4.99,1.3.64,1.99.64,9.33.03,18.66.28,27.98.69,3.78.16,4.09-.2,5.26-3.52.91-2.62.67-4.99-.26-7.53-3.2-8.74-6.26-17.52-9.36-26.3-.21-.6-.44-1.21-.56-1.82-.09-.46.05-.9.56-1.1.48-.21.9-.03,1.18.34.27.35.47.76.63,1.17,2.97,7.34,4.9,15.08,8.48,22.18.1.21.22.55.13.71-.55.94.03,1.74.26,2.56,1.09,3.78,1.97,7.65,4.58,11.07-1.34.04-2.29.18-2.14,1.57.12,1.03.22,2.19.96,2.85,2.89,2.55,4.06,6.1,5.63,9.42.52,1.11.9,2.34,2.37,3.54-.76-3.43-1.73-6.21-3-8.89-.73-1.55-2.53-3.03-.28-4.76.11-.08.05-.48-.02-.7-.18-.61.2-.61.6-.64,5-.36,9.99-.73,14.98-1.1.71-.05,1.37.09,1.96.49,0,.02-.02.05-.02.07l.05-.06-.02-.02c.31-.84,1.6-.72,1.76-1.86.04-.29,1.25-.22,1.7.25.44.46.35,1.1-.32,1.41-.34.15-.36.43-.44.69-.03,0-.06,0-.09.01l.07.06s.02-.05.02-.07h0Zm-128.13.4c-.45-1.19-.08-1.46,1.06-1.37,1.2.1,2.4.1,3.61.14.45.01,1.14.75,1.17-.44.03-.97-.49-.86-1.21-.9-1.95-.12-3.95.07-5.86-.55-.48-.16-1.05-.3-1.15-.88-.13-.74.61-.7,1-.93,3.43-1.98,5-5.02,4.47-8.95-1.22-8.97-2.47-17.93-3.74-26.9-.61-4.4-1.4-8.79-1.87-13.21-.28-2.66-1.98-4.7-4.6-4.7-4.2-.02-8.38-.22-12.56-.52-1.22-.09-2.84-1.06-3.74.8-.03.08-.41.11-.53.03-1.69-1.16-3.58-.5-5.36-.52-8.89-.1-17.78-.1-26.67-.12-2.56-.01-3.38.56-4.29,2.94-.22.6-.42,1.21-.56,1.83-2.76,11.74-5.49,23.47-8.26,35.2-.81,3.46-.85,3.45,2.64,4.07.68.12,1.35.35,2.03.46,11.66,1.88,23.14,4.63,34.78,6.65,1.98.34,3.96.73,6.12,1.14-.85.75-1.53.43-2.18.31-6.79-1.32-13.56-2.68-20.35-3.96-7.67-1.44-15.33-2.82-23-4.23-1.18-.22-2.27-.6-1.96-2.23-.19.38-.26.77-.46,1.08-.94,1.52-.24,2.15,1.23,2.41.3.05.62.11.92.17,10.9,1.81,21.71,4.11,32.52,6.31,10.77,2.18,21.59,4.04,32.54,5.04,2.93.26,3.66.82,4.03,3.81.3,2.4.82,5.16,1.06,7.57.22-3.18.3-6.43-.86-9.54h0Zm57.27-1.18h0c.6.05,1.55.48.89-.82-.3-.61.12-.64.48-.65.75-.01,1.49.03,2.22.06.07.16.17.32.14.36-.64.67.2,2.17-.69,2.26-.99.1-2.16-.47-3.05-1.21h0Zm-78.76-4.76c2.98.01,5.94.27,8.88.66,2.94.38,5.87.89,8.79,1.41-5.98.16-11.85-.71-17.67-2.06h0Zm21.55-17.81c-1.3-9.78-2.76-19.55-4.14-29.32-.03-.24,0-.49.03-.89.67.24.68.76.79,1.18,1.11,4.51,1.47,9.13,2.02,13.72.94,7.9,2.06,15.79,3.09,23.67.27,2.07.53,4.16-1.26,5.78,1.62-4.81.09-9.47-.53-14.15h0Zm-73.25,4.11c-.83.02-1.28,1.43-.99,2.56.03.12-.06.27-.02.37.26.65-.48,1.86.42,1.94,1.18.1.89-1.25,1.12-2.04.05-.18.04-.37.06-.69-.33-.66.34-2.16-.59-2.14h0Zm-22.65.61s0-.04,0-.06c0,0-.04.05-.04.05h.04c.03.71.59.6,1.07.68,1.75.3,3.49.61,5.23.92,3.61.66,7.24,1.34,10.85,2.02.03-.16.06-.31.09-.46-5.75-1.06-11.49-2.11-17.24-3.16h0Zm1.89-1.4c5.01.87,10,1.78,14.99,2.71,1.65.31,2.58-.41,2.87-1.98.3-1.62.46-3.28.72-4.92,1.68-10.27,3.89-20.42,6.76-30.43.88-3.03.38-3.75-2.49-3.7-4.82.07-9.65.26-14.48.28-2.1,0-3.04.91-3.46,2.95-1.22,5.93-2.6,11.83-3.91,17.74-1.06,4.79-2.14,9.59-3.21,14.38-.17,1.7.45,2.68,2.21,2.97h0Zm-1.99,1.36c-2.21-1.36-1.2-3.43-.85-5.13,1.67-8.11,3.5-16.21,5.32-24.29.69-3.05,1.11-6.16,2.26-9.09.59-1.51,1.48-2.37,3.42-2.33,5.59.1,11.17-.1,16.76-.23.37,0,1.03.31,1.1-.36.07-.68-.54-.77-1.06-.81-.51-.03-1.02-.02-1.53,0-4.7.09-9.39.17-14.09.27-3.44.07-4.25.62-5.52,3.86-.3.77-.52,1.57-.73,2.37-2.63,9.85-4.7,19.82-6.48,29.87-.3,1.66-.29,3.26.03,4.9.18.92.6,1.15,1.36.97h0Zm-7.48-1.69c-3.63-.65-7.25-1.31-10.87-1.96-.02.11-.04.21-.06.32,3.64.71,7.27,1.41,10.91,2.11,0-.15.01-.31.02-.47h0Zm6.6-37.84c-3.3.16-6.59.4-9.89.47-1.7.03-2.52.75-2.85,2.39-.92,4.42-1.95,8.84-2.92,13.26-1.09,4.98-2.17,9.96-3.22,14.95-.46,2.21.02,2.92,2.2,3.33,2.92.57,5.87,1.03,8.8,1.57,2.33.43,2.84.18,3.27-2.14,1.27-6.7,2.39-13.44,4.07-20.05.96-3.82,1.85-7.68,2.79-11.51.24-1.81-.71-2.34-2.25-2.27h0ZM23.91,57.12c-.02.08-.03.17-.04.25,2.89.54,5.78,1.09,8.67,1.63l.1-.46c-2.9-.5-5.81-1-8.72-1.5v.08h-.01Zm11.34-3.54c1.76-8.81,3.85-17.56,5.83-26.31.45-1.99.09-2.36-1.99-2.24-2.47.16-4.93.39-7.4.42-1.65.02-2.35.73-2.69,2.29-1.09,5.04-2.28,10.06-3.42,15.09-.75,3.22-1.51,6.45-2.19,9.69-.53,2.48-.11,3.11,2.32,3.59,2.06.41,4.11.75,6.18,1.1,1.83.12,2.77-.76,3.35-3.63h0Zm3.53,2.97c1.04-4.78,2.08-9.58,3.15-14.36,1.15-5.16,2.23-10.34,3.5-15.48.67-2.68,1.19-2.88,3.84-2.99,4-.16,8.01-.39,12.25-.62-.87-1.26-1.91-.82-2.77-.79-2.92.09-5.83.32-8.75.42-3.93.13-4.29.36-5.58,4.08-.19.54-.33,1.1-.5,1.65-1.97,6.67-3.47,13.45-4.66,20.3-.44,2.55-.69,5.13-1.03,7.71.19.03.37.06.55.09h0Zm-26.56-1.55c1.19.21,2.38.43,3.56.66,3.01.62,3.42.34,4.07-2.74.98-4.62,2-9.22,3-13.83.97-4.48,1.94-8.96,2.91-13.45.33-1.51-.06-2.25-1.79-2.08-2.02.2-4.05.32-6.08.24-1.8-.07-2.72.8-3.21,2.36-2.59,8.16-4.31,16.51-5.44,24.27-.18,3.42.39,4.14,2.98,4.58h0Zm14.25-20.32c.37-.21.38-.6.47-.96.61-2.4,1.19-4.82,1.86-7.2.39-1.42,1.23-2.2,2.89-2.19,2.66.03,5.33-.18,7.99-.32.57-.03,1.27.25,1.69-.53-.43-.57-1.03-.4-1.56-.38-2.85.1-5.7.3-8.56.32-1.44.01-2.22.68-2.76,1.89-1.32,2.99-1.78,6.15-2.02,9.36,0,0-.02.01-.03.02h0s0,0,0,0c0,.06,0,.13-.01.19-1.23,4.26-2.89,8.42-2.95,12.94,1.02-4.3,2.61-8.48,2.95-12.94l.04-.15s0,0,0,0v-.05h0Zm64.23,5.49c-.31.83-.71,1.63-1.01,2.53-.3.89-.5,1.87-.41,3.04.56-2.17.99-3.86,1.42-5.56h0Zm8.82-19.2c-2.5,0-3.95,1.13-4.5,3.53,1.11-1.5,2.33-2.55,4.17-2.54,13.2.08,26.41-.49,39.61-.05,4.67.15,9.37.17,14.4.83-1.66-1.28-3.26-1.29-4.82-1.32-6.79-.13-13.59-.23-20.37-.29-6.51-.06-13.01-.09-19.52-.13l-3.55-.02c-1.77,0-3.55-.02-5.32-.03h-.09Zm-67.36.09c-2.05-.26-4.08-.21-6.11-.05-2.03.16-4.06.43-6.09.62,4.07-.2,8.13-.37,12.2-.57h0Zm.1,0c4.17-.23,8.34-.41,12.5-.71,7.58-.54,15.18-.85,22.76-1.34,9.44-.61,18.93-.49,28.38-.71,10.03-.23,20.06-.57,30.09-.68,4.1-.05,8.2-.1,12.32.76,4.03.84,8.21.69,12.35.62.85-.02,2.15-.1,2.17-1.02,0-1.11-1.3-.68-2.02-.71-10.29-.42-20.57-.07-30.86-.09-8.45,0-16.89.24-25.33.36-9.47.13-18.93.31-28.37.84-10.2.56-20.4,1.28-30.59,1.98-1.14.08-2.41-.18-3.41.7h-.05s.03.01.03.01h.02Z"/>
        <path class="cls-3" d="m223.58,240c.98-.01,1.96-.02,2.83-.28.87-.26,1.64-.78,2.18-1.83-1.38,1.46-3.3,1.56-5.02,2.11h0ZM3.31,59.71h-.05s.01.58.01.58c.09,6.05.11,11.98-.07,17.9-.05,1.85.76,3.06,2.66,3.63,1.18.36,2.66.45,3.28,1.88,2.85.69,2.85.68,2.92-2.36,0-.21-.1-.53.26-.57.38.59.67,1.26,1.14,1.74,1.23,1.24,2.59,2.86,4.49,1.95,1.8-.87,3.25-.24,4.69.37,1.78.76,3.62,1.11,5.47,1.52,4.5,1.02,4.61,1.21,4.08,5.87-.01.11-.11.2-.27.45-.76-1.25-2.18-.84-3.22-1.42-1.69-.96-3.37-.94-5.03.06-.68.4-1.48.76-2.18.45-2.74-1.2-6.34-.41-8.23-3.64-.33-.58-1.14-.76-1.84-.89-1.5-.26-2.96-.72-4.36-1.33-.48-.2-1.19-.76-1.5-.06-.33.73.38,1.07,1.03,1.29,1.26.43,2.53.9,3.72,1.88-1.36.14-2.42.03-3.5-.45-1.86-.83-2.84-.07-3.09,2.09-.33,2.85-.52,5.64-.02,8.54.44,2.57.21,5.29.05,7.92-.11,1.94.47,3.71.71,5.54.23,1.72.47,3.22,1.6,4.53.5.58.8,1.21.48,2.01-.87-.18-1.2-1.08-2.05-1.07,1.13,3.59,3.51,5.6,6.88,5.6,1.27,0,1.71.35,1.59,1.59-.07.69.02,1.41.01,2.11-.06,9.99,1.27,19.72,4.96,29.07.82,2.09,2.28,3.07,4.23,3.71,4.01,1.32,7.76-.29,11.62-.88,2.39-.36,3.42-1.92,4.07-3.99.6-1.98.45-4.05.71-6.07.34-2.74.78-2.96,2.99-1.37,13.43,9.65,26.85,19.31,40.28,28.95,1.42,1.01,2.36,2.24,2.61,4.01.19,1.29.93,2.1,2.29,2.1,1.64-.01,2.27.81,2.21,2.39-.22,6.02.67,11.95,1.57,17.88,1.54,9.99,4.66,19.42,9.84,28.11,2.17,3.63,5.65,5.59,9.42,7.08.67.27,1.35.29,2.06.17,6.24-1.13,12.49-2.28,18.74-3.35,1.06-.19,1.69-.69,2.26-1.53,1.18-1.77,1.92-3.73,2.69-5.69.57-1.49,1.38-2.11,3.06-1.41,3.35,1.39,6.89,2.22,10.34,3.33,14.48,4.67,29.4,6.19,44.53,6.1,6.91-.04,13.82-.44,20.74-.14,1.21.07,2.17.4,3.13,1.13,1.27.95,2.34,2.27,4.05,2.58-.9-.62-1.62-1.4-2.27-2.23-1.57-2-3.4-2.99-6.08-2.38-1.65.39-3.42.31-5.12.35-18.62.47-37.06-.87-55.22-5.2-8.86-2.1-17.2-5.4-24.69-10.69-4.99-3.53-6.44-8.58-4.16-14.19.21-.53.45-1.05.69-1.57,1.74-3.88,2.8-4.36,6.59-2.65,9.41,4.26,19.16,7.43,29.33,9.32,1.76.33,2.25-.03,2.45-1.81.69-6.15,4.02-10.28,9.81-12.44,3.74-1.4,7.52-.81,11.31-.51,11.35.91,22.7,1.17,34.08.87,1.41-.05,2.46-.6,3.65-1.52,4.74-3.71,4.82-3.61,8.92-.35.05.04.1.09.14.13.6.66,1.34.88,2.22.79,7.58-.79,15.15-1.6,22.67-2.8,1.28-.2,1.49-.71,1.22-1.92-.75-3.37-1.81-6.64-2.93-9.9-2.62-7.58-5.92-14.82-10.91-21.15-5.15-6.54-11.02-12.35-17.55-17.48h.06c.63-.04,1.15-.09.33-.86-.74-.68-1.7-1.15-2.21-2.07l.03-.03-.07-.05s.03.05.04.07c-.78.74.31,1.14.35,1.73h0s-.05-.03-.05-.03c-2.07-1.71-4.55-2.91-6.09-5.27-.53-.83-2.13-.7-2.11-2.17-.73.53-1.43.46-2.04-.19-.62-.66-1.35-1.04-2.27-1.12-.02.01-.04.02-.05.04,0-.02,0-.04,0-.06-1.16-1.45-2.76-2.31-4.27-3.3-.76-.49-1.6-.91-2.23-1.82,1.68.28,3.09.12,4.61,1.07,1.79,1.13,2.38,2.17,1.88,4.05,0,0,0,0,.01.01,0,0,.01,0,.02,0h0s.01,0,.02,0c.24-.16.49-.31.72-.48,1.46-1.14,3.22-.36,3.72,1.65.37-.04.82-.21,1.09-.06,2.64,1.48,5.51,2.72,6.69,5.87.83.08,1.45.6,2.14,1.01,1.81,1.04,3.22,2.7,5.25,3.4-.15-.24-.28-.49-.48-.68-4.67-4.32-9.39-8.58-14.78-12.02-6.42-4.09-12.88-8.1-19.47-11.92-.28-.17-.74-.23-.73-.84,1.45.24,2.48,1.24,3.67,1.9,9.3,5.14,18.27,10.82,26.56,17.51,8.59,6.92,16.34,14.7,23.61,23.03,4.13,4.73,7.06,9.93,8.8,15.88,1.25,4.27,2.69,8.51,3.41,12.94.11.66.02,2.07,1.07,1.85.83-.18.14-1.34.04-2.04-.21-1.52-1.02-2.86-1.27-4.4-.97-6.01-2.52-11.86-5.35-17.29-1.33-2.53-2.71-5.03-4.31-7.98,3.02,2.64,4.31,5.93,6.37,8.65-.25-1.65-1.02-3.06-1.84-4.38-.65-1.03-.64-2.69-1.16-3.08-1.68-1.29-2.62-3.1-3.9-4.64-10.35-12.43-22.53-22.7-36.12-31.41-4.86-3.11-10.2-5.26-14.95-8.55-3.78-2.61-8.2-4.06-12.33-6.01-7.64-3.59-15.16-7.47-22.72-11.23-1.44-.71-3.05-1.27-3.01-3.44-.64,2.57-.05,5.02-.02,7.46-.94-2.37-.76-4.9-1.22-7.34-.55.2-1.17.69-1.54.54-2.14-.88-1.62.83-1.68,1.74-.08,1.34.08,2.68.1,4.01.02.92-.48,1.35-1.4,1.46-.86.1-1.3-.07-1.39-1.03-.1-1.02-1.05-1.21-1.79-1.5-4.81-1.83-9.6-3.7-14.44-5.44-11.12-3.98-22.4-7.49-33.78-10.66-11.3-3.14-22.58-6.34-33.99-9.09-13.01-3.14-26.01-6.38-39.02-9.56-5.67-1.38-11.36-2.73-17.04-4.04-3.84-.89-7.65-1.92-11.68-2.37h0Zm295.17,155.71c-1.52-.85-2.72-.46-4.06.28-3.36,1.83-6.89,3.28-10.44,4.68-16.84,6.61-34.42,10.18-52.26,12.68-2.34.33-2.46.46-2.18,3.21.49-1.51,1.45-2.01,2.75-2.2,3.52-.51,7.02-1.18,10.53-1.73,18.36-2.91,36.02-8.16,52.88-16.05,1.15-.53,2.19-.5,3.31-.06,1.23.47,2.45,1.04,4.1.74-1.6-.87-3.29-.82-4.63-1.55h0Zm-142.79,12.26c2.69,1.2,12.27,2.62,22.09,3.59,9.81.98,19.87,1.52,23.5.99-15.33-.12-30.5-1.76-45.59-4.59h0Zm57.95-13.53c.84,0,1.37-.17,1.69-1.09.84-2.33,1.95-4.59,2.69-6.95,1.37-4.49,1.42-3.68-2.68-3.6-12.14.29-24.25-.01-36.33-1.25-5.81-.59-10.03,2.82-10.58,8.62-.13,1.4.17,2,1.7,2.19,11.29,1.41,22.63,2.01,33.99,2.26,3.17-.06,6.34-.14,9.51-.17h0Zm84.74-27.33c-9.35,3.86-19,6.79-28.84,9.09-.66.16-1.06.49-1.38,1.15-.84,1.75-1.5,3.34-3.74,4.29-3.2,1.38-4.16,1.43-5.24-2.02-.26-.83-.49-1.33-1.55-1.14-7.75,1.38-15.57,2.31-23.41,3-1.14.11-1.48.64-1.55,1.69-.17,2.42-.33,4.84-.68,7.24-.3,1.93.39,2.19,2.11,1.93,12.1-1.84,24.18-3.77,36.03-6.88,5.1-1.33,10.28-2.31,15.19-4.31,3.27-1.33,6.53-2.73,10.19-3.52-1.59-.39-1.02-1.18-.47-2.02,1.71-2.64,2.86-5.57,4.37-8.64-.6.07-.84.05-1.05.13h0Zm-34.26,10.3c-.16-.16-.44.32-.39.68.13.9.6,1.53,1.49,1.76.88.22,1.01-.55,1.26-1.09.26-.55.47-1.14.79-1.94-1.31-.11-1.9,1.77-3.15.6h0Zm41.48-100.41c.13,2.97-.64,5.78-.3,8.63.16,1.39.03,2.81.04,4.22,0,1.17.78,3.97.62,4.45-.72,2.08-.8,4.25-.82,6.43-.01.71.58,2.01-1.18,1.53-.55-.15-.5.53-.34.81,1.68,3.01.94,6.42,1.69,9.57.34,1.46.09,2.43-.87,3.52-1.49,1.73-2.3,3.95-3.87,5.64-.34.36-.44.8-.38,1.24.22,1.88-.25,3.68-.65,5.49-.14.65-.33,1.33.56,1.53.79.19.83-.44,1.2-.99.99-1.46.74-3.46,2.17-4.68.13-.1.28-.34.24-.46-.73-2.8,1.79-4.93,1.53-7.7-.09-.9,1.26-.48,1.94-.49.41,0,1.28.32.5,1.13-.2.22-.13.36.08.61,2.51,2.74,1.62,5.87.87,8.93-.21.85-.91,1.52-1.9,1.71-.52.1-.99.29-1.01.94-.03.97-.63,1.32-1.51,1.33-1.06.02-1.68.76-2.28,1.46-.38.46-.18,1.63-1.39.86-.26-.16-.22.39-.28.7-.13.89.12,1.95-1.33,2.24-.73.14-.58,1.17-.49,1.85.34,2.77,1.21,5.31,3.35,7.2.83.73,1.03,1.48.97,2.5-.07,1.21-.01,2.43-.07,3.64-.03.62.28,1.5-.91,1.49-.36,0-.33.47-.38.77-.07.31-.09.63-.13.95-.23,2.14.29,4.77-1.02,6.3-1.23,1.42-3.66,1.8-5.58,2.61-7.1,2.98-14.58,4.78-21.98,6.8-.45.12-1.15.51-1.49,0-.3-.45.09-1.05.29-1.51,2.23-4.94,3.87-10.11,5.89-15.13,2.44-6.06,4.71-12.2,7.34-18.18h0c-6.02,11.47-9.98,23.24-14.96,35.47-.98.03-.57-1.18-.35-1.71,3.58-8.39,6.36-17.1,9.59-25.62,1.14-3,1.9-6.2,3.53-8.96,4.76-8.13,7.11-17.28,11.03-25.75m8.68,34.43c-.06.32.24.81.66.81.47,0,.49-.49.57-.85.31-1.33.99-2.45,1.82-3.52.64-.82,1.14-1.77,1.3-3.06-1.73.62-2.21,3.75-4.8,1.72-.24,1.95.74,3.35.45,4.9h0Zm-65.69-13.87c.9,2.26,2.98,3.41,4.6,5.01-1.38-1.83-2.71-3.68-4.6-5.01l-.04-.09s-.08-.04-.12-.06c-1.45-1.8-3.15-3.33-5.08-4.6-.02-.04-.04-.08-.06-.12l-.05.05s.07.05.11.07c1.17,2.12,2.93,3.58,5.08,4.6.02.03.05.06.07.09l.08.06h0Zm-58.68-9.03c-2.81-1.31-4.8-3.53-5.59-6.63-.08-.33-1.03-1.75.75-1.29.33.09.25-.36.29-.58.14-.94.29-1.88.43-2.84-.8-.51-.47,1.03-1.26.6.13-1.63.97-2.95,2.04-4.12.51-.55,1.11-1.06,1.75-1.46,1.15-.72-.07-.97-.17-1.46-.13-.62,3.57-1.96,3.71-1.44.43,1.75,1.78.97,2.65,1.02,2.76.16,5.21,1.01,7.34,2.76.35.28.72.54.86,1.27-1.37-.44-2.19-1.73-4.09-1.92,2.1,1.26,3.68,2.44,4.58,4.2.58,1.14,1.74,2.44,0,3.67-.1.08-.18.44-.14.47,1.87,1.17-.17,2.32,0,3.63,1.09-.83,1.63-1.94,2.4-3.53-.07,1.64-.6,2.54-1.17,3.42-3.05,4.74-10.33,6.11-14.38,4.23h0Zm20.16-17.44c.23-.69.75-.66,1.21-.34,1.96,1.32,4.19,2.28,5.98,3.89-1.56,1.18-2.73.4-3.87-.52-.84-.67-1.69-1.3-2.73-1.65-.66-.23-.81-.75-.6-1.37h0Zm109.55-4.74c-.55.98-1.04,1.86-1.23,2.74-.2.88-.11,1.74.49,2.69.63-1.63,1.25-3.25.75-5.42h0Zm-144.05-17.19c.31,0,.66.27.95.39,3.93,1.55,7.37,4,11.16,5.79.66,2.29,3.04,1.21,4.38,2.29,1.3,1.03,3.24,1.18,3.97,3.01.02.05.1.09.16.1,2.07.55,3.8,1.81,5.65,2.81,1.03.54,1.13.35,1.77,1.69-1.74-.39-3.15-1.55-4.89-1.65,2.06,1.2,4.12,2.4,6.18,3.61,0,0,.02,0,.03,0h.02s.02,0,.03,0c-.01.01-.02.02-.03.04,1.12.58,2.26,1.14,3.37,1.74.76.41,1.23,1.14.76,1.89-.52.84-1.12-.05-1.6-.28-.67-.32-1.2-1.03-1.89-1.21-1.61-.41-1.36-1.17-.63-2.14t-.01-.01s-.02-.01-.03-.02c-2.31.6-4.22-.74-6.23-1.46-1.58-.57-3.02-1.56-4.54-2.35-.4-.21-.53-.51-.38-.94-1.25.36-2.19-.36-3.19-.87-1.19-.59-2.37-1.19-3.54-1.81-.41-.21-1.1-.32-.83-1.02.21-.5.74-.39,1.18-.31,2.5.44,4.35,2.18,6.52,3.3.29.15.1.58-.11.84,1.86-.57,3.25,1.11,5,1.06-5.12-3.49-10.69-6.1-16.24-8.78-2.34-1.13-4.51-2.59-6.75-3.93-.49-.29-1.04-.8-.75-1.4.13-.27.3-.37.49-.37h.01Zm-152.22,1.42c-.37.16-.78.44-.47.85,1.6,2.13-.63,2.3-1.54,2.55-1.92.53-2.52,1.64-2.49,3.44.03,1.38.4,2.82-.83,4.17-.15-4.97-.32-9.78-.46-14.6-.02-.56-.02-1.31.67-1.43.76-.12,1.83-.54,2.32.07.86,1.08,2.06,1.65,2.97,2.6.71.72,1.44,1.66-.17,2.33h0Zm156.05,3.69h.03c.06,0,.12.01.17.03,1.26.39,2.72.62,2.89,2.33.03-.01.06-.02.09-.03,0,.01,0,.02,0,.03h0s0,.03,0,.04c.41-.65.95-.74,1.59-.22.48.39,1.08.84.51,1.52-.54.62-.99-.06-1.43-.29-.39-.2-.54-.6-.66-1.01-.03.04-.06.06-.09.11l-.03-.14c-1.51.62-2.5-.56-3.67-1.14-.13-.06-.18-.47-.13-.67.09-.35.4-.54.71-.55h0Zm-20.7-10.76c-1.93-.4-3.92-.18-5.81-.86-6.22-2.21-12.46-4.39-18.72-6.47-2.56-.85-5.22-1.44-7.83-2.15-.05.16-.09.32-.13.49,13.79,3.98,27.27,8.81,40.63,14.53-.03-1.26-.75-1.34-1.31-1.57-1.7-.69-3.42-1.37-5.14-2.02-.92-.35-1.75-.75-1.68-1.94h0Zm-113.24-8.17c.55-.36.68.14.81.43.59,1.24,1.64,1.71,2.91,1.83,2.58.23,5.17.39,7.75.68.64.07,1.99-.72,1.6,1.27-.14.72,1.44,1.55,3.17,1.54-1.69.94-2.46,1.46-4.25.84-2.9-.99-6.2-1.38-9.34-.75-1.55.31-2.68,1.39-2.66,3.26.01,1-.14,2.02-.39,3.03.14-4.04.28-8.08.4-12.12h0Zm113.3,8.13c2.66.36,5.02,1.91,7.78,1.97-2.09-.77-4.01-1.84-5.95-2.85-1.26-.66-2.2-2.01-3.76-2.06-1.57-.07-2.94-.75-4.35-1.31-2.54-1.01-5.03-2.15-7.63-2.98-2.66-.85-5.1-2.39-7.78-2.96-2.61-.55-5.2-1.15-7.77-1.8-11.69-2.95-23.36-5.96-35.04-8.94-.73-.19-1.48-.37-1.96.79,6.47,1.7,12.81,3.5,19.21,5.03,10.19,2.44,20.21,5.5,30.21,8.59,5.79,1.8,11.59,3.64,16.97,6.54v.02s.07.01.07.01l-.07-.04v-.03s.07,0,.07,0h0Zm-95.64-5.76c.56-.77,1.11.14,1.52.47,1.79,1.47,4.06,1.89,6.17,2.71-1.26,2.59-2.72,1.01-4.13.56.16-.65.71-.19,1.04-.61-1.17-.72-2.31-1.42-3.46-2.12,1.79,1.87.39,3.73-.02,5.58.03-.7-.01-1.4.08-2.1.14-.96,0-1.71-.95-2.22-1.11-.61-.72-1.65-.25-2.29h0Zm-37.93,4.34c-2.2-.38-4.23.31-6.29.86-.52.13-1.08.31-1.3-.31-.38-1.09-.52-2.26.12-3.29.37-.61,1.02-.32,1.53-.03,1.29.73,2.5,1.67,4.09,1.59.39-.02.95-.04,1.07-.53.04-.13-.53-.41-1.13-.85,1.02-.14,1.52-.31,2-.26,1.03.1,1.29.92,1.33,1.78.05,1.01-.71,1.16-1.42,1.03h0Zm-.76-7.5c.22.92,1.23.91,1.98,1.15.56.18,1.13.01,1.04-.65-.18-1.34-1.45-.42-1.96-.87-.57-.2-1.19-.19-1.06.37h0Zm-3.17-1.85c-.86.05-1.54-.48-2.33-.7-.45-.12-1.03-.56-1.26.17-.17.52.17,1.16.69,1.19,1.59.09,2.83,1.03,4.24,1.54.34.12.74.36.96-.15.17-.41-.03-.75-.39-.96-.66-.39-1.32-.76-1.97-1.14l.06.05h0Zm97.55-.69c-2.09-.83-4.21-1.54-6.36-2.14-2.15-.6-4.33-1.08-6.53-1.45,4.23,1.45,8.45,2.91,12.89,3.59h0Zm-53.41-15.35c1.03.88,2.41.89,3.64,1.18,6.52,1.55,13.07,3.03,19.62,4.5.47.1,1.32.47,1.46-.31.14-.81-.79-.65-1.26-.76-5.74-1.3-11.49-2.56-17.24-3.84-2.02-.44-4.03-.91-6.04-1.36-.06.19-.11.39-.17.59h0Zm-18.57-3.84c5.46.87,10.76,2.4,16.14,3.58.48.11,1.28.64,1.46-.13.19-.8-.79-.64-1.26-.75-5.32-1.21-10.65-2.37-15.99-3.53-.4-.09-.86-.34-1.3.42.38.17.65.36.94.41h0Zm-17.97-5.28c-3.86-1.07-7.85-1.65-11.8-2.37-.63-.12-1.39-.09-2.21,1.21,10.17,2.13,20.04,4.3,30.05,5.87-1.64-1.17-3.12-2.41-5.21-2.66-2.27-.26-4.5-.87-6.74-1.33-.02.08-.04.16-.05.25.45.19.9.38,1.36.58-1.98-.04-3.63-1.06-5.4-1.55h0Z"/>
        <path class="cls-5" d="m179.59,228.35c-4.58-1.02-9.34-1.22-13.89-2.63,7.07.72,14.14,1.46,21.24,1.95,8.44.58,16.88.27,25.32.14.51,0,1.02.01,1.53.05,1.03.05,2.1.43,2.06,1.53-.02,1.17.07,2.64-1.53,3.18-1.29.44-2.64.44-3.96.51-14.44.57-28.82-.14-43.1-2.39-6.71-1.06-13.42-2.14-19.91-4.22-4.07-1.3-8.14-2.66-11.94-4.69-.77-.42-1.54-.9-2.22-1.47-.62-.53-1.49-1.27-.9-2.06.62-.85,1.97-.79,2.59-.12,2.92,3.2,7.02,3.66,10.77,4.77,10.39,3.1,21.07,4.56,31.86,5.37.69.06,1.4.06,2.08.08Z"/>
        <path class="cls-4" d="m206.58,156.95h.02c-1.14-2.79-3.72-4.68-6.08-4.18-1.43.3-2.46-.05-3.82-1.18,8.84-1.99,15.67.36,20.82,7.58-.65-2.3-2.17-3.86-3.89-5.25-4.85-3.92-10.47-4.47-16.39-3.77,4.88-1.7,9.51-.36,14.32,1.26-.53-.85-1.13-1.17-1.73-1.48-4.39-2.24-9.07-2.26-13.76-1.58-.94.14-1.42-.12-2.04-.5-.32-.21-.59-.77-.91-.78h0c-.18,0-.37.18-.6.68-.34.77-1.88.4-1.84,1.24.08,1.95-1.33,2.51-2.57,3.06-2.57,1.13-5.5,5.7-5.26,8.63,1.15-.53,1.04-2.24,2.58-2.6-1.04,2.08-2.13,3.98-3.62,5.58-.36.39-.69.66-.74,1.2-.52,4.81.9,9.12,3.87,12.75,3.14,3.82,7.64,5.31,12.4,5.98,10.72,1.5,21.54-3.71,22.74-16.32.16-1.7.1-2.29.09-2.33-.04-.29-.13-.32-.17-1.44-.01-.42-.24-.74-.74-.66-.5.1-.52.5-.51.89.02.7.1,1.4.08,2.1-.1,2.86-.91,5.45-2.8,7.62,1.21-2.22,1.5-4.66,1.69-7.15-.84.91-2.08,1.41-2.18,2.8,0,.14-.38.34-.61.38-1.37.22-1.57,1.27-1.42,2.3.21,1.45-.49,2.03-1.67,2.54-2.62,1.15-5.23,2.37-7.78,3.66-3.07,1.54-6.21,1.7-9.43,1.62-2.06-.06-3.68-1.83-3.59-3.48.28.37.68.47,1.21.46.47-.03,1.36.27,1.36.42,0,1.44.87.74,1.49.7,3-.17,5.72-1.28,7.99-3.11,3.15-2.53,5.23-5.67,5.01-10.09-.12-2.59-.34-5.08-1.4-7.45l-.05-.11h-.01s-.01.01-.02.02h-.02c-1.31.35-2.37.83-2.62,2.48-.21,1.47-1.34.6-2.11.5-.59-.07-1.42.25-1.66-.48-.23-.68.5-1.13.89-1.59,1.59-1.94,2.36-2.04,5.5-.92h0Z"/>
        <path class="cls-3" d="m196.69,181.43c-8.75-1.1-14.45-10.03-11.73-18.45,1.1-3.4,3.24-5.98,6.22-7.94.64-.42,1.94-.98,1.18-1.99-.73-.97-1.61.12-2.26.58-1.57,1.13-2.17,3.05-3.5,4.45-1.86,1.95-3.01,4.61-3.54,7.05-.51,2.35-.14,5.17.96,7.66,2.79,6.27,9.14,9.9,16.85,9.19-1.7-.23-2.95-.4-4.19-.57h0Z"/>
        <path class="cls-5" d="m190.97,175.92s-.08-.02-.12-.06c1.79-.79.27-1.85-.08-2.3-.76-.93-.66-1.85-.64-2.85.01-.37.03-.81.55-.84.33-.02.61.1.8.41.33.54.72,1.04,1.04,1.59.63,1.07,1.59.83,2.5.62.37-.07.7-.78.47-.8-1.27-.13-.92-1.36-1.48-1.95-1.8-1.91-1.44-3.69.94-4.48,1.06-.35,1.19-1.54.82-1.68-1.95-.75-.56-2.44-1.25-3.58-.09.88-.18,1.7-.27,2.55-.6-.3.07-1.01-.52-1.32-.1.43-.18.85-.27,1.3-.51-.35-.09-.9-.4-1.25-.48.17.18.99-.56,1.02-.2-1.56-.4-3.11-.6-4.75-5.47,5.59-4.73,12.31-2.47,17.29.29.64.71,1.18,1.53,1.1"/>
        <path class="cls-3" d="m198.52,174.93c.18-.3-.07-.7-.39-.74-1.16-.14-1.6.84-2.22,1.62.89-.31,1.99.11,2.61-.88h0Z"/>
        <path class="cls-3" d="m310.38,197.7h0c-1.98,1.73-1.8,3.98-1.9,6.12-.03.73-.3,2.11.66,2.44,1.02.34,1.6-.76,2.17-1.54,2.61-3.53,4.6-7.14,1.56-11.49-.44.65.09,1.5-.63,2.25-.03-.81-.04-1.42-.07-2.03-.35,1.61-.68,3.28-1.79,4.25"/>
        <path class="cls-4" d="m114.72,214.72c-.47,2.18-1.38,4.2-2.42,6.19-1.59,3.02-6.41,4.12-9.53,1.42-2.45-2.13-4.5-4.59-5.12-7.51-.66-3.1-1.58-6.14-2.17-9.26-.96-5.11-1.35-10.25-1.38-14.94.22-4.32.6-8.13,1.95-11.76.13-.36.26-.72.41-1.08,2.49-5.9,7-6.69,11.08-1.8,3.93,4.71,5.77,10.4,6.95,16.35,1.49,7.46,1.85,14.93.24,22.41h0Z"/>
        <path class="cls-4" d="m102.76,176.04c-1.31.75-2.04,2.62-2.37,3.46-.96,2.41-.83,4.89-.57,4.94.14.02.2-.7.82-1.73.29-.49,1.16-1.42,2.84-1.92.16-.05,1.78-1.05,2.15-.47.39.6-1.45,1.06-2.48,3.16-.74,1.51-.47,3.54-.63,4.58.3-.59.89-1.53,1.96-2.22.88-.57,2.33-1.11,2.7-.66.28.33-.13,1.1-.33,1.48-.85,1.62-2.19,2.44-2.7,2.8-3.18,2.22-4.35,7.95-4.2,7.98,1.02.23,1.25-3.21,3.3-4.45,1.12-.68,2.2-.75,3.52-.82,2.85-.16,5.03-.28,6.14,1.23,1.32,1.81.55,5.17-1.27,6.21-.31.18-1.1.55-4.13-.2-4.34-1.08-6.89-2.91-7.45-2.35-.83.84,2.48,5.97,2.78,6.38,1.8,2.45,4.22,3.36,4.66,3.7,2.05,1.59,3.33,2.74,5.32,2.96,1.45.17,2.3.81,2.47.1.79-3.26.6-18.06-4.45-28.62-2.52-5.26-4.7-7.51-8.08-5.56Z"/>
        <path class="cls-1" d="m104.23,174.31c-2.04.55-3.18,2.09-3.52,2.55-2.69,3.65-.56,8.79-.41,9.14-1.05,2.73-1.05,4.69-.82,6.01.06.34.1.44.25,1.23.51,2.75-.14,3.45.27,4.66.75,2.21,1.81,4.07,2.7,5.29.51.7,1.45,1.62,2.67,2.63.35.29,1.21.68,3.6,2.5,1.45,1.11,2.32,1.38,2.81,1.56.47.18,3.21.82,3.48.56,1-.95.53-11.09-.28-16.6-1.24-8.49-5.36-16.86-8.47-19.11-1.63-1.18-2.29-.44-2.29-.44Z"/>
        <path class="cls-6" d="m109.66,194.03c1.92,1.47,2.23,3.24,2.6,4.95.09.37-.03.72-.62.64-2.74-.4-5.55-.53-8.2-1.35-2.53-.78-5.28-4.66-4.69-7.65.25-1.28.55-2.54.76-3.87-.24.26-.48.52-.92.99.28-1.24.8-2.08,1.34-2.9,1.97-2.99,2.68-3.47,4.4-3.16-2.88,2.67-2.57,6.73-4.24,9.94,1.35-.9,1.97-2.3,2.84-3.5.35-.49.74-1.37,1.41-.99.85.48.02,1.24-.26,1.59-1.36,1.68-1.95,3.65-2.45,5.69-.12.48-.65,1.11-.13,1.35.54.24,1.73.43,1.84.29,1.49-1.82,3.19-.72,4.8-.46.99.17,2,.49,1.54-1.56h0Z"/>
        <path class="cls-4" d="m23.25,149.13c-.36,1.15-.57,2.5-2.03,2.72-1.57.25-2.16-1.06-2.82-2.14-1.16-1.96-1.62-4.15-1.99-6.35-.25-1.44-.43-2.87-1.13-4.2-.57-1.09-.65-2.38-.54-3.56.38-4.19.87-8.36,1.42-12.52.13-.99.48-1.99,1.23-2.76.85-.86,1.61-.52,2.3.21.71.77.54,1.35-.45,1.7-.28.1-.64.28-.49.68.14.37.49.4.8.27,1.44-.64,1.73.33,2,1.39,1.53,5.82,2.3,11.73,2.37,17.74-.01,2.31-.01,4.62-.68,6.84h0Z"/>
        <path class="cls-6" d="m19.02,133.72c2.55-.68,3.51-.36,4.12,1.25.14.37.27.78.04,1.1-.24.33-.57-.01-.86-.07-1.47-.3-2.92-.76-4.47-.73-1.03.02-2.39-2.47-1.95-4.08.61-2.19,1.61-4.26,3.01-6.09.15-.19.51-.22.94-.41-1.36,2.43-2.55,4.68-3.5,7.6,1.96-1.38,2.34-3.56,4.31-4.35-1.6,1.68-.2,4.03-1.64,5.78Z"/>
        <path class="cls-4" d="m19.24,123.42c-.21.31-.23.55-.38,1.18-.11.48-.26.95-.38,1.43-.16.65-.28.75-1.34,3.05,0,0-.22.47-.95,2.91-.05.16-.16.54-.03.63.15.1.53-.21.68-.33,1.16-.96,1.2-2.1,2.21-2.55.29-.13.38-.08.41-.05.23.17-.04.94-.46,2.11-.15.42-.37.99-.44,1.78-.03.39-.01.63.14.74.21.16.49-.05,1.01-.16.1-.02.94-.19,1.72.11.19.07.87.35,1.2,1.02.27.53.12.95.44,1.15.25.16.48.22.58.05.22-.36-.36-3.83-1.35-8.88-.23-1.16-.78-4.08-1.38-4.46-.15-.09-.25-.26-.81-.18s-.77.32-.86.46Z"/>
        <path class="cls-1" d="m82.24,175.56h0c-.42.28-.73-.09-.96-.33-2.18-2.28-4.89-3.86-7.43-5.66-7.53-5.31-15.11-10.57-22.52-16.05-5.78-4.28-11.66-8.4-17.53-12.56-1.81-1.28-3.7-2.45-5.56-3.65-.58-.38-1.47-.7-.84-1.55.56-.77,1,.25,1.32.48,8,5.77,16.07,11.43,24.08,17.15,7.49,5.38,14.93,10.82,22.62,15.89,2.12,1.39,4.09,3.02,6.12,4.54.41.31.79.66.84,1.36-.01.04-.01.29-.13.37"/>
      </g>
    </g>
    <g id="TEXT">
      <g>
        <path class="cls-6" d="m1041.2,206.2l-35.31-91.66v91.66h-32.19V31.23h34.64l35.42,91.77V31.23h32.08v174.75l.11.22h-34.75Z"/>
        <path class="cls-6" d="m925.14,206.2l-7.8-38.98h-33.86l-7.8,38.98h-32.97l34.97-174.97h45.44l34.97,174.97h-32.97Zm-14.26-71.28l-10.47-52.35-10.47,52.35h20.94Z"/>
        <path class="cls-6" d="m805.63,132.14c4.83-21.61,8.63-38.72,11.42-51.35,2.78-12.62,6.48-29.14,11.08-49.56h33.08l-38.98,174.97h-33.19l-39.09-174.97h33.19c4.53,20.49,8.19,37.03,10.97,49.62,2.78,12.59,6.63,29.68,11.53,51.29Z"/>
        <path class="cls-6" d="m705.13,63.64v110.15c0,8.69-3.3,16.26-9.91,22.72-6.61,6.46-14.15,9.69-22.61,9.69h-67.94V31.23h67.83c8.54,0,16.11,3.25,22.72,9.75,6.61,6.5,9.91,14.05,9.91,22.67Zm-32.3,110.26V63.53h-35.75v110.38h35.75Z"/>
        <path class="cls-6" d="m589.07,206.2h-84.31V31.23h83.64v32.3h-51.35v38.98h44.22v32.41h-44.22v38.98h52.01v32.3Z"/>
        <path class="cls-6" d="m454.53,206.2l-27.51-71.28h-9.58v71.28h-32.41V31.23h64.93c8.54,0,16.11,3.25,22.72,9.75,6.61,6.5,9.91,14.05,9.91,22.67v38.76c0,6.83-2.12,13.03-6.35,18.6s-9.43,9.51-15.59,11.81l28.51,73.4h-34.64Zm-4.34-103.69v-38.98h-32.75v38.98h32.75Z"/>
      </g>
    </g>
  </g>
</svg>