<svg width="193" height="32" viewBox="0 0 193 32" fill="none" xmlns="http://www.w3.org/2000/svg">
<path d="M192.759 20.4186V22.526H192.388V21.0144L191.722 22.0085H191.709L191.049 21.0207V22.526H190.685V20.4186H191.081L191.722 21.4158L192.363 20.4186H192.759ZM188.583 20.7635H189.255V22.526H189.626V20.7635H190.298V20.4217H188.583V20.7635ZM96.3485 21.9207L92.1066 7.20663H88.6723L93.3163 22.526H99.3335L104 7.20663H100.568L96.3485 21.9207ZM81.6999 15.9968V13.3344H75.9906V9.86909H83.362V7.20977H72.7982V22.526H83.5412V19.8667H75.9874V15.9968H81.6999ZM63.3718 16.2979L67.2711 22.526H63.6608L60.0882 16.8216H57.3891V22.526H54.1967V7.20663H60.2956C63.9908 7.20663 66.2939 9.10077 66.2939 12.0235C66.3002 13.9992 65.2508 15.5327 63.3718 16.2979ZM63.0261 12.0235C63.0261 10.6719 62.0363 9.86596 60.3804 9.86596H57.3923V14.1591H60.3804C62.0395 14.1623 63.0261 13.3563 63.0261 12.0235ZM189.626 7.20663H176.904V9.86596H181.67V22.526H184.859V9.86909H189.626V7.20663ZM148.37 14.2344L143.971 7.20977H140.549L146.657 16.969L143.179 22.526H146.789L156.379 7.20977H152.769L148.37 14.2344ZM167.942 13.6166L165.762 13.1337C163.641 12.6507 162.814 12.2869 162.814 11.1988C162.814 10.1294 164.065 9.4865 165.601 9.4865C167.116 9.4865 168.206 10.0322 168.611 11.2991H171.945C171.502 8.74014 169.381 6.96516 165.604 6.96516C162.252 6.96516 159.666 8.81854 159.666 11.481C159.666 13.8988 161.363 15.1909 163.926 15.7334L166.107 16.2164C168.187 16.6805 169.158 17.0631 169.158 18.2736C169.158 19.4621 167.926 20.2492 165.787 20.2492C164.112 20.2492 162.776 19.4433 162.557 17.8094H159.223C159.628 20.9329 162.17 22.7674 165.664 22.7674C169.661 22.7674 172.329 20.9737 172.329 17.9506C172.322 15.5108 170.83 14.2407 167.942 13.6166ZM130.538 7.20663H127.346V22.526H137.573V19.8667H130.538V7.20663ZM118.538 15.9968V13.3344H112.829V9.86909H120.2V7.20977H109.637V22.526H120.38V19.8667H112.826V15.9968H118.538Z" fill="white"/>
<path d="M46.3979 12.9988C42.6996 12.726 30.1405 12.2085 30.1405 12.2085C36.7044 8.00001 45.2008 4.10511 45.6784 2.97928C46.0366 2.13884 45.1254 1.05065 42.3509 0.881302C38.5426 0.649239 31.7241 3.52181 26.5208 7.09057C25.3425 7.89966 23.9976 8.77147 22.9701 9.43316L21.0943 7.60488C20.5067 7.03099 19.5169 7.29755 19.297 8.08782L18.7125 10.1952C18.6717 10.3457 18.722 10.5088 18.8445 10.606L20.3559 11.8134C20.2365 11.8134 20.1202 11.8134 20.0071 11.8165C10.4958 11.9169 4.88084 15.9686 4.10473 16.4703C3.32862 16.9721 1.30823 18.7816 0.767779 20.6004C0.375012 21.9144 -0.0460346 23.6079 2.36713 23.658C5.69465 23.727 10.6592 20.544 15.8375 16.9313C17.1226 16.0627 18.5491 15.0497 19.8563 14.1027L23.1807 14.0713H23.5451C19.1053 17.3892 16.3057 20.0893 15.5673 22.181C14.4769 25.2637 15.3002 26.0571 16.0543 26.0571C16.8775 26.0571 18.2758 24.8842 19.5483 23.3256C21.0094 21.535 23.4038 18.0603 25.3362 15.8024L45.2982 31.7834C45.5024 31.9465 45.7569 31.658 45.5715 31.4761L27.5922 13.9396C27.5922 13.9365 27.5922 13.9365 27.5922 13.9365L46.3885 13.281C46.5676 13.2748 46.577 13.0113 46.3979 12.9988ZM14.4518 15.8714C13.4809 16.4609 11.5925 17.6526 10.3356 18.3237C5.28932 21.0207 3.04583 21.5663 2.69077 20.7008C2.33257 19.8353 3.9162 18.4397 9.02846 16.1975C12.0921 14.8522 15.2373 14.3535 17.1289 14.1685C15.5704 15.194 14.4518 15.8714 14.4518 15.8714ZM27.0266 11.9953C26.5176 11.9733 26.018 11.9514 25.531 11.9294L24.1516 10.5841C26.3259 9.00039 29.0816 7.20347 31.5262 6.03688C39.2056 2.37717 41.9141 3.28347 41.9141 3.28347C41.9141 3.28347 40.918 4.02984 37.2952 6.04315C33.3392 8.24462 29.93 10.1482 27.0266 11.9953ZM14.964 7.25051C14.6152 6.78011 14.6498 5.80482 15.5453 5.00827C15.9192 4.67272 16.3277 4.54415 16.7173 4.55669C17.2986 4.53474 17.8453 4.83893 18.1815 5.26856C18.722 5.96161 18.524 6.68917 17.4965 7.31637C16.9592 7.64251 16.491 7.75854 16.1077 7.746C15.5673 7.76481 15.1713 7.53275 14.964 7.25051Z" fill="white"/>
</svg>
