<svg fill="none" height="217.25561" viewBox="0 0 125 59" width="460.287309" xmlns="http://www.w3.org/2000/svg"><path d="m108.975 24.4768h16.025v-3.3467h-12.218v-5.0007h10.385v-3.2739h-10.385v-9.4985h11.714v-3.3467301h-15.521zm-15.1282 0h3.7735v-21.12149h7.2577v-3.34673456h-18.2908v3.34673456h7.2579v21.12149zm-15.236 0h3.7735v-24.4665301h-3.7735zm-18.0745-9.5713v-11.55019h2.1556c4.7794 0 6.7912 2.12281 6.7912 5.79287 0 3.63452-1.9408 5.75732-6.7912 5.75732zm7.9409 2.0145c3.1987-1.4034 4.8876-3.9934 4.8876-7.77182 0-5.61343-3.7735-9.13960456-10.5292-9.13960456h-6.1082v24.46652456h3.8089v-6.2956h2.2993c.683 0 1.366-.0728 2.049-.1439l4.3838 6.4395h4.3838z" fill="#003da6"/><path d="m.00000505 34.483c.00676252-9.4663.04733955-30.37111.05748335-34.483h47.5472116c.0102 4.11359.0507 25.0184.0575 34.483.0017 2.0399-.421 4.0645-1.3153 5.9012-3.3373 6.8662-11.3086 14.1386-22.5158 17.9305h-.0017-.0017c-11.2055-3.7919-19.17677-11.0643-22.51577-17.9305-.890957-1.8367-1.31361558-3.8613-1.31192495-5.9012z" fill="#003da6"/><g fill="#fff"><path d="m34.2808 23.7556c1.4979-2.6019 2.9214-5.2376 3.4016-5.8098.9687-1.1562 5.0499-2.9743 4.896-4.0882-.0777-.5637-1.1192-1.6438-2.1285-2.5714-1.087-.8346-2.3297-1.67424-2.8977-1.65223-1.1209.04232-2.2029 4.38273-3.1716 5.53893-.8758 1.0445-7.9663 6.3888-9.6451 8.5827z"/><path d="m14.2334 47.4214c1.3322 1.0055 2.8081 1.9738 4.4345 2.8727h10.3298c1.6264-.9006 3.1023-1.8689 4.4345-2.8727z"/><path d="m41.603 38.0718c.5123-1.0546.7828-2.2937.7828-3.5854-.0017-2.0077-.0051-4.5029-.0085-7.2267h-37.09235c-.00338 2.7322-.00676 5.2309-.00845 7.2267-.00169 1.2917.26881 2.5308.78276 3.5854 1.06848 2.199 2.9231 4.7366 5.58584 7.1946h24.3738c2.6627-2.458 4.5157-4.9956 5.5841-7.1946z"/></g><path d="m11.3847 16.4086c-2.27222-2.2751-6.21646-1.3525-6.21646-1.3525s-.92139 3.9493 1.35081 6.2245c2.29757 2.3006 6.18265 1.3187 6.18265 1.3187s.9805-3.8918-1.317-6.1907zm6.4058-6.4632c0-3.25363-3.4405-5.31042-3.4405-5.31042s-3.4404 2.05679-3.4404 5.31042c0 3.2181 3.4404 5.3578 3.4404 5.3578s3.4405-2.1397 3.4405-5.3578zm5.7413 5.109s-3.9442-.9226-6.2164 1.3525c-2.2976 2.3006-1.317 6.1907-1.317 6.1907s3.8851.9802 6.1826-1.3187c2.2722-2.2752 1.3508-6.2245 1.3508-6.2245z" fill="#8cc745"/><path d="m91.9364 50.7478v-17.7748h2.6594c6.3602 0 9.3422 3.6701 9.3422 8.8874s-2.982 8.8874-9.3422 8.8874zm-3.809 3.3467h6.7203c7.8703 0 13.0433-4.894 13.0433-12.2341s-5.211-12.2324-13.0433-12.2324h-6.7203zm-27.5995-6.6562 3.0549-7.6279c.6104-1.4389 1.1852-3.6345 1.1852-3.6345s.6103 2.1939 1.2223 3.6345l3.055 7.6279zm-6.3602 6.6562h3.6653l1.4015-3.4534h11.1751l1.4015 3.4534h3.9527l-10.7084-24.7188h-.4311z" fill="#6ea101"/><path d="m82.3843 29.628h-3.7735v24.4665h3.7735z" fill="#6ea101"/><path d="m38.57 52.3527h-.6357v-.2929h1.5994v.2929h-.6357v1.8469h-.3297v-1.8469z" fill="#003da6"/><path d="m39.8617 52.0377h.0338l1.0212 1.1952 1.0127-1.1952h.0338v2.1618h-.3179v-1.1105c0-.1202.0119-.3081.0119-.3081s-.1032.1608-.1911.2573l-.5376.6484h-.0372l-.5376-.6484c-.0812-.0982-.1894-.2573-.1894-.2573s.0119.1896.0119.3081v1.1105h-.3179v-2.1618z" fill="#003da6"/></svg>