<svg xmlns="http://www.w3.org/2000/svg" width="1349" height="529" viewBox="0 0 1349 529" fill="none">
  <path d="M224.521 0.5C287.875 0.5 334.322 22.8985 364.926 56.3096C395.522 89.712 410.251 134.085 410.251 177.988C410.251 251.136 370.265 315.305 286.793 338.11L422.624 527.157L423.193 527.949H269.672L269.523 527.728L148.561 347.349H133.298V527.949H0.5V0.5H224.521ZM815.488 0.5V117.987H597.31V208.19H789.663V328.386H597.31V411.365H822.612V520.961L1003.54 247.524L833.646 1.28418L833.105 0.5H993.736L993.884 0.732422L1083.4 141.837L1172.93 0.732422L1173.07 0.5H1331.92L1331.38 1.28223L1162.37 248.426L1347.42 527.173L1347.93 527.949H1191.77L1191.62 527.715L1083.4 355.011L974.293 527.716L974.146 527.949H464.512V0.5H815.488ZM133.298 242.504H204.93C229.75 242.504 247.652 234.417 259.347 222.895C271.047 211.366 276.562 196.371 276.562 182.503C276.562 154.753 253.601 117.987 204.93 117.987H133.298V242.504Z" fill="white" stroke="white"/>
</svg>